<svg width="121" height="23" viewBox="0 0 121 23" fill="none" xmlns="http://www.w3.org/2000/svg">
<path d="M11.7828 14.544H5.85475L4.75075 18H0.76675L7.05475 0.935999H10.5348L16.8948 18H12.9108L11.7828 14.544ZM10.8708 11.64L8.80675 5.304L6.76675 11.64H10.8708ZM21.9301 18H18.3301V-1.43051e-06H21.9301V18ZM28.3754 18H24.7754V-1.43051e-06H28.3754V18ZM50.8467 11.76C50.8467 13.056 50.6467 14.192 50.2467 15.168C49.8467 16.144 49.2707 16.904 48.5187 17.448C47.7827 17.976 46.9187 18.24 45.9267 18.24C44.6787 18.24 43.6627 17.8 42.8787 16.92V22.872H39.2787V5.328H42.6387L42.7587 6.552C43.5267 5.576 44.5747 5.088 45.9027 5.088C47.4387 5.088 48.6467 5.664 49.5267 6.816C50.4067 7.968 50.8467 9.552 50.8467 11.568V11.76ZM42.8787 14.256C43.2947 15.056 43.9987 15.456 44.9907 15.456C45.7107 15.456 46.2547 15.16 46.6227 14.568C47.0067 13.96 47.2067 13.064 47.2227 11.88V11.496C47.2387 10.328 47.0547 9.44 46.6707 8.832C46.2867 8.208 45.7187 7.896 44.9667 7.896C43.9587 7.896 43.2627 8.28 42.8787 9.048V14.256ZM60.1701 8.568C59.9301 8.504 59.5061 8.472 58.8981 8.472C57.6181 8.472 56.7861 8.912 56.4021 9.792V18H52.8021V5.328H56.2101L56.3061 6.936C56.9781 5.704 57.9221 5.088 59.1381 5.088C59.5541 5.088 59.9141 5.136 60.2181 5.232L60.1701 8.568ZM60.7819 11.544C60.7499 10.376 60.9579 9.304 61.4059 8.328C61.8699 7.336 62.5579 6.552 63.4699 5.976C64.3979 5.384 65.5179 5.088 66.8299 5.088C68.0459 5.088 69.1099 5.36 70.0219 5.904C70.9339 6.432 71.6379 7.192 72.1339 8.184C72.6299 9.16 72.8779 10.312 72.8779 11.64V11.784C72.8779 13.096 72.6299 14.24 72.1339 15.216C71.6379 16.176 70.9339 16.92 70.0219 17.448C69.1099 17.976 68.0539 18.24 66.8539 18.24C65.6699 18.24 64.6299 17.992 63.7339 17.496C62.8379 17 62.1339 16.288 61.6219 15.36C61.1099 14.432 60.8379 13.352 60.8059 12.12L60.7819 11.544ZM64.3819 11.784C64.3819 13 64.5899 13.92 65.0059 14.544C65.4379 15.152 66.0539 15.456 66.8539 15.456C67.6379 15.456 68.2379 15.152 68.6539 14.544C69.0859 13.936 69.3019 13.056 69.3019 11.904V11.544C69.3019 10.36 69.0859 9.456 68.6539 8.832C68.2379 8.192 67.6299 7.872 66.8299 7.872C66.0779 7.872 65.4939 8.152 65.0779 8.712C64.6619 9.272 64.4299 10.096 64.3819 11.184V11.784ZM74.3288 11.568C74.3288 9.568 74.7688 7.992 75.6488 6.84C76.5448 5.672 77.7608 5.088 79.2968 5.088C80.5128 5.088 81.5048 5.544 82.2728 6.456V-1.43051e-06H85.8728V18H82.6328L82.4648 16.632C81.6488 17.704 80.5848 18.24 79.2728 18.24C78.2808 18.24 77.4088 17.976 76.6568 17.448C75.9208 16.92 75.3448 16.152 74.9288 15.144C74.5288 14.136 74.3288 12.944 74.3288 11.568ZM77.9288 11.808C77.9288 12.992 78.1208 13.896 78.5048 14.52C78.8888 15.128 79.4488 15.432 80.1848 15.432C81.1768 15.432 81.8728 15.016 82.2728 14.184V9.144C81.8728 8.312 81.1848 7.896 80.2088 7.896C79.5048 7.896 78.9608 8.176 78.5768 8.736C78.1928 9.28 77.9768 10.088 77.9288 11.16V11.808ZM96.0843 18L95.9883 16.656C95.1563 17.712 94.0043 18.24 92.5323 18.24C91.1563 18.24 90.1083 17.84 89.3883 17.04C88.6683 16.224 88.3083 15.056 88.3083 13.536V5.328H91.9083V13.56C91.9083 14.808 92.4843 15.432 93.6363 15.432C94.7083 15.432 95.4443 15.048 95.8443 14.28V5.328H99.4443V18H96.0843ZM107.137 15.456C107.729 15.456 108.201 15.288 108.553 14.952C108.921 14.6 109.113 14.144 109.129 13.584H112.489C112.489 14.464 112.257 15.256 111.793 15.96C111.345 16.664 110.721 17.224 109.921 17.64C109.121 18.04 108.209 18.24 107.185 18.24C105.361 18.24 103.921 17.664 102.865 16.512C101.825 15.344 101.305 13.744 101.305 11.712V11.496C101.305 10.28 101.529 9.192 101.977 8.232C102.425 7.256 103.089 6.488 103.969 5.928C104.849 5.368 105.921 5.088 107.185 5.088C108.785 5.088 110.065 5.544 111.025 6.456C111.985 7.352 112.473 8.56 112.489 10.08H109.129C109.113 9.392 108.921 8.856 108.553 8.472C108.185 8.072 107.697 7.872 107.089 7.872C106.353 7.872 105.809 8.168 105.457 8.76C105.105 9.336 104.921 10.24 104.905 11.472V11.832C104.889 13.112 105.065 14.04 105.433 14.616C105.801 15.176 106.369 15.456 107.137 15.456ZM118.621 2.184V5.328H120.757V7.848H118.621V14.064C118.621 14.56 118.709 14.904 118.885 15.096C119.061 15.288 119.405 15.384 119.917 15.384C120.269 15.384 120.597 15.36 120.901 15.312V17.928C120.261 18.136 119.557 18.24 118.789 18.24C117.509 18.24 116.557 17.928 115.933 17.304C115.325 16.68 115.021 15.728 115.021 14.448V7.848H113.269V5.328H115.021V2.184H118.621Z" fill="#090909"/>
</svg>
