<svg width="40" height="158" viewBox="0 0 40 158" fill="none" xmlns="http://www.w3.org/2000/svg">
<path d="M12.9723 109.421L12.4254 108.584L12.9723 109.421ZM30.3125 154.375C30.421 154.917 30.07 155.444 29.5285 155.552L20.7041 157.321C20.1626 157.43 19.6356 157.079 19.5271 156.537C19.4185 155.996 19.7695 155.469 20.311 155.36L28.1549 153.788L26.5824 145.944C26.4739 145.402 26.8248 144.875 27.3663 144.767C27.9079 144.658 28.4348 145.009 28.5434 145.551L30.3125 154.375ZM38.8319 2.57173L38.5713 3.53718C28.9427 0.937977 24.0131 2.21993 21.3505 5.2647C19.9783 6.83371 19.099 8.97913 18.5509 11.6226C18.0032 14.2646 17.8017 17.326 17.7281 20.6643C17.5826 27.2721 17.9498 35.0019 16.9446 42.0921C15.9337 49.2227 13.512 55.9585 7.62538 60.5929L7.0068 59.8072L6.38822 59.0215C11.6957 54.843 13.987 48.7055 14.9644 41.8114C15.9476 34.8768 15.5786 27.4306 15.7286 20.6202C15.8029 17.2494 16.007 14.0413 16.5926 11.2167C17.1778 8.39367 18.1592 5.87571 19.8449 3.9481C23.2979 -0.000380341 29.2724 -1.0446 39.0925 1.60629L38.8319 2.57173ZM7.0068 59.8072L7.62538 60.5929C4.92568 62.7184 3.4767 64.731 2.84926 66.6192C2.22733 68.491 2.37534 70.3525 3.08303 72.2627C3.79818 74.193 5.07728 76.1491 6.6827 78.1537C8.28693 80.1569 10.1686 82.1507 12.0624 84.1813C13.9423 86.1972 15.8333 88.2484 17.3908 90.3148C18.9457 92.3778 20.2184 94.5196 20.8119 96.7331C21.4141 98.9787 21.3113 101.282 20.1455 103.593C18.9946 105.874 16.8492 108.083 13.5191 110.259L12.9723 109.421L12.4254 108.584C15.5867 106.519 17.4237 104.548 18.3598 102.692C19.2807 100.866 19.3692 99.0749 18.8802 97.2511C18.3825 95.3952 17.2815 93.4927 15.7937 91.5186C14.3085 89.5481 12.4875 87.5696 10.5997 85.5454C8.7257 83.5359 6.78371 81.4793 5.12161 79.4039C3.4607 77.33 2.03082 75.1795 1.2076 72.9575C0.376912 70.7153 0.157152 68.3786 0.951296 65.9886C1.73994 63.6151 3.49088 61.3025 6.38822 59.0215L7.0068 59.8072ZM12.9723 109.421L13.5191 110.259C7.27343 114.338 5.28222 118.962 5.57228 123.569C5.86945 128.288 8.57148 133.203 12.1958 137.732C15.8021 142.239 20.2221 146.242 23.7567 149.128C25.5209 150.568 27.0576 151.723 28.1518 152.518C28.6987 152.916 29.1347 153.223 29.4329 153.429C29.5819 153.533 29.6965 153.611 29.7732 153.663C29.8115 153.689 29.8404 153.709 29.8594 153.721C29.8689 153.728 29.8759 153.733 29.8804 153.736C29.8827 153.737 29.8843 153.738 29.8853 153.739C29.8858 153.739 29.886 153.739 29.8863 153.739C29.8864 153.74 29.8863 153.739 29.332 154.572C28.7777 155.404 28.7773 155.404 28.7767 155.403C28.7763 155.403 28.7756 155.403 28.7748 155.402C28.7732 155.401 28.771 155.4 28.7681 155.398C28.7624 155.394 28.7541 155.388 28.7434 155.381C28.7219 155.367 28.6904 155.345 28.6495 155.318C28.5676 155.262 28.4477 155.18 28.2931 155.073C27.9839 154.858 27.5359 154.543 26.9763 154.136C25.8572 153.323 24.2901 152.145 22.492 150.677C18.9021 147.747 14.3636 143.642 10.6342 138.982C6.92299 134.344 3.91225 129.031 3.57624 123.695C3.23312 118.245 5.68833 112.985 12.4254 108.584L12.9723 109.421Z" fill="#2CBEE3"/>
</svg>
