<svg width="388" height="363" viewBox="0 0 388 363" fill="none" xmlns="http://www.w3.org/2000/svg">
<path d="M84.6188 116.388C108.649 113.622 125.758 92.9579 122.833 70.2335C119.908 47.509 98.0564 31.3296 74.0266 34.0956C49.9967 36.8617 32.8877 57.5258 35.8127 80.2502C38.7377 102.975 60.5889 119.154 84.6188 116.388Z" fill="#EBEBEB"/>
<path d="M102.99 97.6224C116.058 85.264 116.058 65.2272 102.99 52.8688C89.9213 40.5105 68.7334 40.5105 55.6652 52.8688C42.5969 65.2272 42.5969 85.264 55.6651 97.6224C68.7334 109.981 89.9213 109.981 102.99 97.6224Z" fill="white"/>
<path d="M79.3225 97.8606C92.5278 97.8606 103.233 87.7371 103.233 75.2491C103.233 62.7612 92.5278 52.6377 79.3225 52.6377C66.1172 52.6377 55.4121 62.7612 55.4121 75.2491C55.4121 87.7371 66.1172 97.8606 79.3225 97.8606Z" fill="#EBEBEB"/>
<path d="M82.3908 87.4013C89.4935 85.8049 93.8828 79.0656 92.1946 72.3488C90.5065 65.632 83.3801 61.4812 76.2775 63.0776C69.1748 64.6741 64.7855 71.4133 66.4737 78.1301C68.1618 84.8469 75.2882 88.9978 82.3908 87.4013Z" fill="white"/>
<path d="M73.3506 75.2493C73.3524 76.3656 73.7041 77.4564 74.3613 78.3838C75.0185 79.3112 75.9516 80.0335 77.0428 80.4595C78.1339 80.8855 79.3341 80.9961 80.4917 80.7773C81.6493 80.5584 82.7123 80.02 83.5464 79.23C84.3805 78.44 84.9482 77.4339 85.1778 76.3388C85.4075 75.2438 85.2887 74.109 84.8365 73.0778C84.3843 72.0466 83.6191 71.1652 82.6374 70.5452C81.6557 69.9252 80.5017 69.5942 79.3212 69.5942C78.5364 69.5942 77.7592 69.7406 77.0342 70.0249C76.3092 70.3092 75.6506 70.7259 75.0961 71.2511C74.5415 71.7763 74.1019 72.3998 73.8024 73.0859C73.5029 73.7719 73.3494 74.5071 73.3506 75.2493Z" fill="#EBEBEB"/>
<path d="M19.463 17.3453L18.1016 18.6328L74.7469 72.2009L76.1084 70.9133L19.463 17.3453Z" fill="#A6A6A6"/>
<path d="M71.916 73.3672L79.3215 75.2492L77.3405 68.2461L71.916 73.3672Z" fill="#A6A6A6"/>
<path d="M9.30273 14.5059L19.9203 24.5466L28.2515 26.954L25.7058 19.0754L15.0883 9.02588L17.6339 16.9044L9.30273 14.5059Z" fill="#A6A6A6"/>
<path d="M275.501 7.05566L278.575 11.3889L283.888 12.8158L280.482 16.9126L280.685 22.13L275.501 20.3354L270.327 22.13L270.531 16.9126L267.124 12.8158L272.428 11.3889L275.501 7.05566Z" fill="#EBEBEB"/>
<path d="M299.199 7.05566L302.272 11.3889L307.576 12.8158L304.17 16.9126L304.373 22.13L299.199 20.3354L294.024 22.13L294.228 16.9126L290.821 12.8158L296.125 11.3889L299.199 7.05566Z" fill="#EBEBEB"/>
<path d="M322.886 7.05566L325.959 11.3889L331.264 12.8158L327.857 16.9126L328.07 22.13L322.886 20.3354L317.712 22.13L317.915 16.9126L314.509 12.8158L319.813 11.3889L322.886 7.05566Z" fill="#EBEBEB"/>
<path d="M346.584 7.05566L349.658 11.3889L354.962 12.8158L351.555 16.9126L351.759 22.13L346.584 20.3354L341.401 22.13L341.614 16.9126L338.207 12.8158L343.511 11.3889L346.584 7.05566Z" fill="#EBEBEB"/>
<path d="M364.608 22.7605L364.839 17.0617L361.137 12.5709L366.941 11.0127L370.301 6.26807L373.67 11.0127L379.475 12.5709L375.772 17.0617L375.994 22.7605L370.329 20.7996L364.608 22.7605ZM370.273 19.8454L374.966 21.4737L374.781 16.7553L377.864 13.0349L373.06 11.748L370.282 7.82627L367.505 11.748L362.701 13.0349L365.784 16.7553L365.599 21.4737L370.273 19.8454Z" fill="#EBEBEB"/>
<path d="M370.273 20.3354V7.05566L367.2 11.3889L361.896 12.8158L365.302 16.9126L365.098 22.13L370.273 20.3354Z" fill="#EBEBEB"/>
<path fill-rule="evenodd" clip-rule="evenodd" d="M340.689 190.013C339.513 189.322 338.486 188.315 336.921 188.464C336.319 188.525 336.449 188.052 336.449 187.737C336.449 182.158 336.424 176.585 336.375 171.017C336.375 170.614 336.375 170.273 336.866 170.054C341.364 167.892 343.299 163.664 346.048 160.04C347.454 158.241 348.464 156.194 349.017 154.02C349.57 151.845 349.656 149.588 349.27 147.381C349.075 146.13 349.686 145.561 350.88 145.307C352.325 144.992 353.759 145.359 354.25 146.296C355.556 148.566 356.436 151.034 356.851 153.588C357.12 155.707 356.323 157.764 356.055 159.856C355.851 161.388 355.481 162.902 355.176 164.452C355.574 164.723 356.027 164.583 356.453 164.592H371.394C373.495 164.592 374.522 165.152 374.819 166.465C374.982 167.275 374.861 168.113 374.473 168.851C374.085 169.589 373.452 170.187 372.671 170.553C372.292 170.737 371.625 170.553 371.579 171.131C371.532 171.709 372.227 171.63 372.569 171.858C374.421 173.022 374.05 175.429 371.977 176.839C371.468 177.171 370.496 177.014 370.477 177.714C370.477 178.265 371.403 178.257 371.792 178.651C373.254 180.007 372.541 182.546 370.366 183.579C370.068 183.667 369.777 183.775 369.496 183.903C369.246 184.061 369.005 184.236 369.496 184.56C371.653 186.004 371.616 188.061 369.45 189.523L368.802 189.961C368.017 190.413 367.096 190.607 366.182 190.512C358.369 190.553 350.56 190.579 342.753 190.591C342.386 190.629 342.014 190.598 341.659 190.499C341.305 190.4 340.975 190.235 340.689 190.013Z" fill="#EBEBEB"/>
<path fill-rule="evenodd" clip-rule="evenodd" d="M318.443 180.253C318.443 176.751 318.443 173.171 318.388 169.625C318.388 168.907 318.462 168.549 319.397 168.557C323.97 168.604 328.536 168.604 333.097 168.557C334.022 168.557 334.134 168.837 334.134 169.59C334.134 176.716 334.158 183.842 334.208 190.967C334.208 191.843 333.958 192.132 332.995 192.123C328.57 192.123 324.136 192.123 319.702 192.175C318.601 192.175 318.453 191.825 318.462 190.915C318.499 187.335 318.452 183.798 318.443 180.253Z" fill="#EBEBEB"/>
<path d="M145.573 349.816H24.3086C23.6654 349.816 23.0485 349.575 22.5937 349.145C22.1389 348.714 21.8834 348.131 21.8834 347.523V333.858C21.8834 333.814 21.8834 333.77 21.8834 333.727C21.8834 333.683 21.8834 333.569 21.8834 333.481L36.611 282.577L17.6252 171.288L11.2843 169.205C10.7298 168.989 10.2793 168.587 10.0199 168.076C9.76056 167.565 9.71061 166.981 9.87973 166.437C10.0488 165.893 10.425 165.427 10.9357 165.13C11.4464 164.833 12.0554 164.725 12.645 164.828L20.4671 167.323C20.9102 167.445 21.3069 167.685 21.6104 168.014C21.9139 168.343 22.1114 168.747 22.1796 169.179L41.4708 282.28C41.5219 282.534 41.5219 282.795 41.4708 283.05L27.2338 331.827L140.167 339.417C140.794 339.458 141.38 339.724 141.806 340.161L147.36 345.991C147.672 346.32 147.877 346.728 147.95 347.165C148.023 347.601 147.961 348.049 147.771 348.453C147.582 348.858 147.272 349.201 146.881 349.443C146.489 349.685 146.032 349.815 145.564 349.816H145.573ZM26.7617 345.238H140.112L138.862 343.925L26.7617 336.388V345.238Z" fill="#C7C7C7"/>
<path d="M189.959 207.451H26.5389C26.2084 207.47 25.8773 207.425 25.5658 207.319C25.2544 207.213 24.9693 207.047 24.728 206.833C24.4868 206.618 24.2945 206.359 24.1631 206.072C24.0317 205.785 23.9639 205.475 23.9639 205.162C23.9639 204.849 24.0317 204.539 24.1631 204.251C24.2945 203.964 24.4868 203.705 24.728 203.491C24.9693 203.276 25.2544 203.111 25.5658 203.004C25.8773 202.898 26.2084 202.853 26.5389 202.873H189.959C190.289 202.853 190.621 202.898 190.932 203.004C191.244 203.111 191.529 203.276 191.77 203.491C192.011 203.705 192.203 203.964 192.335 204.251C192.466 204.539 192.534 204.849 192.534 205.162C192.534 205.475 192.466 205.785 192.335 206.072C192.203 206.359 192.011 206.618 191.77 206.833C191.529 207.047 191.244 207.213 190.932 207.319C190.621 207.425 190.289 207.47 189.959 207.451Z" fill="#C7C7C7"/>
<path d="M39.0726 283.391C38.8727 283.371 38.6878 283.282 38.5534 283.14C38.4191 282.999 38.3447 282.815 38.3447 282.625C38.3447 282.435 38.4191 282.252 38.5534 282.11C38.6878 281.969 38.8727 281.88 39.0726 281.859L161.837 275.653L186.006 204.93C186.039 204.834 186.091 204.746 186.16 204.669C186.229 204.593 186.313 204.53 186.408 204.484C186.502 204.439 186.605 204.411 186.711 204.404C186.817 204.396 186.924 204.408 187.025 204.439C187.126 204.473 187.218 204.526 187.297 204.595C187.376 204.664 187.439 204.747 187.483 204.839C187.527 204.931 187.551 205.031 187.554 205.133C187.556 205.234 187.536 205.335 187.497 205.429L163.151 276.651C163.103 276.799 163.007 276.929 162.878 277.024C162.749 277.12 162.593 277.176 162.429 277.185L39.1189 283.383L39.0726 283.391Z" fill="#C7C7C7"/>
<path d="M164.503 270.768H36.8327C36.6191 270.768 36.4143 270.688 36.2632 270.545C36.1122 270.402 36.0273 270.209 36.0273 270.007C36.0273 269.805 36.1122 269.611 36.2632 269.468C36.4143 269.325 36.6191 269.245 36.8327 269.245H164.503C164.716 269.245 164.921 269.325 165.072 269.468C165.223 269.611 165.308 269.805 165.308 270.007C165.308 270.209 165.223 270.402 165.072 270.545C164.921 270.688 164.716 270.768 164.503 270.768Z" fill="#C7C7C7"/>
<path d="M167.752 261.454H35.3239C35.1103 261.454 34.9055 261.374 34.7544 261.231C34.6034 261.088 34.5186 260.895 34.5186 260.693C34.5186 260.491 34.6034 260.297 34.7544 260.154C34.9055 260.011 35.1103 259.931 35.3239 259.931H167.752C167.966 259.931 168.171 260.011 168.322 260.154C168.473 260.297 168.557 260.491 168.557 260.693C168.557 260.895 168.473 261.088 168.322 261.231C168.171 261.374 167.966 261.454 167.752 261.454Z" fill="#C7C7C7"/>
<path d="M170.752 252.201H33.8343C33.6344 252.181 33.4495 252.091 33.3152 251.95C33.1808 251.808 33.1064 251.625 33.1064 251.435C33.1064 251.245 33.1808 251.061 33.3152 250.92C33.4495 250.779 33.6344 250.689 33.8343 250.669H170.752C170.866 250.657 170.981 250.669 171.089 250.702C171.198 250.735 171.298 250.79 171.383 250.862C171.468 250.934 171.536 251.023 171.583 251.121C171.629 251.22 171.653 251.327 171.653 251.435C171.653 251.543 171.629 251.65 171.583 251.749C171.536 251.847 171.468 251.936 171.383 252.008C171.298 252.08 171.198 252.135 171.089 252.168C170.981 252.201 170.866 252.212 170.752 252.201Z" fill="#C7C7C7"/>
<path d="M174.009 242.913H32.3242C32.2105 242.925 32.0956 242.914 31.9868 242.88C31.8781 242.847 31.778 242.793 31.693 242.72C31.608 242.648 31.54 242.56 31.4934 242.461C31.4469 242.362 31.4229 242.255 31.4229 242.147C31.4229 242.039 31.4469 241.932 31.4934 241.834C31.54 241.735 31.608 241.647 31.693 241.574C31.778 241.502 31.8781 241.448 31.9868 241.414C32.0956 241.381 32.2105 241.37 32.3242 241.381H174.009C174.209 241.402 174.394 241.491 174.528 241.632C174.663 241.774 174.737 241.957 174.737 242.147C174.737 242.337 174.663 242.521 174.528 242.662C174.394 242.804 174.209 242.893 174.009 242.913Z" fill="#C7C7C7"/>
<path d="M177.111 233.625H30.8532C30.6396 233.625 30.4348 233.545 30.2837 233.402C30.1327 233.259 30.0479 233.066 30.0479 232.864C30.0479 232.662 30.1327 232.468 30.2837 232.325C30.4348 232.182 30.6396 232.102 30.8532 232.102H177.111C177.325 232.102 177.53 232.182 177.681 232.325C177.832 232.468 177.916 232.662 177.916 232.864C177.916 233.066 177.832 233.259 177.681 233.402C177.53 233.545 177.325 233.625 177.111 233.625Z" fill="#C7C7C7"/>
<path d="M180.443 224.338H29.3161C29.1025 224.338 28.8977 224.257 28.7466 224.115C28.5956 223.972 28.5107 223.778 28.5107 223.576C28.5107 223.374 28.5956 223.18 28.7466 223.038C28.8977 222.895 29.1025 222.814 29.3161 222.814H180.443C180.657 222.814 180.862 222.895 181.013 223.038C181.164 223.18 181.248 223.374 181.248 223.576C181.248 223.778 181.164 223.972 181.013 224.115C180.862 224.257 180.657 224.338 180.443 224.338Z" fill="#C7C7C7"/>
<path d="M183.619 215.058H27.8171C27.6035 215.058 27.3986 214.978 27.2476 214.835C27.0966 214.692 27.0117 214.498 27.0117 214.296C27.0117 214.094 27.0966 213.901 27.2476 213.758C27.3986 213.615 27.6035 213.535 27.8171 213.535H183.619C183.832 213.535 184.037 213.615 184.188 213.758C184.339 213.901 184.424 214.094 184.424 214.296C184.424 214.498 184.339 214.692 184.188 214.835C184.037 214.978 183.832 215.058 183.619 215.058Z" fill="#C7C7C7"/>
<path d="M50.0991 282.463C49.8948 282.464 49.6979 282.391 49.5484 282.259C49.3989 282.127 49.3078 281.947 49.2937 281.754L43.0917 205.218C43.0828 205.119 43.095 205.019 43.1276 204.923C43.1602 204.828 43.2125 204.74 43.2814 204.665C43.3504 204.589 43.4346 204.527 43.5291 204.482C43.6237 204.437 43.7267 204.411 43.8322 204.404C44.0448 204.392 44.2543 204.458 44.4165 204.589C44.5788 204.719 44.6812 204.904 44.7023 205.105L50.9044 281.588C50.9197 281.789 50.8505 281.987 50.7117 282.139C50.5729 282.292 50.376 282.386 50.1639 282.402L50.0991 282.463Z" fill="#C7C7C7"/>
<path d="M150.192 277.43C150.125 277.439 150.056 277.439 149.989 277.43C149.782 277.377 149.606 277.249 149.498 277.073C149.391 276.898 149.361 276.69 149.415 276.493L169.974 204.991C170.031 204.796 170.166 204.629 170.352 204.528C170.537 204.426 170.757 204.398 170.965 204.449C171.067 204.475 171.163 204.52 171.246 204.581C171.33 204.643 171.4 204.719 171.452 204.806C171.505 204.893 171.539 204.989 171.552 205.088C171.565 205.188 171.557 205.289 171.529 205.385L150.979 276.887C150.926 277.045 150.821 277.183 150.68 277.281C150.538 277.378 150.367 277.431 150.192 277.43Z" fill="#C7C7C7"/>
<path d="M62.9914 281.851C62.7801 281.849 62.578 281.769 62.4278 281.628C62.2775 281.488 62.1908 281.298 62.1861 281.098L60.1866 205.184C60.184 204.982 60.2646 204.786 60.4114 204.639C60.5583 204.492 60.7598 204.405 60.9734 204.396C61.1847 204.396 61.3878 204.473 61.5398 204.612C61.6918 204.751 61.7808 204.94 61.788 205.14L63.7782 281.063C63.7832 281.266 63.7034 281.462 63.5561 281.61C63.4088 281.757 63.2058 281.844 62.9914 281.851Z" fill="#C7C7C7"/>
<path d="M76.2304 281.168C76.1246 281.166 76.0204 281.144 75.9236 281.103C75.8268 281.063 75.7394 281.005 75.6663 280.933C75.5932 280.86 75.536 280.775 75.4977 280.682C75.4595 280.589 75.4411 280.489 75.4436 280.389L76.9247 205.149C76.9295 204.949 77.0161 204.759 77.1664 204.618C77.3167 204.478 77.5187 204.398 77.73 204.396C77.8358 204.398 77.94 204.42 78.0368 204.461C78.1336 204.501 78.2211 204.559 78.2941 204.631C78.3672 204.704 78.4245 204.789 78.4627 204.882C78.5009 204.976 78.5193 205.075 78.5168 205.175L77.0358 280.459C77.0217 280.652 76.9306 280.832 76.7811 280.964C76.6316 281.096 76.4347 281.169 76.2304 281.168Z" fill="#C7C7C7"/>
<path d="M136.104 278.025H135.946C135.741 277.987 135.559 277.874 135.441 277.71C135.324 277.546 135.279 277.345 135.317 277.15L150.933 205.052C150.98 204.861 151.101 204.693 151.273 204.583C151.444 204.473 151.654 204.428 151.859 204.457C152.063 204.497 152.243 204.611 152.361 204.774C152.478 204.938 152.524 205.138 152.488 205.332L136.872 277.43C136.831 277.595 136.734 277.743 136.595 277.851C136.456 277.959 136.283 278.02 136.104 278.025Z" fill="#C7C7C7"/>
<path d="M120.052 278.961H119.922C119.712 278.927 119.524 278.816 119.4 278.652C119.275 278.489 119.223 278.285 119.255 278.086L131.9 205.078C131.937 204.88 132.054 204.703 132.228 204.587C132.401 204.47 132.616 204.424 132.826 204.457C132.93 204.472 133.03 204.508 133.12 204.561C133.21 204.613 133.287 204.683 133.349 204.764C133.41 204.846 133.453 204.938 133.476 205.035C133.499 205.133 133.502 205.234 133.483 205.332L120.848 278.296C120.821 278.479 120.726 278.646 120.58 278.768C120.434 278.89 120.246 278.959 120.052 278.961Z" fill="#C7C7C7"/>
<path d="M89.7827 280.441H89.7179C89.6125 280.435 89.5094 280.408 89.4149 280.363C89.3203 280.319 89.2361 280.257 89.1672 280.181C89.0982 280.105 89.046 280.017 89.0134 279.922C88.9808 279.827 88.9686 279.727 88.9774 279.627L94.874 205.105C94.89 204.903 94.9901 204.715 95.1524 204.583C95.3147 204.451 95.5259 204.385 95.7395 204.4C95.9531 204.415 96.1516 204.51 96.2913 204.663C96.4311 204.817 96.5006 205.017 96.4847 205.219L90.5881 279.741C90.5697 279.931 90.4771 280.109 90.3282 280.238C90.1794 280.367 89.9849 280.44 89.7827 280.441Z" fill="#C7C7C7"/>
<path d="M105.656 279.47H105.564C105.456 279.458 105.351 279.426 105.256 279.375C105.161 279.324 105.078 279.256 105.012 279.175C104.945 279.093 104.897 279 104.869 278.9C104.842 278.8 104.836 278.697 104.851 278.595L113.497 205.061C113.509 204.962 113.541 204.866 113.592 204.778C113.643 204.69 113.711 204.613 113.794 204.55C113.876 204.488 113.971 204.441 114.073 204.413C114.174 204.385 114.281 204.376 114.386 204.387C114.491 204.398 114.593 204.429 114.685 204.477C114.778 204.525 114.86 204.59 114.926 204.668C114.992 204.746 115.042 204.836 115.071 204.932C115.101 205.028 115.11 205.128 115.098 205.228L106.453 278.761C106.439 278.952 106.349 279.131 106.201 279.263C106.054 279.394 105.859 279.468 105.656 279.47Z" fill="#C7C7C7"/>
<path d="M40.0449 361.739C45.0397 361.739 49.0888 357.91 49.0888 353.186C49.0888 348.463 45.0397 344.634 40.0449 344.634C35.0501 344.634 31.001 348.463 31.001 353.186C31.001 357.91 35.0501 361.739 40.0449 361.739Z" fill="#263238"/>
<path d="M44.1546 353.187C44.1546 353.955 43.9136 354.707 43.462 355.346C43.0104 355.985 42.3685 356.483 41.6174 356.777C40.8664 357.072 40.04 357.149 39.2428 356.999C38.4455 356.849 37.7132 356.478 37.1384 355.935C36.5636 355.391 36.1721 354.699 36.0135 353.945C35.855 353.191 35.9363 352.409 36.2474 351.699C36.5585 350.989 37.0853 350.382 37.7612 349.955C38.4371 349.528 39.2317 349.3 40.0446 349.3C41.1347 349.3 42.1801 349.709 42.9508 350.438C43.7216 351.167 44.1546 352.156 44.1546 353.187Z" fill="#EBEBEB"/>
<path d="M120.978 361.739C125.973 361.739 130.022 357.91 130.022 353.186C130.022 348.463 125.973 344.634 120.978 344.634C115.984 344.634 111.935 348.463 111.935 353.186C111.935 357.91 115.984 361.739 120.978 361.739Z" fill="#263238"/>
<path d="M125.087 353.187C125.087 353.955 124.846 354.707 124.395 355.346C123.943 355.985 123.301 356.483 122.55 356.777C121.799 357.072 120.973 357.149 120.175 356.999C119.378 356.849 118.646 356.478 118.071 355.935C117.496 355.391 117.105 354.699 116.946 353.945C116.788 353.191 116.869 352.409 117.18 351.699C117.491 350.989 118.018 350.382 118.694 349.955C119.37 349.528 120.164 349.3 120.977 349.3C122.067 349.3 123.113 349.709 123.883 350.438C124.654 351.167 125.087 352.156 125.087 353.187Z" fill="#EBEBEB"/>
<path d="M17.9945 171.752C17.6595 171.753 17.3271 171.697 17.0133 171.586L4.27592 167.016C3.93494 166.894 3.62279 166.709 3.35731 166.472C3.09183 166.236 2.8782 165.952 2.72864 165.638C2.57907 165.323 2.49649 164.984 2.48561 164.639C2.47473 164.294 2.53576 163.951 2.66523 163.628C2.79469 163.306 2.99005 163.011 3.24015 162.76C3.49025 162.509 3.79019 162.307 4.12284 162.165C4.4555 162.024 4.81436 161.946 5.17893 161.935C5.5435 161.925 5.90664 161.983 6.24762 162.105L19.022 166.675C19.6269 166.895 20.1313 167.308 20.4479 167.842C20.7646 168.377 20.8736 169 20.756 169.602C20.6385 170.205 20.3018 170.75 19.8042 171.142C19.3066 171.535 18.6796 171.751 18.0316 171.752H17.9945Z" fill="#9D915F"/>
<path d="M7.52637 361.739C126.939 361.205 260.978 361.196 380.428 361.739C261.015 362.282 126.976 362.273 7.52637 361.739Z" fill="#263238"/>
<path d="M272.214 26.5942H115.719C113.62 26.6125 111.547 27.0215 109.615 27.7978C107.684 28.5741 105.934 29.7025 104.464 31.1185C102.994 32.5346 101.834 34.2105 101.049 36.0508C100.264 37.891 99.8698 39.8594 99.8894 41.8436V346.481C99.8524 350.488 101.499 354.344 104.467 357.204C107.435 360.063 111.482 361.691 115.719 361.73H272.214C276.453 361.691 280.502 360.064 283.473 357.205C286.444 354.346 288.094 350.489 288.062 346.481V41.8436C288.097 37.8347 286.447 33.9768 283.475 31.1174C280.504 28.2581 276.454 26.6312 272.214 26.5942ZM278.157 337.071C278.157 345.089 271.807 351.576 263.976 351.576H123.976C116.126 351.576 109.776 345.089 109.776 337.071V53.3901C109.776 37.0552 116.126 36.2586 123.976 36.2586H152.024C153.653 36.2586 154.986 38.0094 154.986 40.1804V41.117C154.986 46.2031 157.93 46.2206 161.54 46.2206H226.375C230.022 46.2206 232.947 46.2206 232.947 41.117V40.1804C232.947 38.0094 234.261 36.2586 235.918 36.2586H263.957C271.789 36.2586 278.139 38.4296 278.139 53.3901L278.157 337.071Z" fill="#263238"/>
<path d="M278.214 53.644V337.325C278.214 345.343 271.864 351.83 264.033 351.83H123.986C116.136 351.83 109.786 345.343 109.786 337.325V53.644C109.786 37.3529 116.136 36.4775 123.986 36.4775H152.034C153.664 36.4775 154.996 38.2283 154.996 40.3993V41.336C154.996 46.422 157.94 46.4395 161.55 46.4395H226.376C230.023 46.4395 232.948 46.4395 232.948 41.336V40.4343C232.948 38.2633 234.263 36.5126 235.92 36.5126H263.959C271.818 36.4775 278.214 38.6835 278.214 53.644Z" fill="white"/>
<path d="M202.817 39.8652H185.127C184.838 39.8652 184.56 39.7564 184.355 39.5627C184.15 39.369 184.035 39.1062 184.035 38.8323C184.035 38.5583 184.15 38.2956 184.355 38.1019C184.56 37.9081 184.838 37.7993 185.127 37.7993H202.817C203.107 37.7993 203.385 37.9081 203.59 38.1019C203.795 38.2956 203.91 38.5583 203.91 38.8323C203.91 39.1062 203.795 39.369 203.59 39.5627C203.385 39.7564 203.107 39.8652 202.817 39.8652Z" fill="white"/>
<path d="M147.184 42.6047L146.916 42.8586L146.759 43.0074C146.065 42.3552 145.126 41.9892 144.148 41.9892C143.17 41.9892 142.231 42.3552 141.538 43.0074C141.484 42.9621 141.434 42.9123 141.39 42.8586C141.297 42.7798 141.214 42.6923 141.121 42.6047C141.241 42.5172 141.353 42.4122 141.464 42.3246C141.706 42.1331 141.974 41.9713 142.26 41.8431C142.59 41.6856 142.942 41.5735 143.306 41.5105L143.833 41.4492H144.296H144.648C144.965 41.4813 145.276 41.5519 145.574 41.6593C145.801 41.7377 146.021 41.8343 146.231 41.9482C146.448 42.0702 146.656 42.2077 146.851 42.3596L147.138 42.6047H147.184Z" fill="#A6A6A6"/>
<path d="M142.388 43.839C142.249 43.699 142.11 43.5677 141.962 43.4363C142.248 43.1645 142.587 42.9488 142.961 42.8016C143.335 42.6544 143.737 42.5786 144.142 42.5786C144.547 42.5786 144.948 42.6544 145.322 42.8016C145.697 42.9488 146.036 43.1645 146.322 43.4363L145.896 43.839C145.431 43.3991 144.8 43.1519 144.142 43.1519C143.484 43.1519 142.853 43.3991 142.388 43.839Z" fill="#A6A6A6"/>
<path d="M145.471 44.2416L145.045 44.6443C144.806 44.4208 144.483 44.2955 144.147 44.2955C143.811 44.2955 143.488 44.4208 143.249 44.6443C143.101 44.513 142.962 44.3729 142.823 44.2416C142.996 44.0749 143.202 43.9424 143.429 43.8519C143.656 43.7614 143.9 43.7148 144.147 43.7148C144.394 43.7148 144.638 43.7614 144.865 43.8519C145.092 43.9424 145.298 44.0749 145.471 44.2416Z" fill="#A6A6A6"/>
<path d="M144.527 45.0122C144.527 45.1074 144.487 45.1987 144.416 45.266C144.345 45.3333 144.248 45.3711 144.148 45.3711C144.097 45.3723 144.047 45.3639 143.999 45.3463C143.952 45.3288 143.909 45.3026 143.873 45.2691C143.837 45.2357 143.808 45.1957 143.789 45.1516C143.769 45.1075 143.759 45.0601 143.759 45.0122C143.759 44.9147 143.8 44.8212 143.873 44.7522C143.946 44.6833 144.044 44.6445 144.148 44.6445C144.198 44.6445 144.248 44.6541 144.295 44.6727C144.342 44.6912 144.384 44.7185 144.419 44.7527C144.455 44.787 144.482 44.8276 144.501 44.8722C144.519 44.9167 144.528 44.9643 144.527 45.0122Z" fill="#A6A6A6"/>
<path d="M120.755 43.402C120.755 43.1925 120.821 42.9877 120.944 42.8135C121.067 42.6393 121.242 42.5036 121.446 42.4234C121.651 42.3432 121.876 42.3223 122.093 42.3631C122.311 42.404 122.51 42.5049 122.667 42.653C122.824 42.8011 122.93 42.9899 122.974 43.1954C123.017 43.4008 122.995 43.6138 122.91 43.8073C122.825 44.0009 122.681 44.1663 122.497 44.2827C122.313 44.3991 122.096 44.4612 121.875 44.4612C121.578 44.4612 121.293 44.3496 121.083 44.151C120.873 43.9523 120.755 43.6829 120.755 43.402Z" fill="#A6A6A6"/>
<path d="M124.272 43.402C124.272 43.1925 124.338 42.9877 124.461 42.8135C124.584 42.6393 124.759 42.5036 124.964 42.4234C125.169 42.3432 125.394 42.3223 125.611 42.3631C125.828 42.404 126.028 42.5049 126.185 42.653C126.341 42.8011 126.448 42.9899 126.491 43.1954C126.534 43.4008 126.512 43.6138 126.427 43.8073C126.343 44.0009 126.199 44.1663 126.015 44.2827C125.831 44.3991 125.614 44.4612 125.393 44.4612C125.245 44.4612 125.1 44.4338 124.964 44.3806C124.828 44.3274 124.705 44.2493 124.601 44.151C124.497 44.0526 124.414 43.9359 124.358 43.8073C124.301 43.6788 124.272 43.5411 124.272 43.402Z" fill="#A6A6A6"/>
<path d="M127.791 43.402C127.791 43.1921 127.857 42.987 127.98 42.8126C128.104 42.6382 128.279 42.5025 128.485 42.4226C128.69 42.3426 128.916 42.3222 129.133 42.3638C129.351 42.4054 129.55 42.5071 129.706 42.6561C129.863 42.8051 129.969 42.9947 130.011 43.2007C130.053 43.4068 130.029 43.62 129.943 43.8134C129.857 44.0068 129.712 44.1716 129.527 44.287C129.341 44.4023 129.124 44.4629 128.902 44.4612C128.755 44.4612 128.61 44.4337 128.475 44.3804C128.339 44.3271 128.216 44.2489 128.113 44.1504C128.01 44.0519 127.928 43.9351 127.873 43.8067C127.818 43.6782 127.79 43.5407 127.791 43.402Z" fill="#A6A6A6"/>
<path d="M131.307 43.402C131.307 43.1921 131.373 42.987 131.496 42.8126C131.62 42.6382 131.795 42.5025 132 42.4226C132.205 42.3426 132.431 42.3222 132.649 42.3638C132.866 42.4054 133.066 42.5071 133.222 42.6561C133.378 42.8051 133.484 42.9947 133.526 43.2007C133.569 43.4068 133.545 43.62 133.459 43.8134C133.373 44.0068 133.228 44.1716 133.042 44.287C132.857 44.4023 132.639 44.4629 132.417 44.4612C132.271 44.4612 132.126 44.4337 131.99 44.3804C131.855 44.3271 131.732 44.2489 131.629 44.1504C131.525 44.0519 131.444 43.9351 131.389 43.8067C131.333 43.6782 131.305 43.5407 131.307 43.402Z" fill="#A6A6A6"/>
<path d="M134.815 43.402C134.815 43.1925 134.881 42.9877 135.004 42.8135C135.127 42.6393 135.302 42.5036 135.507 42.4234C135.712 42.3432 135.937 42.3223 136.154 42.3631C136.371 42.404 136.571 42.5049 136.728 42.653C136.884 42.8011 136.991 42.9899 137.034 43.1954C137.077 43.4008 137.055 43.6138 136.97 43.8073C136.886 44.0009 136.742 44.1663 136.558 44.2827C136.374 44.3991 136.157 44.4612 135.936 44.4612C135.638 44.4612 135.354 44.3496 135.143 44.151C134.933 43.9523 134.815 43.6829 134.815 43.402Z" fill="#A6A6A6"/>
<path d="M265.532 45.7125H256.441V41.7295H265.532V45.7125ZM256.904 45.2748H265.069V42.1672H256.923L256.904 45.2748Z" fill="#A6A6A6"/>
<path d="M263.061 42.4038H257.201V45.03H263.061V42.4038Z" fill="#A6A6A6"/>
<path d="M266.338 42.6577H265.532V44.7849H266.338V42.6577Z" fill="#A6A6A6"/>
<path d="M203.651 24.3271H184.313V67.3528H203.651V24.3271Z" fill="#9D915F"/>
<path d="M203.642 67.3438C203.642 67.3438 201.79 76.0977 193.978 76.0977C186.165 76.0977 184.313 67.3438 184.313 67.3438H203.642Z" fill="#9D915F"/>
<path opacity="0.1" d="M203.642 67.3438C203.642 67.3438 201.79 76.0977 193.978 76.0977C186.165 76.0977 184.313 67.3438 184.313 67.3438H203.642Z" fill="black"/>
<path d="M184.303 67.3528H164.966L166.938 24.3271H184.303V67.3528Z" fill="white"/>
<path d="M184.304 67.3529L164.967 67.4667H164.837C164.837 67.4667 166.688 24.3798 166.688 24.3185V24.1084H166.901H184.267H184.461C184.535 24.2747 184.341 45.6694 184.387 45.8444L184.267 67.3091L184.304 67.3529ZM184.304 67.3529L184.184 45.7919L184.119 24.3272L184.304 24.5023L166.938 24.5461L167.17 24.336C167.105 24.336 165.263 67.8606 164.967 67.2303L184.304 67.3441V67.3529Z" fill="#263238"/>
<path d="M184.313 67.3438C184.313 67.3438 182.461 76.0977 174.63 76.0977C166.799 76.0977 164.966 67.3438 164.966 67.3438H184.313Z" fill="#EBEBEB"/>
<path d="M164.966 67.3528H145.629L149.572 24.3271H166.938L164.966 67.3528Z" fill="#9D915F"/>
<path d="M164.966 67.3438C164.966 67.3438 163.115 76.0977 155.293 76.0977C147.471 76.0977 145.629 67.3438 145.629 67.3438H164.966Z" fill="#9D915F"/>
<path opacity="0.1" d="M164.966 67.3438C164.966 67.3438 163.115 76.0977 155.293 76.0977C147.471 76.0977 145.629 67.3438 145.629 67.3438H164.966Z" fill="black"/>
<path d="M145.62 67.3528H126.282L132.207 24.3271H149.572L145.62 67.3528Z" fill="white"/>
<path d="M145.619 67.3529L126.281 67.4667H126.143C126.143 67.4667 131.956 24.371 131.956 24.301V24.1084H132.16H149.525H149.729V24.301L147.692 45.897L145.6 67.3529H145.619ZM145.619 67.3529L147.47 45.7832L149.377 24.3097L149.562 24.5023L132.197 24.5461L132.419 24.3535C132.354 24.3535 126.541 67.8956 126.272 67.2478L145.61 67.3616L145.619 67.3529Z" fill="#263238"/>
<path d="M145.62 67.3438C145.62 67.3438 143.768 76.0977 135.946 76.0977C128.124 76.0977 126.282 67.3438 126.282 67.3438H145.62Z" fill="#EBEBEB"/>
<path d="M126.281 67.3528H106.943L114.839 24.3271H132.196L126.281 67.3528Z" fill="#9D915F"/>
<path d="M126.281 67.3438C126.281 67.3438 124.43 76.0977 116.617 76.0977C108.804 76.0977 106.935 67.3438 106.935 67.3438H126.281Z" fill="#9D915F"/>
<path opacity="0.1" d="M126.281 67.3438C126.281 67.3438 124.43 76.0977 116.617 76.0977C108.804 76.0977 106.935 67.3438 106.935 67.3438H126.281Z" fill="black"/>
<path d="M106.963 67.3528H87.5977L96.2343 29.7109C96.9471 26.6032 100.446 24.3359 104.565 24.3359H114.831L106.963 67.3528Z" fill="white"/>
<path d="M106.962 67.353L87.6247 67.4668H87.4766V67.3267C88.6892 61.978 94.5118 36.3202 95.5856 31.5668C95.7714 30.3357 96.1423 29.1359 96.6871 28.004C98.7329 24.5024 103.269 23.8809 107.101 24.126H114.83H115.062L115.016 24.3273L110.998 45.8795L106.962 67.353ZM106.962 67.353L110.795 45.7745L114.673 24.2923L114.858 24.5024H107.129C103.426 24.2923 99.1031 24.8526 97.1037 28.1966C96.5764 29.2892 96.2179 30.4478 96.0391 31.6369L94.3822 38.7801L87.745 67.3617L87.6247 67.2217L106.962 67.3355V67.353Z" fill="#263238"/>
<path d="M106.962 67.3438C106.962 67.3438 105.111 76.0977 97.2979 76.0977C89.4852 76.0977 87.6338 67.3438 87.6338 67.3438H106.962Z" fill="#EBEBEB"/>
<path d="M203.651 67.3528H222.989L221.017 24.3271H203.651V67.3528Z" fill="white"/>
<path d="M203.65 67.3526L222.987 67.2388L222.867 67.3526L220.821 24.3357L221.053 24.5458L203.687 24.502L203.872 24.3269L203.807 45.7916L203.687 67.3526H203.65ZM203.65 67.3526L203.53 45.8879L203.465 24.3269V24.1519H203.659H221.025H221.238V24.362C221.238 24.5195 223.089 67.3701 223.089 67.5102H222.96L203.622 67.3964L203.65 67.3526Z" fill="#263238"/>
<path d="M222.988 67.3438C222.988 67.3438 221.137 76.0977 213.324 76.0977C205.511 76.0977 203.642 67.3438 203.642 67.3438H222.988Z" fill="#EBEBEB"/>
<path d="M222.988 67.3528H242.326L238.382 24.3271H221.017L222.988 67.3528Z" fill="#9D915F"/>
<path d="M242.326 67.3438C242.326 67.3438 240.474 76.0977 232.662 76.0977C224.849 76.0977 222.988 67.3438 222.988 67.3438H242.326Z" fill="#9D915F"/>
<path opacity="0.1" d="M242.326 67.3438C242.326 67.3438 240.474 76.0977 232.662 76.0977C224.849 76.0977 222.988 67.3438 222.988 67.3438H242.326Z" fill="black"/>
<path d="M242.335 67.3528H261.673L255.749 24.3271H238.383L242.335 67.3528Z" fill="white"/>
<path d="M242.334 67.3526L261.672 67.2388C261.403 68.0266 255.618 24.1781 255.525 24.3444L255.747 24.537L238.409 24.502L238.594 24.3094C239.566 35.033 241.445 56.6202 242.362 67.3526H242.334ZM242.334 67.3526L240.261 45.8967L238.215 24.3444V24.1519H238.409H255.775H255.997C256.062 24.467 261.801 67.1775 261.857 67.5102H261.718L242.38 67.3964L242.334 67.3526Z" fill="#263238"/>
<path d="M261.672 67.3438C261.672 67.3438 259.82 76.0977 252.007 76.0977C244.195 76.0977 242.334 67.3438 242.334 67.3438H261.672Z" fill="#EBEBEB"/>
<path d="M261.672 67.3528H281.009L273.113 24.3271H255.757L261.672 67.3528Z" fill="#9D915F"/>
<path d="M280.99 67.3438C280.99 67.3438 279.139 76.0977 271.308 76.0977C263.476 76.0977 261.644 67.3438 261.644 67.3438H280.99Z" fill="#9D915F"/>
<path opacity="0.1" d="M280.99 67.3438C280.99 67.3438 279.139 76.0977 271.308 76.0977C263.476 76.0977 261.644 67.3438 261.644 67.3438H280.99Z" fill="black"/>
<path d="M280.991 67.3528H300.329L291.692 29.7109C290.979 26.6032 287.48 24.3359 283.361 24.3359H273.123L280.991 67.3528Z" fill="white"/>
<path d="M280.991 67.3526L300.329 67.2388L300.209 67.3789L293.571 38.7972L291.914 31.654C291.736 30.4649 291.377 29.3063 290.85 28.2137C288.85 24.8697 284.546 24.3094 280.825 24.5195H273.095L273.28 24.3094C275.261 35.0155 279.14 56.6115 280.991 67.3526ZM280.991 67.3526L276.928 45.9054L272.938 24.3532L272.892 24.1519H273.123H280.852C285.361 23.8105 290.85 25.0273 291.961 29.7982C293.349 35.9259 298.996 60.8046 300.477 67.3526V67.4927H300.329L280.991 67.3526Z" fill="#263238"/>
<path d="M300.347 67.3438C300.347 67.3438 298.495 76.0977 290.683 76.0977C282.87 76.0977 281.019 67.3438 281.019 67.3438H300.347Z" fill="#EBEBEB"/>
<path d="M238.976 151.618H148.99V236.715H238.976V151.618Z" fill="#9D915F"/>
<path d="M223.543 192.351H164.41V184.419H223.543V192.351Z" fill="white"/>
<path d="M220.247 190.669L218.294 220.091H169.668L167.705 190.669H220.247Z" fill="white"/>
<path d="M200.262 187.491C200.262 188.667 199.894 189.816 199.203 190.794C198.512 191.771 197.531 192.533 196.382 192.983C195.234 193.433 193.97 193.55 192.751 193.321C191.531 193.092 190.411 192.526 189.532 191.694C188.653 190.863 188.055 189.804 187.812 188.651C187.57 187.498 187.694 186.303 188.17 185.217C188.646 184.131 189.451 183.202 190.485 182.549C191.518 181.896 192.734 181.547 193.977 181.547C195.643 181.55 197.24 182.177 198.419 183.291C199.597 184.405 200.26 185.916 200.262 187.491Z" fill="white"/>
<path d="M185.702 197.034V213.964C185.704 214.163 185.665 214.361 185.586 214.545C185.507 214.73 185.39 214.898 185.242 215.04C185.094 215.182 184.918 215.294 184.723 215.371C184.529 215.448 184.32 215.487 184.11 215.487H183.851C183.677 215.486 183.505 215.452 183.345 215.388C183.185 215.324 183.039 215.231 182.917 215.114C182.795 214.997 182.699 214.858 182.633 214.706C182.568 214.554 182.535 214.391 182.536 214.226V197.034C182.539 196.705 182.678 196.39 182.924 196.157C183.17 195.925 183.503 195.793 183.851 195.791H184.369C184.543 195.788 184.716 195.819 184.878 195.88C185.039 195.942 185.186 196.033 185.31 196.148C185.435 196.264 185.533 196.402 185.6 196.554C185.667 196.706 185.702 196.869 185.702 197.034Z" fill="#9D915F"/>
<path d="M195.551 197.033V213.963C195.553 214.163 195.514 214.36 195.435 214.545C195.356 214.73 195.239 214.898 195.091 215.039C194.943 215.181 194.766 215.294 194.572 215.37C194.378 215.447 194.169 215.487 193.958 215.487H193.699C193.525 215.485 193.354 215.452 193.193 215.388C193.033 215.324 192.888 215.231 192.766 215.114C192.644 214.997 192.547 214.858 192.482 214.706C192.417 214.553 192.384 214.39 192.385 214.226V197.033C192.39 196.706 192.53 196.393 192.776 196.162C193.021 195.932 193.353 195.801 193.699 195.799H194.218C194.391 195.797 194.563 195.827 194.724 195.888C194.885 195.949 195.032 196.039 195.156 196.154C195.28 196.268 195.378 196.405 195.446 196.556C195.514 196.707 195.549 196.869 195.551 197.033Z" fill="#9D915F"/>
<path d="M205.399 197.034V213.964C205.402 214.163 205.362 214.361 205.283 214.545C205.204 214.73 205.088 214.898 204.94 215.04C204.791 215.182 204.615 215.294 204.421 215.371C204.226 215.448 204.018 215.487 203.807 215.487H203.548C203.374 215.486 203.202 215.452 203.042 215.388C202.882 215.324 202.737 215.231 202.615 215.114C202.493 214.997 202.396 214.858 202.331 214.706C202.265 214.554 202.232 214.391 202.233 214.226V197.034C202.236 196.705 202.375 196.39 202.621 196.157C202.867 195.925 203.2 195.793 203.548 195.791H204.066C204.24 195.788 204.413 195.819 204.575 195.88C204.737 195.942 204.884 196.033 205.008 196.148C205.132 196.264 205.23 196.402 205.297 196.554C205.365 196.706 205.399 196.869 205.399 197.034Z" fill="#9D915F"/>
<path d="M211.223 187.011H208.446V171.289H179.509V187.011H176.732V168.663H211.223V187.011Z" fill="white"/>
<path d="M249.845 160.997C255.311 155.314 254.871 146.517 248.862 141.347C242.852 136.178 233.549 136.594 228.083 142.277C222.617 147.96 223.057 156.758 229.067 161.927C235.076 167.096 244.379 166.68 249.845 160.997Z" fill="#455A64"/>
<path d="M242.02 150.174C242.503 150.619 242.886 151.152 243.146 151.74C243.407 152.328 243.541 152.959 243.538 153.597C243.542 154.561 243.241 155.505 242.676 156.308C242.111 157.112 241.306 157.738 240.363 158.107C239.421 158.477 238.384 158.573 237.383 158.384C236.383 158.195 235.464 157.729 234.744 157.046C234.62 156.946 234.52 156.824 234.448 156.686C234.377 156.547 234.337 156.397 234.33 156.243C234.323 156.09 234.35 155.937 234.41 155.793C234.469 155.65 234.559 155.52 234.673 155.412C234.788 155.303 234.926 155.218 235.077 155.162C235.229 155.106 235.391 155.081 235.553 155.087C235.715 155.093 235.875 155.131 236.021 155.199C236.167 155.266 236.296 155.361 236.401 155.479C236.66 155.724 236.968 155.918 237.306 156.05C237.644 156.182 238.007 156.25 238.373 156.249C238.742 156.252 239.109 156.186 239.45 156.053C239.792 155.921 240.102 155.726 240.363 155.479C240.628 155.233 240.838 154.941 240.981 154.617C241.124 154.294 241.197 153.947 241.196 153.597C241.198 153.25 241.125 152.907 240.982 152.588C240.838 152.269 240.628 151.981 240.363 151.741C240.106 151.493 239.799 151.295 239.461 151.16C239.123 151.025 238.759 150.954 238.392 150.953C238.231 150.961 238.07 150.934 237.922 150.873C237.774 150.812 237.643 150.72 237.54 150.603C237.323 150.392 237.201 150.109 237.201 149.815C237.201 149.521 237.323 149.238 237.54 149.027L239.651 146.996H236.29C235.998 146.972 235.725 146.844 235.527 146.639C235.329 146.434 235.219 146.167 235.219 145.889C235.219 145.611 235.329 145.343 235.527 145.138C235.725 144.933 235.998 144.806 236.29 144.781H242.409C242.563 144.779 242.716 144.806 242.859 144.859C243.002 144.913 243.132 144.993 243.243 145.095C243.353 145.197 243.44 145.318 243.501 145.452C243.561 145.586 243.593 145.73 243.594 145.876C243.589 146.059 243.538 146.239 243.446 146.401C243.391 146.502 243.323 146.596 243.242 146.681L240.623 149.228C241.148 149.456 241.622 149.777 242.02 150.174Z" fill="white"/>
<path d="M304.874 101.073C312.168 106.037 335.486 126.004 336.958 129.331C338.726 133.288 329.682 147.355 325.942 147.049C316.278 146.252 299.357 117.469 293.932 104.295C291.276 97.8517 292.673 92.7656 304.874 101.073Z" fill="#D3766A"/>
<path d="M324.637 99.2962C326.73 97.1252 343.29 108.785 342.957 113.092C341.744 128.937 336.607 142.392 333.552 145.176C332.578 146.021 331.407 146.637 330.133 146.973C328.86 147.309 327.521 147.356 326.225 147.109C324.929 146.862 323.713 146.329 322.676 145.554C321.639 144.778 320.811 143.782 320.259 142.646C316.593 135.397 316.528 107.691 324.637 99.2962Z" fill="#D3766A"/>
<path d="M318.472 133.69C316.621 124.936 319.019 112.558 319.009 112.541C319.009 112.365 319.25 112.304 319.259 112.4C319.324 114.151 318.065 127.125 318.722 133.62C318.722 133.646 318.482 133.751 318.472 133.69Z" fill="#263238"/>
<path d="M346.483 101.493C346.206 106.089 341.753 115.263 339.772 117.093C337.791 118.922 321.046 112.269 320.333 109.678C319.62 107.087 321.814 91.6975 325.128 88.2135C328.442 84.7294 346.77 96.731 346.483 101.493Z" fill="#D3766A"/>
<path d="M320.194 106.999C318.943 103.476 317.156 100.144 314.89 97.1075C312.048 93.6059 307.41 88.6512 309.335 87.128C313.334 84.0203 324.896 96.3284 324.896 96.3284C324.896 96.3284 329.08 102.526 325.405 105.958C324.721 106.567 323.873 106.986 322.954 107.17C322.035 107.354 321.08 107.295 320.194 106.999Z" fill="#D3766A"/>
<path d="M325.192 97.7118L329.524 95.1819L321.786 83.3203L316.306 86.5243L325.192 97.7118Z" fill="#9D915F"/>
<path d="M316.315 86.5243L319.694 90.7874L325.202 97.7118L329.525 95.1819L321.795 83.3203L316.315 86.5243Z" fill="#9D915F"/>
<path opacity="0.1" d="M316.315 86.5243L319.694 90.7874L324.739 87.8461L321.795 83.3203L316.315 86.5243Z" fill="black"/>
<path d="M316.693 90.3985L323.499 86.3853L320.276 81.4966L313.47 85.5099L316.693 90.3985Z" fill="#9D915F"/>
<path d="M308.011 84.5457L313.64 81.9546L308.465 74.0322L303.494 77.6214L308.011 84.5457Z" fill="#9D915F"/>
<path d="M310.167 70.8721L317.795 82.5673L327.338 78.3917L352.693 73.5245L334.364 45.4331L318.396 64.683L310.167 70.8721Z" fill="#9D915F"/>
<path d="M339.217 61.9955C344.299 69.7952 350.575 74.8638 353.223 73.3143C355.87 71.7649 353.898 64.2015 348.807 56.4017C343.716 48.6019 337.458 43.5421 334.801 45.0828C332.145 46.6235 334.135 54.2045 339.217 61.9955Z" fill="#9D915F"/>
<path opacity="0.2" d="M340.179 61.103C344.688 68.0274 350.103 72.6057 352.278 71.3451C354.454 70.0845 352.547 63.4666 348.029 56.5247C343.512 49.5828 338.097 45.022 335.931 46.2826C333.764 47.5431 335.662 54.1874 340.179 61.103Z" fill="black"/>
<path d="M340.817 60.7348C341.419 61.6539 342.03 62.5293 342.669 63.3609C343.321 63.4392 343.983 63.3413 344.579 63.0783C345.175 62.8154 345.679 62.3983 346.035 61.8753C346.39 61.3523 346.582 60.7448 346.587 60.1231C346.593 59.5014 346.412 58.891 346.066 58.3624L345.205 57.0406C344.861 56.5129 344.367 56.0877 343.779 55.8138C343.191 55.54 342.534 55.4287 341.882 55.4927C341.23 55.5567 340.61 55.7935 340.095 56.1757C339.579 56.558 339.187 57.0701 338.966 57.6534C339.521 58.6601 340.141 59.693 340.817 60.7348Z" fill="#9D915F"/>
<path d="M313.427 86.0166L324.304 81.0093L314.306 65.6812L304.688 72.623L313.427 86.0166Z" fill="#9D915F"/>
<path opacity="0.2" d="M313.427 86.0166L324.304 81.0093L314.306 65.6812L304.688 72.623L313.427 86.0166Z" fill="black"/>
<path opacity="0.2" d="M334.235 48.1729C334.079 49.4108 334.161 50.6652 334.476 51.8758C334.766 53.0902 335.156 54.2815 335.642 55.4386C335.874 56.0251 336.151 56.5854 336.41 57.1894C336.67 57.7934 336.984 58.3099 337.29 58.8614C337.595 59.4129 337.901 59.9644 338.216 60.4984C338.53 61.0324 338.873 61.5751 339.215 62.1004C340.594 64.2222 342.171 66.2232 343.927 68.0793C344.814 69.0003 345.787 69.844 346.834 70.6005C347.865 71.3825 349.061 71.9466 350.342 72.255C349.096 71.8937 347.941 71.2982 346.945 70.5042C345.943 69.7225 345.014 68.8615 344.168 67.9305C342.448 66.0656 340.9 64.0654 339.539 61.9516C338.137 59.8635 336.917 57.6706 335.892 55.3949C335.378 54.2609 334.96 53.09 334.642 51.8933C334.274 50.6859 334.136 49.426 334.235 48.1729Z" fill="black"/>
<path d="M344.779 41.1699C344.326 41.914 343.909 42.6756 343.502 43.4459C343.095 44.2163 342.706 44.9866 342.326 45.7657C341.947 46.5448 341.577 47.3327 341.234 48.1206L340.716 49.3198C340.558 49.7225 340.382 50.1165 340.234 50.5279C340.466 50.1515 340.679 49.7751 340.901 49.3986L341.521 48.2519C341.928 47.4815 342.317 46.7112 342.697 45.9321C343.076 45.153 343.446 44.3651 343.789 43.5685C344.131 42.7719 344.483 41.984 344.779 41.1699Z" fill="#263238"/>
<path d="M349.891 66.2414C350.909 66.1276 351.918 65.9613 352.927 65.795C353.936 65.6286 354.936 65.4361 355.935 65.2435C356.935 65.0509 357.944 64.8408 358.935 64.6044L360.425 64.2543C360.916 64.123 361.415 64.0092 361.906 63.8604L360.379 64.0704L358.87 64.3156C357.861 64.4731 356.861 64.6657 355.852 64.8671C354.843 65.0684 353.853 65.2697 352.862 65.5061C351.872 65.7425 350.872 66.0051 349.891 66.2414Z" fill="#263238"/>
<path d="M366.088 56.5596C364.644 56.9798 363.219 57.435 361.803 57.9077C360.386 58.3804 358.97 58.8619 357.554 59.3521C356.137 59.8423 354.777 60.35 353.342 60.884L351.25 61.6806C350.556 61.952 349.852 62.2234 349.167 62.5123C349.889 62.3022 350.602 62.0746 351.315 61.8557L353.453 61.1641C354.878 60.7002 356.285 60.21 357.702 59.7197C359.118 59.2295 360.479 58.713 361.914 58.1878C363.348 57.6626 364.709 57.1286 366.088 56.5596Z" fill="#263238"/>
<path d="M352.704 38.4995C351.779 39.6725 350.964 40.8718 350.112 42.0711C349.261 43.2704 348.437 44.4872 347.622 45.704C346.808 46.9208 345.993 48.1376 345.206 49.3807L344.021 51.2365C343.642 51.858 343.253 52.4796 342.883 53.1099C343.327 52.5233 343.753 51.9281 344.197 51.3591L345.475 49.6083C346.317 48.409 347.141 47.1922 347.965 45.9754C348.789 44.7586 349.594 43.5418 350.381 42.2987C351.168 41.0557 351.955 39.7601 352.704 38.4995Z" fill="#263238"/>
<path d="M346.465 57.6183C348.001 56.8042 349.51 55.9463 351.019 55.0797C352.528 54.213 354.009 53.3289 355.509 52.4535C357.008 51.5781 358.48 50.7027 359.952 49.7398L362.164 48.3654C362.886 47.8927 363.618 47.4287 364.34 46.9473C363.571 47.3587 362.812 47.8227 362.053 48.1991L359.785 49.4947C358.277 50.3701 356.795 51.2455 355.296 52.1209C353.796 52.9962 352.324 53.8716 350.853 54.8258C349.381 55.78 347.909 56.6641 346.465 57.6183Z" fill="#263238"/>
<path d="M321.139 94.5431C322.342 96.7053 324.341 94.1229 324.341 94.1229C324.341 94.1229 322.407 98.4999 324.564 100.251C326.72 102.001 328.933 98.7537 329.099 98.4999C328.998 98.7275 327.341 102.781 329.692 104.348C332.043 105.914 333.867 102.395 333.978 102.159C333.978 102.413 333.728 105.661 335.829 106.483C339.393 107.858 340.217 99.5241 342.707 97.7295C342.707 97.7295 346.41 101.362 346.512 101.45C346.613 101.537 347.437 93.5714 344.734 90.4988C344.345 90.0516 343.807 89.7436 343.207 89.6258C342.608 89.508 341.984 89.5874 341.439 89.851C341.439 89.851 342.041 87.3386 340.226 86.043C339.3 85.3865 337.357 86.2093 337.357 86.2093C337.461 85.6327 337.396 85.0398 337.167 84.4961C336.939 83.9524 336.556 83.4789 336.061 83.1279C334.718 82.2525 332.978 83.2417 332.978 83.2417C332.978 83.2417 332.404 81.1145 330.729 80.6768C327.341 79.8277 318.565 89.9298 321.139 94.5431Z" fill="#D3766A"/>
<path d="M332.654 83.3987C332.654 83.3987 332.654 83.3199 332.607 83.3462C328.702 86.0913 325.774 89.8958 324.211 94.2536C324.165 94.3937 324.387 94.525 324.471 94.3762C326.619 90.3601 329.376 86.662 332.654 83.3987Z" fill="#263238"/>
<path d="M337.347 86.191C337.347 86.191 337.347 86.0947 337.273 86.1297C333.014 89.2029 330.059 93.6152 328.941 98.5691C328.941 98.7442 329.062 98.928 329.117 98.7354C330.052 95.4002 334.227 89.2111 337.347 86.191Z" fill="#263238"/>
<path d="M334.033 102.579C335.19 97.7379 337.866 93.7373 341.244 89.9994C341.244 89.9994 341.244 89.9031 341.161 89.9293C338.986 91.33 337.097 93.9299 335.801 96.0571C334.566 98.0188 333.896 100.252 333.857 102.535C333.857 102.631 334.006 102.675 334.033 102.579Z" fill="#263238"/>
<path d="M324.258 94.1489C324.202 94.3153 324.517 94.2102 324.47 94.3765C324.267 95.0943 323.406 99.4713 324.896 100.207C326.09 100.802 327.757 99.6902 328.219 99.0249L329.386 97.3616L328.904 99.3137C328.683 100.172 328.611 101.059 328.692 101.94C328.706 102.352 328.811 102.756 329.001 103.127C329.191 103.498 329.461 103.827 329.793 104.093C330.11 104.333 330.503 104.463 330.909 104.463C331.314 104.463 331.707 104.333 332.024 104.093C332.718 103.543 333.253 102.835 333.579 102.036L334.57 99.8653L334.394 102.211C334.343 102.867 334.38 103.526 334.505 104.172C334.602 104.788 334.889 105.363 335.329 105.827C335.536 106.027 335.799 106.168 336.087 106.234C336.374 106.301 336.676 106.29 336.958 106.203C337.558 105.923 338.059 105.486 338.402 104.943C339.169 103.78 339.837 102.563 340.401 101.301C340.716 100.671 341.022 100.04 341.327 99.4276C341.633 98.7875 342.082 98.2172 342.642 97.7555C342.147 98.2633 341.763 98.8582 341.512 99.5063C341.225 100.145 340.966 100.793 340.707 101.441C340.22 102.766 339.6 104.044 338.856 105.258C338.471 105.927 337.885 106.473 337.171 106.825C336.762 106.978 336.314 107.015 335.884 106.931C335.453 106.847 335.057 106.646 334.746 106.352C334.183 105.791 333.809 105.084 333.672 104.321C333.517 103.607 333.464 102.877 333.514 102.15L334.32 102.316C333.944 103.275 333.305 104.121 332.468 104.767C332.002 105.114 331.423 105.3 330.83 105.293C330.246 105.26 329.686 105.065 329.219 104.732C328.797 104.397 328.454 103.982 328.213 103.512C327.972 103.043 327.839 102.531 327.821 102.01C327.746 101.033 327.84 100.052 328.099 99.1036L328.784 99.3925C328.164 100.215 326.442 101.642 324.47 100.951C322.119 99.6989 323.869 94.9893 324.258 94.1489Z" fill="#263238"/>
<path d="M324.34 94.1221C323.951 94.4744 323.508 94.7694 323.026 94.9975C322.834 95.0839 322.621 95.122 322.409 95.1082C322.196 95.0944 321.991 95.0292 321.813 94.9187C321.467 94.6176 321.22 94.2286 321.101 93.7982C320.943 93.3255 320.804 92.8265 320.684 92.3101C320.518 92.8286 320.47 93.3748 320.545 93.912C320.597 94.5163 320.9 95.0765 321.388 95.4702C321.665 95.6552 321.997 95.7545 322.336 95.7545C322.676 95.7545 323.007 95.6552 323.285 95.4702C323.783 95.142 324.154 94.6685 324.34 94.1221Z" fill="#263238"/>
<path d="M282.185 351.129C280.333 350.053 243.065 307.36 242.741 304.847C242.695 304.506 248.37 299.674 255.571 293.607C255.942 293.292 282.916 268.606 282.916 268.606L306.058 295.034L280.75 319.458C280.75 319.458 287.285 341.841 287.341 344.608C287.396 347.374 284.018 352.215 282.185 351.129Z" fill="#D3766A"/>
<path d="M283.444 328.308C283.379 328.168 283.361 328.089 283.389 328.054C283.413 328.138 283.431 328.222 283.444 328.308Z" fill="#9D915F"/>
<path d="M287.35 344.617C287.397 347.365 284.009 352.224 282.185 351.138C280.361 350.053 243.066 307.369 242.742 304.856C242.686 304.515 248.361 299.683 255.572 293.616L261.366 288.364L285.221 315.195L280.759 319.502C280.759 319.502 287.295 341.842 287.35 344.617Z" fill="#EBEBEB"/>
<path d="M283.63 350.683C281.779 349.589 244.205 306.327 243.881 303.814C243.742 302.869 250.092 297.319 257.961 290.832L258.211 290.631L282.778 318.293L282.269 318.67C282.269 318.67 288.814 341.316 288.869 344.109C288.925 346.901 285.472 351.786 283.63 350.683Z" fill="#9D915F"/>
<path d="M284.972 348.819C278.835 341.378 253.305 311.912 246.64 304.997C246.584 304.944 246.538 304.997 246.593 305.04C252.509 312.543 278.28 341.807 284.852 348.915C284.991 349.064 285.102 348.994 284.972 348.819Z" fill="white"/>
<path d="M284.221 321.086C282.296 317.768 278.778 314.625 274.715 314.083C274.557 314.083 274.529 314.275 274.641 314.345C277.956 316.365 281.034 318.712 283.823 321.348C283.865 321.383 283.918 321.404 283.974 321.407C284.03 321.41 284.085 321.395 284.131 321.364C284.177 321.334 284.211 321.29 284.227 321.24C284.243 321.189 284.241 321.135 284.221 321.086Z" fill="white"/>
<path d="M284.694 324.176C282.769 320.868 279.26 317.725 275.187 317.173C275.03 317.173 275.002 317.366 275.113 317.436C278.433 319.452 281.515 321.8 284.305 324.439C284.348 324.47 284.399 324.487 284.453 324.488C284.506 324.488 284.559 324.473 284.602 324.444C284.646 324.414 284.678 324.372 284.695 324.324C284.711 324.276 284.711 324.224 284.694 324.176Z" fill="white"/>
<path d="M285.175 327.275C283.25 323.966 279.732 320.815 275.669 320.272C275.511 320.272 275.484 320.465 275.595 320.526C278.913 322.545 281.994 324.893 284.787 327.529C284.829 327.558 284.879 327.574 284.931 327.575C284.983 327.576 285.034 327.561 285.077 327.533C285.119 327.505 285.152 327.465 285.17 327.419C285.187 327.373 285.189 327.322 285.175 327.275Z" fill="white"/>
<path d="M285.841 350.07C286.193 351.095 283.296 353.064 282.592 352.697C281.889 352.329 241.186 304.935 240.64 303.981C240.094 303.027 243.417 300.969 244.399 301.775C245.38 302.58 285.841 350.07 285.841 350.07Z" fill="#263238"/>
<path d="M259.293 301.723C258.229 297.346 250.962 298.86 252.017 303.29C253.073 307.719 260.358 306.187 259.293 301.723Z" fill="white"/>
<path d="M301.459 241.933C299.385 251.562 261.923 284.871 261.923 284.871L291.443 317.103C291.443 317.103 346.697 265.577 343.559 244.253C340.828 225.694 311.456 151.093 311.456 151.093H277.567C277.567 151.093 303.486 232.444 301.459 241.933Z" fill="#37474F"/>
<path d="M301.459 241.933C299.385 251.562 261.923 284.871 261.923 284.871L291.443 317.103C291.443 317.103 346.697 265.577 343.559 244.253C340.828 225.694 311.456 151.093 311.456 151.093H277.567C277.567 151.093 303.486 232.444 301.459 241.933Z" fill="#37474F"/>
<path d="M294.803 309.435C290.878 304.821 292.072 306.091 288.101 301.512C286.148 299.271 273.346 284.573 271.143 282.779C271.096 282.779 271.013 282.779 271.041 282.858C272.522 285.221 285.592 299.718 287.592 301.924C291.656 306.423 290.545 305.093 294.664 309.548C294.738 309.601 294.877 309.522 294.803 309.435Z" fill="#263238"/>
<path d="M305.661 237.232C305.179 234.825 304.624 232.417 304.087 230.019C302.983 225.117 301.816 220.229 300.588 215.356C298.157 205.692 295.503 196.08 292.627 186.52C289.739 176.935 286.684 167.358 283.167 157.956C282.741 156.792 282.241 155.636 281.843 154.455C281.843 154.367 281.658 154.402 281.695 154.455C284.74 163.874 287.878 173.267 290.73 182.739C293.581 192.21 296.21 201.656 298.69 211.18C299.931 215.969 301.088 220.81 302.227 225.572C302.782 227.935 303.325 230.302 303.856 232.671C304.517 235.072 304.99 237.515 305.272 239.981C305.359 242.319 304.663 244.623 303.282 246.564C302.014 248.533 300.505 250.38 299.079 252.236C296.182 255.948 273.484 279.767 272.595 280.564C272.521 280.625 272.595 280.713 272.697 280.66C276.4 277.518 294.914 258.775 297.894 255.09C299.366 253.26 300.792 251.396 302.199 249.523C303.607 247.819 304.743 245.928 305.568 243.911C306.201 241.729 306.233 239.429 305.661 237.232Z" fill="#263238"/>
<path d="M305.596 151.084L299.44 227.436C293.571 201.305 277.575 151.084 277.575 151.084H305.596Z" fill="#263238"/>
<path d="M362.45 361.162C360.414 361.818 301.827 361.967 299.597 360.628C299.282 360.452 298.939 353.239 298.55 344.118C298.55 343.654 291.367 306.292 291.367 306.292L327.663 306.125L335.661 342.104C335.661 342.104 358.109 351.532 360.405 353.239C362.7 354.946 364.468 360.514 362.45 361.162Z" fill="#D3766A"/>
<path d="M362.451 361.162C360.405 361.818 301.828 361.967 299.597 360.628C299.283 360.453 298.931 353.239 298.542 344.118C298.542 343.986 297.996 341.08 297.209 336.931H334.505L335.653 342.104C335.653 342.104 358.1 351.532 360.396 353.239C362.692 354.946 364.469 360.514 362.451 361.162Z" fill="#EBEBEB"/>
<path d="M344.567 345.755C344.418 345.755 344.335 345.676 344.325 345.632L344.567 345.755Z" fill="#9D915F"/>
<path d="M362.72 360.917C360.646 361.564 301.44 361.311 299.2 359.945C298.329 359.437 297.867 351.279 297.607 341.404V341.115L335.801 340.87V341.483C335.801 341.483 358.416 351.174 360.72 352.916C363.025 354.658 364.784 360.269 362.72 360.917Z" fill="#9D915F"/>
<path d="M362.052 358.737C352.073 358.465 311.797 358.246 301.883 358.693C301.799 358.693 301.799 358.745 301.883 358.754C311.76 359.227 352.036 359.139 362.052 358.894C362.265 358.885 362.265 358.745 362.052 358.737Z" fill="white"/>
<path d="M338.994 341.588C335.069 340.879 330.265 341.43 327.247 344.065C327.136 344.161 327.247 344.319 327.413 344.284C331.172 343.154 335.048 342.408 338.975 342.06C339.042 342.063 339.106 342.04 339.155 341.997C339.203 341.955 339.232 341.895 339.234 341.833C339.237 341.77 339.213 341.709 339.168 341.663C339.123 341.617 339.06 341.59 338.994 341.588Z" fill="white"/>
<path d="M341.818 343.216C337.893 342.507 333.089 343.059 330.08 345.693C329.96 345.79 330.08 345.947 330.238 345.912C333.997 344.784 337.873 344.038 341.799 343.689C341.832 343.69 341.865 343.685 341.896 343.674C341.927 343.663 341.955 343.647 341.979 343.626C342.003 343.605 342.022 343.579 342.036 343.551C342.05 343.523 342.057 343.492 342.059 343.461C342.06 343.43 342.055 343.399 342.043 343.37C342.032 343.341 342.014 343.314 341.992 343.291C341.97 343.269 341.943 343.25 341.913 343.237C341.883 343.224 341.851 343.217 341.818 343.216Z" fill="white"/>
<path d="M344.65 344.844C340.725 344.135 335.912 344.687 332.903 347.322C332.783 347.418 332.903 347.576 333.07 347.541C336.829 346.411 340.705 345.665 344.632 345.317C344.698 345.32 344.762 345.297 344.811 345.254C344.86 345.211 344.888 345.152 344.891 345.09C344.893 345.027 344.869 344.966 344.824 344.92C344.779 344.874 344.716 344.847 344.65 344.844Z" fill="white"/>
<path d="M363.626 358.912C364.691 359.297 364.441 362.667 363.672 362.93C362.904 363.193 298.356 362.65 297.264 362.413C296.171 362.177 296.588 358.457 297.866 358.264C299.143 358.071 363.626 358.912 363.626 358.912Z" fill="#263238"/>
<path d="M307.345 347.409C303.068 345.36 299.69 351.646 303.985 353.703C308.28 355.76 311.64 349.457 307.345 347.409Z" fill="white"/>
<path d="M308.188 151.093C306.868 156.359 305.894 161.698 305.272 167.078C304.568 173.783 303.68 179.719 302.735 180.454C301.791 181.189 296.311 184.542 294.506 185.584C294.506 185.584 311.168 233.45 315.51 249.4C321.758 272.528 336.689 333.884 336.689 333.884H295.802C295.802 333.884 284.759 275.863 279.464 253.847C274.9 234.956 257.497 178.292 257.497 178.292C251.166 163.567 261.839 151.058 261.839 151.058C261.839 151.058 308.188 151.067 308.188 151.093Z" fill="#37474F"/>
<path d="M332.884 326.566C326.84 326.566 328.58 326.461 322.535 326.496C319.582 326.496 300.162 326.627 297.403 327.117C297.347 327.117 297.347 327.231 297.403 327.24C300.18 327.643 319.619 327.24 322.535 327.126C328.58 326.977 326.84 326.951 332.875 326.741C332.9 326.742 332.924 326.734 332.942 326.719C332.96 326.703 332.971 326.681 332.972 326.658C332.974 326.635 332.965 326.612 332.948 326.595C332.932 326.577 332.909 326.567 332.884 326.566Z" fill="#263238"/>
<path d="M305.559 178.563C301.686 180.593 298.007 182.936 294.561 185.566C294.547 185.575 294.534 185.587 294.525 185.601C294.515 185.614 294.508 185.63 294.505 185.646C294.501 185.662 294.501 185.679 294.504 185.695C294.508 185.712 294.515 185.727 294.524 185.741C294.534 185.755 294.547 185.767 294.561 185.776C294.576 185.785 294.592 185.791 294.609 185.795C294.626 185.798 294.644 185.798 294.661 185.795C294.679 185.791 294.695 185.785 294.71 185.776C298.412 183.57 302.254 181.399 305.818 179.018C305.882 178.985 305.929 178.93 305.95 178.865C305.971 178.799 305.963 178.728 305.929 178.668C305.894 178.607 305.836 178.562 305.767 178.543C305.697 178.523 305.622 178.53 305.559 178.563Z" fill="#263238"/>
<path d="M302.513 152.529C302.513 152.398 302.236 152.406 302.264 152.529C302.955 156.741 303.421 160.983 303.661 165.24C303.8 167.218 303.911 178.204 300.208 177.95C299.598 177.95 299.2 177.39 298.968 176.558C298.795 175.442 298.77 174.31 298.894 173.188C298.894 170.877 298.894 168.575 298.7 166.273C298.421 161.98 297.673 157.726 296.469 153.579C296.458 153.555 296.439 153.535 296.414 153.523C296.39 153.51 296.361 153.506 296.334 153.511C296.307 153.517 296.282 153.531 296.265 153.551C296.247 153.571 296.237 153.597 296.237 153.623C297.312 159.477 297.912 165.4 298.033 171.341C298.033 174.195 297.256 178.624 300.412 178.607C303.569 178.589 304.513 171.227 304.587 169.24C304.665 163.608 303.968 157.991 302.513 152.529Z" fill="#263238"/>
<path d="M300.357 178.239C300.157 179.011 300.011 179.795 299.922 180.585C299.802 181.208 299.802 181.845 299.922 182.468C299.932 182.492 299.95 182.514 299.973 182.529C299.996 182.544 300.023 182.552 300.051 182.552C300.08 182.552 300.107 182.544 300.13 182.529C300.153 182.514 300.171 182.492 300.181 182.468C300.459 181.863 300.64 181.223 300.718 180.568C300.875 179.841 301.051 179.115 301.181 178.379C301.2 178.276 301.176 178.17 301.113 178.083C301.049 177.997 300.952 177.938 300.843 177.92C300.734 177.901 300.621 177.924 300.53 177.984C300.439 178.044 300.377 178.136 300.357 178.239Z" fill="#263238"/>
<path d="M292.228 313.821C292.117 312.945 291.997 312.07 291.867 311.194C291.617 309.522 291.321 307.859 291.043 306.187C290.497 302.834 289.895 299.499 289.266 296.164C288.016 289.502 286.572 282.867 285.045 276.266C284.184 272.528 283.194 268.843 282.129 265.149C282.055 264.895 281.675 265.017 281.722 265.271C282.36 268.641 282.981 272.02 283.712 275.382C284.443 278.743 285.165 282.087 285.869 285.44C287.257 292.067 288.553 298.72 289.942 305.355C290.34 307.229 290.692 309.102 291.08 310.976C291.275 311.912 291.469 312.84 291.682 313.777C291.895 314.713 292.2 315.615 292.367 316.552C292.367 316.639 292.515 316.596 292.506 316.552C292.349 315.633 292.33 314.722 292.228 313.821Z" fill="#263238"/>
<path d="M319.713 263.739C318.38 257.48 316.593 251.308 314.797 245.163C311.169 232.793 306.91 220.608 302.652 208.396L298.95 197.891C298.329 196.141 295.33 186.678 294.96 185.776C294.914 185.688 294.775 185.723 294.802 185.776C295.663 188.997 296.839 193.698 297.839 196.894C298.838 200.089 299.894 203.179 300.93 206.321C302.967 212.493 305.04 218.656 307.012 224.845C310.919 237.1 314.806 249.295 317.972 261.725C318.898 265.227 319.75 268.676 320.555 272.177C321.36 275.679 322.064 279.181 322.832 282.682C322.832 282.705 322.842 282.728 322.859 282.744C322.877 282.761 322.9 282.77 322.925 282.77C322.949 282.77 322.973 282.761 322.99 282.744C323.008 282.728 323.017 282.705 323.017 282.682C322.379 276.336 321.036 270.006 319.713 263.739Z" fill="#263238"/>
<path d="M294.931 296.47C292.737 284.538 290.108 272.677 287.192 260.876C284.277 249.076 281.009 237.241 277.417 225.563C273.826 213.885 269.882 202.277 265.578 190.801C263.56 185.365 261.088 179.981 260.172 174.274C258.89 166.945 260.191 159.422 263.874 152.861C263.88 152.852 263.883 152.842 263.885 152.832C263.886 152.821 263.885 152.811 263.882 152.8C263.879 152.79 263.874 152.781 263.867 152.772C263.86 152.764 263.852 152.757 263.842 152.752C263.832 152.747 263.822 152.744 263.811 152.742C263.799 152.741 263.788 152.742 263.778 152.745C263.767 152.748 263.757 152.752 263.748 152.759C263.739 152.765 263.732 152.773 263.726 152.783C260.125 157.869 256.117 168.408 262.801 185.312C265.022 190.95 266.938 196.692 268.91 202.391C270.934 208.268 272.875 214.16 274.733 220.065C278.435 231.787 281.823 243.587 284.915 255.466C288.007 267.346 290.701 279.303 293.098 291.314C295.496 303.324 296.459 307.439 298.504 319.545C298.773 321.121 298.986 322.706 299.208 324.29C299.208 324.378 299.365 324.378 299.356 324.29C297.717 312.288 297.116 308.367 294.931 296.47Z" fill="#263238"/>
<path d="M313.048 152.231L310.41 135.686C310.41 135.686 315.603 129.935 312.307 123.116C310.613 119.64 300.125 100.907 293.951 96.6175C288.147 92.5907 280.862 96.3899 278.131 99.8477C270.272 109.801 264.561 119.351 260.016 151.96L313.048 152.231Z" fill="#9D915F"/>
<path d="M301.458 133.051C298.79 133.28 296.144 133.698 293.543 134.303C292.256 134.618 290.988 134.995 289.729 135.389C289.1 135.59 288.461 135.765 287.832 135.94C287.168 136.141 286.481 136.264 285.786 136.308C285.73 136.308 285.73 136.395 285.786 136.404C286.44 136.429 287.096 136.414 287.748 136.36C288.373 136.286 288.991 136.171 289.6 136.019C290.914 135.713 292.201 135.345 293.515 135.021C296.144 134.373 298.782 133.725 301.458 133.27C301.615 133.235 301.578 133.034 301.458 133.051Z" fill="#263238"/>
<path d="M308.058 135.266C305.86 135.05 303.65 134.957 301.44 134.986C300.338 134.986 299.237 135.073 298.135 135.178C297.617 135.231 297.089 135.283 296.562 135.353C296.034 135.423 295.423 135.563 294.849 135.633C294.837 135.633 294.825 135.638 294.816 135.646C294.808 135.654 294.803 135.666 294.803 135.677C294.803 135.689 294.808 135.7 294.816 135.708C294.825 135.716 294.837 135.721 294.849 135.721C295.395 135.677 295.951 135.721 296.497 135.721H298.144L301.449 135.633C303.652 135.555 305.855 135.502 308.058 135.493C308.074 135.493 308.09 135.49 308.105 135.485C308.119 135.479 308.132 135.471 308.144 135.46C308.155 135.449 308.164 135.437 308.17 135.423C308.176 135.409 308.179 135.394 308.179 135.38C308.179 135.365 308.176 135.35 308.17 135.336C308.164 135.322 308.155 135.31 308.144 135.299C308.132 135.289 308.119 135.28 308.105 135.274C308.09 135.269 308.074 135.266 308.058 135.266Z" fill="#263238"/>
<path d="M277.77 99.506C261.209 114.274 245.871 138.662 246.963 151.469C248.046 164.119 252.582 162.491 253.897 162.298C261.922 161.108 277.566 124.315 281.982 109.486C286.397 94.6563 281.861 95.8556 277.77 99.506Z" fill="#D3766A"/>
<path d="M282.518 85.167C279.639 85.0882 272.919 88.2134 271.244 92.1176C269.568 96.0219 270.892 101.616 272.225 101.948C273.558 102.281 278.705 100.915 281.954 98.3942C285.203 95.8731 283.935 85.2108 282.518 85.167Z" fill="#263238"/>
<path d="M282.529 85.1846C282.612 85.1846 282.594 85.0008 282.529 85.0183C280.104 85.3859 277.669 86.6202 275.494 87.6444C273.674 88.3967 272.041 89.4999 270.699 90.8834C270.088 91.5754 269.643 92.3848 269.395 93.2554C269.147 94.126 269.103 95.0371 269.264 95.9257C269.547 98.0978 270.414 100.165 271.782 101.931C271.828 101.975 271.93 101.931 271.893 101.878C270.041 98.2717 268.116 93.7985 271.597 90.4982C274.512 87.7057 278.798 86.6728 282.529 85.1846Z" fill="#263238"/>
<path d="M272.428 100.889C270.077 101.615 264.671 107.078 264.495 111.604C264.319 116.129 269.308 121.872 270.586 122.108C271.863 122.345 276.362 117.25 277.482 113.88C278.241 111.639 276.843 109.424 275.844 107.148C274.372 103.813 272.789 100.775 272.428 100.889Z" fill="#263238"/>
<path d="M278.825 113.101C278.659 108.549 275.123 104.645 272.744 100.942H272.67C274.317 104.61 277.437 107.621 278.307 111.613C278.617 112.773 278.626 113.987 278.335 115.151C278.043 116.315 277.459 117.396 276.632 118.301C275.095 119.885 272.929 120.866 271.013 121.934C270.883 122.004 271.013 122.179 271.142 122.109C275.03 120.122 278.992 117.793 278.825 113.101Z" fill="#263238"/>
<path d="M271.984 101.388C272.095 101.309 271.984 101.143 271.873 101.222C268.744 103.367 265.069 106.352 263.884 109.976C262.607 113.889 265.347 117.259 267.763 120.148C267.763 120.148 267.856 120.148 267.828 120.148C265.43 117.198 262.774 113.477 264.338 109.643C265.689 106.238 269.05 103.472 271.984 101.388Z" fill="#263238"/>
<path d="M271.346 121.111C269.078 124.236 266.459 128.709 268.301 131.72C270.143 134.732 275.826 138.26 276.206 138.137C276.586 138.014 281.445 132.526 281.344 128.28C281.242 124.034 271.642 120.699 271.346 121.111Z" fill="#263238"/>
<path d="M276.585 138.303C273.271 137.025 269.254 135.108 267.884 131.729C266.514 128.35 269.134 124.236 271.013 121.618H270.967C268.8 124.148 266.338 128.315 267.532 131.668C268.726 135.02 273.086 137.647 276.548 138.47C276.622 138.443 276.65 138.329 276.585 138.303Z" fill="#263238"/>
<path d="M276.048 137.831C275.415 139.049 275.053 140.376 274.985 141.731C274.916 143.086 275.143 144.441 275.65 145.71C277.724 150.743 275.326 150.866 270.809 155.05C266.977 158.552 268.958 163.857 272.846 164.854C272.846 164.854 269.633 162.71 271.753 159.602C274.28 155.873 284.759 154.831 285.842 147.714C287.258 138.479 276.048 137.831 276.048 137.831Z" fill="#263238"/>
<path d="M275.437 141.017C275.437 140.921 275.279 140.886 275.261 141.017C275.01 141.934 274.938 142.886 275.048 143.827C275.205 145.044 275.844 146.112 276.085 147.329C276.696 150.375 273.437 152.091 271.206 153.553C268.226 155.505 266.847 158.717 268.605 161.93C268.605 161.974 268.707 161.93 268.679 161.93C268.149 160.934 267.916 159.82 268.005 158.707C268.095 157.595 268.504 156.527 269.188 155.619C270.559 153.868 272.891 153.097 274.474 151.609C275.585 150.585 276.548 149.342 276.4 147.81C276.245 146.982 275.997 146.172 275.659 145.394C275.186 143.978 275.109 142.47 275.437 141.017Z" fill="#263238"/>
<path d="M277.216 137.927C277.17 137.927 277.16 137.988 277.216 137.997C279.993 138.653 282.927 139.257 284.945 141.385C287.121 143.669 287.334 147.066 286.167 149.841C284.853 152.949 281.733 153.561 278.762 154.577C276.54 155.18 274.53 156.335 272.939 157.921C272.893 157.973 272.986 158.043 273.041 158C275.698 155.592 279.067 154.874 282.381 153.623C283.635 153.192 284.735 152.435 285.554 151.439C286.372 150.443 286.877 149.249 287.01 147.994C287.926 142.032 282.9 138.662 277.216 137.927Z" fill="#263238"/>
<path d="M278.695 81.3855C278.473 81.2867 278.221 81.2699 277.987 81.3382C277.753 81.4064 277.554 81.5549 277.43 81.7545C277.306 81.9541 277.266 82.1903 277.316 82.4168C277.367 82.6433 277.505 82.8437 277.704 82.9787C277.925 83.0774 278.178 83.0942 278.412 83.026C278.646 82.9577 278.844 82.8092 278.968 82.6096C279.092 82.41 279.133 82.1738 279.082 81.9473C279.032 81.7208 278.893 81.5204 278.695 81.3855Z" fill="#9D915F"/>
<path d="M279.991 82.6024C279.769 82.4939 279.511 82.4697 279.27 82.535C279.03 82.6002 278.825 82.7499 278.697 82.9534C278.569 83.1569 278.529 83.3989 278.583 83.6298C278.638 83.8607 278.784 84.0631 278.991 84.1957C279.214 84.3042 279.471 84.3283 279.712 84.2631C279.952 84.1979 280.158 84.0482 280.285 83.8447C280.413 83.6412 280.454 83.3992 280.399 83.1683C280.344 82.9374 280.198 82.735 279.991 82.6024Z" fill="#9D915F"/>
<path d="M281.491 83.6003C281.27 83.5016 281.018 83.4847 280.784 83.553C280.55 83.6213 280.351 83.7698 280.227 83.9694C280.103 84.1689 280.062 84.4051 280.113 84.6316C280.164 84.8581 280.302 85.0585 280.501 85.1935C280.722 85.2922 280.975 85.3091 281.209 85.2408C281.443 85.1725 281.641 85.024 281.765 84.8245C281.889 84.6249 281.93 84.3887 281.879 84.1622C281.829 83.9357 281.69 83.7353 281.491 83.6003Z" fill="#9D915F"/>
<path d="M283.084 84.3793C282.861 84.2707 282.604 84.2466 282.363 84.3118C282.123 84.3771 281.917 84.5268 281.79 84.7303C281.662 84.9338 281.621 85.1757 281.676 85.4066C281.731 85.6375 281.877 85.84 282.084 85.9725C282.306 86.0811 282.564 86.1052 282.805 86.04C283.045 85.9747 283.25 85.825 283.378 85.6215C283.506 85.418 283.546 85.1761 283.492 84.9452C283.437 84.7143 283.291 84.5118 283.084 84.3793Z" fill="#9D915F"/>
<path d="M284.824 84.9045C284.603 84.8058 284.351 84.7889 284.117 84.8572C283.883 84.9255 283.684 85.074 283.56 85.2736C283.436 85.4731 283.395 85.7093 283.446 85.9358C283.497 86.1623 283.635 86.3627 283.834 86.4977C284.055 86.5964 284.308 86.6133 284.542 86.545C284.776 86.4767 284.974 86.3282 285.098 86.1287C285.222 85.9291 285.263 85.6929 285.212 85.4664C285.162 85.2399 285.023 85.0395 284.824 84.9045Z" fill="#9D915F"/>
<path d="M286.547 85.1146C286.324 85.0061 286.066 84.982 285.826 85.0472C285.585 85.1124 285.38 85.2621 285.253 85.4656C285.125 85.6691 285.084 85.9111 285.139 86.142C285.194 86.3729 285.34 86.5753 285.547 86.7079C285.769 86.8164 286.027 86.8405 286.268 86.7753C286.508 86.7101 286.713 86.5604 286.841 86.3569C286.969 86.1534 287.009 85.9114 286.955 85.6805C286.9 85.4496 286.754 85.2472 286.547 85.1146Z" fill="#9D915F"/>
<path d="M283.62 97.7556C283.888 98.6835 289.294 104.759 293.561 103.008C295.144 102.369 294.552 97.4667 294.552 97.4667L296.246 88.9053L284.693 82.4712C284.693 82.4712 283.509 97.3354 283.62 97.7556Z" fill="#D3766A"/>
<path d="M284.296 88.0212C285.281 90.1022 286.708 91.9695 288.488 93.5071C290.269 95.0446 292.364 96.2196 294.645 96.959L296.246 88.8703L284.694 82.4712C284.694 82.4712 284.527 84.9836 284.296 88.0212Z" fill="#263238"/>
<path d="M304.596 75.1967C307.318 89.203 298.736 92.3632 295.534 92.9147C292.627 93.4137 282.657 94.7705 278.418 81.0794C274.178 67.3882 280.223 61.7419 286.804 60.2625C293.386 58.7831 301.875 61.1554 304.596 75.1967Z" fill="#D3766A"/>
<path d="M300.3 74.0588C299.948 74.0588 299.624 73.9887 299.272 73.9537C298.901 73.9645 298.537 73.86 298.235 73.6561C298.151 73.5749 298.099 73.4691 298.088 73.3561C298.076 73.2431 298.105 73.1297 298.171 73.0346C298.324 72.8647 298.522 72.7368 298.745 72.6644C298.968 72.5921 299.208 72.5778 299.439 72.6231C299.927 72.6401 300.389 72.8309 300.735 73.1571C300.808 73.2357 300.856 73.3327 300.872 73.4364C300.888 73.5401 300.872 73.646 300.826 73.7413C300.78 73.8367 300.706 73.9174 300.613 73.9737C300.519 74.0301 300.411 74.0596 300.3 74.0588Z" fill="#263238"/>
<path d="M290.137 75.1525C290.472 75.0705 290.803 74.9711 291.127 74.8548C291.483 74.7888 291.807 74.617 292.053 74.3646C292.116 74.2703 292.144 74.1587 292.132 74.0476C292.12 73.9365 292.07 73.8324 291.988 73.7518C291.801 73.6127 291.578 73.5231 291.342 73.4924C291.106 73.4616 290.866 73.4907 290.646 73.5768C290.176 73.692 289.768 73.9661 289.498 74.3471C289.439 74.4397 289.41 74.5469 289.416 74.655C289.421 74.7631 289.461 74.8671 289.53 74.9536C289.598 75.0402 289.693 75.1054 289.801 75.1408C289.909 75.1762 290.026 75.1803 290.137 75.1525Z" fill="#263238"/>
<path d="M292.664 78.5405C292.664 78.5405 292.59 78.593 292.59 78.6281C292.757 79.591 292.766 80.7203 291.887 81.1492C291.887 81.1492 291.887 81.2105 291.887 81.2017C293.025 80.9216 293.025 79.4247 292.664 78.5405Z" fill="#263238"/>
<path d="M291.619 77.6211C289.962 77.6911 290.239 80.8163 291.776 80.755C293.313 80.6937 293.026 77.6211 291.619 77.6211Z" fill="#263238"/>
<path d="M290.988 77.8573C290.711 78.0499 290.461 78.3913 290.109 78.4526C289.757 78.5139 289.378 78.2163 289.091 77.9186C289.091 77.9186 289.026 77.9186 289.035 77.9186C289.081 78.5226 289.378 79.1092 290.063 79.1529C290.748 79.1967 291.09 78.6189 291.192 77.9974C291.173 77.9274 291.09 77.7698 290.988 77.8573Z" fill="#263238"/>
<path d="M298.7 77.7876C298.7 77.7876 298.783 77.7876 298.783 77.8664C298.783 78.8381 299.061 79.9411 300.015 80.1949V80.2562C298.867 80.1862 298.58 78.7155 298.7 77.7876Z" fill="#263238"/>
<path d="M299.505 76.7462C301.143 76.5098 301.523 79.6262 300.005 79.8451C298.487 80.0639 298.163 76.9038 299.505 76.7462Z" fill="#263238"/>
<path d="M300.245 76.8331C300.523 76.9732 300.819 77.2446 301.171 77.2271C301.522 77.2096 301.763 76.8506 301.948 76.5005H302.004C302.096 77.0958 302.004 77.7348 301.374 77.9186C300.745 78.1025 300.365 77.621 300.143 77.0432C300.06 76.9644 300.134 76.7456 300.245 76.8331Z" fill="#263238"/>
<path d="M293.617 86.6027C293.858 86.8303 294.108 87.1455 294.478 87.1805C294.859 87.1804 295.235 87.0997 295.579 86.9441C295.579 86.9441 295.644 86.9442 295.626 86.9967C295.476 87.1848 295.277 87.3318 295.047 87.4226C294.818 87.5134 294.567 87.5447 294.32 87.5132C294.11 87.4592 293.92 87.3472 293.777 87.1913C293.634 87.0354 293.542 86.8428 293.515 86.6378C293.514 86.6259 293.516 86.614 293.523 86.6038C293.529 86.5936 293.539 86.5858 293.551 86.5818C293.563 86.5777 293.576 86.5776 293.588 86.5814C293.6 86.5852 293.61 86.5927 293.617 86.6027Z" fill="#263238"/>
<path d="M297.729 82.6984C297.876 83.4016 297.984 84.1116 298.053 84.8256C298.053 84.8868 297.886 84.9306 297.645 84.9481C297.029 85.0825 296.386 85.0548 295.786 84.8681C295.185 84.6814 294.65 84.3427 294.239 83.8889C294.183 83.8276 294.239 83.7488 294.341 83.7926C295.296 84.3418 296.412 84.5873 297.525 84.4929C297.571 84.3003 296.942 82.0418 297.062 82.0243C297.625 82.0475 298.182 82.1417 298.719 82.3044C298.21 79.2843 297.201 76.3693 296.738 73.3579C296.738 73.2529 296.886 73.2091 296.923 73.3054C298.12 76.405 298.986 79.6104 299.506 82.8734C299.506 83.2499 298.025 82.8034 297.729 82.6984Z" fill="#263238"/>
<path d="M297.431 84.624C297.09 85.1958 296.599 85.675 296.005 86.0159C295.672 86.1874 295.29 86.2577 294.913 86.2173C294.089 86.1297 293.987 85.4469 293.987 84.8429C294.021 84.5205 294.096 84.2031 294.209 83.8975C295.173 84.4609 296.302 84.7157 297.431 84.624Z" fill="#263238"/>
<path d="M296.005 86.0078C295.672 86.1793 295.29 86.2495 294.913 86.2091C294.089 86.1216 293.987 85.4388 293.987 84.8348C294.416 84.7765 294.852 84.8618 295.221 85.0761C295.589 85.2904 295.867 85.6201 296.005 86.0078Z" fill="#FF9ABB"/>
<path d="M293.616 63.8868C293.96 65.1167 293.905 66.4158 293.459 67.616C291.876 70.8462 287.784 70.0233 286.405 71.3101C285.026 72.597 285.591 74.978 284.415 76.1773C282.795 77.8406 280.555 77.2103 280.296 78.3308C280.036 79.4513 280.24 81.8324 278.759 82.2613C277.278 82.6903 269.604 60.2101 289.571 59.8425C291.643 59.6893 293.728 59.9031 295.718 60.4727C301.411 61.9959 303.53 71.0738 303.53 71.0738C302.808 71.1092 302.091 70.9351 301.475 70.5748C300.55 69.7869 300.161 69.0604 299.467 68.5614C298.374 67.7648 297.782 68.0712 296.69 67.3008C295.45 66.3532 294.408 65.1955 293.616 63.8868Z" fill="#263238"/>
<path d="M293.312 62.8623C293.624 63.7802 293.823 64.7289 293.905 65.6898C294.04 66.6253 293.905 67.5779 293.516 68.4473C293.011 69.2381 292.223 69.8313 291.294 70.1193C290.369 70.4432 289.35 70.5483 288.351 70.9334C287.839 71.1318 287.392 71.455 287.055 71.8701C286.769 72.3052 286.58 72.7907 286.499 73.297C286.396 74.23 286.029 75.1193 285.435 75.8707C285.11 76.2166 284.708 76.4907 284.259 76.6738C283.809 76.8568 283.323 76.9442 282.834 76.9299C281.852 76.9299 280.769 76.6848 279.807 77.105C280.797 76.7636 281.806 77.105 282.824 77.1575C283.356 77.1944 283.889 77.1201 284.387 76.9401C284.884 76.76 285.334 76.4786 285.703 76.1158C286.382 75.3403 286.807 74.394 286.925 73.3933C287.004 72.9425 287.177 72.511 287.434 72.124C287.723 71.7762 288.107 71.5098 288.545 71.3536C289.471 70.986 290.471 70.8634 291.442 70.4782C291.943 70.3028 292.411 70.0547 292.831 69.7429C293.268 69.4416 293.618 69.0412 293.849 68.5786C294.229 67.6417 294.328 66.6241 294.136 65.6373C293.972 64.6861 293.696 63.7554 293.312 62.8623Z" fill="#263238"/>
<path d="M293.691 63.7026C293.881 64.5864 294.192 65.4429 294.617 66.25C295.05 67.0949 295.736 67.801 296.589 68.281C297.022 68.4827 297.474 68.644 297.94 68.7624C298.354 68.8855 298.723 69.116 299.005 69.4277C299.248 69.8163 299.534 70.18 299.856 70.5132C300.212 70.8264 300.64 71.0571 301.106 71.1873C300.693 70.985 300.327 70.705 300.032 70.3644C299.755 70.0071 299.513 69.6262 299.31 69.2264C299.012 68.8226 298.588 68.5167 298.098 68.351C297.66 68.2271 297.236 68.066 296.829 67.8695C296.057 67.4268 295.419 66.8025 294.978 66.0575C294.495 65.3001 294.065 64.5134 293.691 63.7026Z" fill="#263238"/>
<path d="M281.426 81.1228C281.426 81.1228 277.482 77.1661 275.539 78.5667C273.595 79.9673 277.047 86.0075 279.667 86.5328C279.998 86.6222 280.344 86.6475 280.686 86.6072C281.027 86.567 281.356 86.462 281.653 86.2985C281.951 86.135 282.21 85.9164 282.416 85.6558C282.622 85.3952 282.77 85.098 282.851 84.782L281.426 81.1228Z" fill="#D3766A"/>
<path d="M276.574 80.3004C276.528 80.3004 276.574 80.3529 276.574 80.3617C278.426 80.7906 279.583 82.1825 280.471 83.6794C280.344 83.5288 280.183 83.406 280.001 83.3194C279.819 83.2329 279.619 83.1846 279.415 83.178C279.211 83.1713 279.008 83.2064 278.819 83.2809C278.631 83.3554 278.462 83.4674 278.324 83.6094C278.324 83.6094 278.324 83.7057 278.389 83.6882C278.68 83.5539 279.009 83.5088 279.329 83.5589C279.649 83.6091 279.945 83.7522 280.175 83.9683C280.565 84.3267 280.91 84.7261 281.203 85.1589C281.305 85.2902 281.573 85.1589 281.49 85.01C281.175 82.8741 278.99 80.1779 276.574 80.3004Z" fill="#263238"/>
<path d="M300.541 102.395L290.886 126.757C290.516 127.466 290.831 128.105 291.599 128.184L305.272 129.637C305.693 129.65 306.11 129.552 306.475 129.352C306.84 129.153 307.138 128.86 307.336 128.508L316.991 104.145C317.101 104.017 317.17 103.862 317.191 103.699C317.212 103.535 317.183 103.369 317.109 103.22C317.034 103.071 316.917 102.945 316.77 102.856C316.623 102.767 316.452 102.72 316.278 102.718L302.596 101.257C302.175 101.243 301.759 101.343 301.395 101.545C301.031 101.746 300.735 102.041 300.541 102.395Z" fill="#37474F"/>
<path d="M302.162 102.561L292.508 126.915C292.398 127.043 292.328 127.198 292.307 127.361C292.287 127.525 292.315 127.691 292.389 127.84C292.464 127.989 292.581 128.115 292.728 128.204C292.875 128.293 293.046 128.34 293.22 128.342L306.911 129.795C307.331 129.809 307.747 129.71 308.111 129.51C308.475 129.311 308.771 129.018 308.966 128.665L318.621 104.303C318.991 103.594 318.677 102.955 317.908 102.876L304.227 101.423C303.804 101.409 303.386 101.509 303.021 101.71C302.655 101.912 302.358 102.207 302.162 102.561Z" fill="#455A64"/>
<path d="M305.78 104.102C305.751 104.32 305.653 104.525 305.5 104.691C305.347 104.857 305.145 104.976 304.92 105.034C304.696 105.091 304.458 105.084 304.237 105.013C304.017 104.943 303.823 104.812 303.682 104.637C303.54 104.463 303.456 104.252 303.441 104.032C303.426 103.813 303.48 103.594 303.597 103.403C303.714 103.213 303.887 103.059 304.097 102.962C304.306 102.865 304.54 102.829 304.771 102.859C304.924 102.877 305.072 102.924 305.205 102.996C305.339 103.069 305.456 103.166 305.55 103.281C305.644 103.397 305.712 103.529 305.752 103.67C305.791 103.81 305.801 103.957 305.78 104.102Z" fill="#263238"/>
<path d="M252.035 162.43C258.079 162.701 265.105 157.667 283.147 142.689C285.637 140.623 274.908 120.034 272.122 122.118C268.614 124.744 255.598 135.642 254.756 136.553C247.665 144.239 247.934 162.246 252.035 162.43Z" fill="#D3766A"/>
<path d="M265.846 129.156C265.846 129.156 270.65 121.391 274.501 118.047C278.608 114.671 283.518 112.287 288.812 111.096C294.523 109.801 309.279 110.387 309.843 114.44C310.353 118.099 295.301 116.778 295.301 116.778C295.301 116.778 310.88 115.736 310.63 120.279C310.38 124.822 293.024 122.266 293.024 122.266C293.024 122.266 309.057 121.531 308.02 126.153C307.242 129.655 291.358 128.245 291.358 128.245C291.358 128.245 305.141 127.702 304.502 131.327C303.799 135.336 289.062 134.907 289.062 134.907C285.794 143.862 280.37 146.865 276.232 148.563C275.232 149.001 265.846 129.156 265.846 129.156Z" fill="#D3766A"/>
<path d="M289.888 116.813C291.739 116.629 293.59 116.428 295.396 116.393C297.201 116.358 299.098 116.393 300.903 116.524C303.299 116.656 305.671 117.041 307.976 117.671C303.801 116.795 297.228 116.839 295.386 116.874C293.544 116.909 291.684 116.874 289.888 116.874V116.813Z" fill="#263238"/>
<path d="M289.888 123.089C292.23 122.949 294.516 122.722 296.895 122.678C299.274 122.634 301.459 122.792 303.791 122.897C303.967 122.897 303.912 122.993 303.727 122.993C301.394 122.993 299.228 123.124 296.886 123.133C294.544 123.142 292.211 123.054 289.888 123.133V123.089Z" fill="#263238"/>
<path d="M288.861 128.473C292.448 128.172 296.059 128.222 299.636 128.622C299.811 128.622 299.719 128.744 299.534 128.744C295.951 128.622 293.147 128.508 288.879 128.587C288.814 128.587 288.787 128.482 288.861 128.473Z" fill="#263238"/>
<path d="M249.38 150.113C249.596 146.013 250.836 142.02 252.999 138.461C257.1 133.401 263.617 128.779 268.625 124.499C270.14 121.963 272.092 119.685 274.401 117.758C276.706 115.784 279.412 114.274 282.353 113.32C279.511 114.434 276.912 116.036 274.688 118.047C272.445 120.065 270.535 122.39 269.023 124.945C264.098 129.252 257.628 133.848 253.425 138.75C251.226 142.224 249.846 146.106 249.38 150.13V150.113Z" fill="#263238"/>
<path d="M227.005 53.1099C227.408 56.759 228.875 60.2306 231.243 63.137C233.611 66.0433 236.786 68.2701 240.415 69.5686C244.044 70.8671 247.982 71.1862 251.792 70.4904C255.601 69.7945 259.131 68.1111 261.987 65.628L272.456 67.1162L267.217 58.5548C268.53 55.5405 269.027 52.2636 268.661 49.0218C268.083 43.798 265.334 39.0053 261.019 35.6982C256.705 32.391 251.177 30.8402 245.653 31.387C240.129 31.9337 235.061 34.5332 231.564 38.6136C228.067 42.694 226.427 47.9211 227.005 53.1449V53.1099Z" fill="white"/>
<path d="M233.273 36.7493C236.753 33.5432 241.295 31.5686 246.135 31.1577C250.974 30.7469 255.816 31.925 259.844 34.4937C263.873 37.0624 266.843 40.8649 268.255 45.2616C269.667 49.6582 269.435 54.3806 267.597 58.6342V58.2928L272.809 66.8717L273.197 67.5107L272.438 67.3969L261.969 65.8737L262.219 65.8037C259.309 68.2967 255.722 69.9731 251.86 70.6446C250.904 70.8124 249.935 70.9061 248.963 70.9247C247.994 70.973 247.023 70.9554 246.056 70.8722C244.124 70.6979 242.227 70.2707 240.419 69.6029C238.612 68.957 236.91 68.0729 235.365 66.9767C234.589 66.441 233.853 65.8561 233.162 65.2259C232.482 64.5769 231.848 63.8868 231.264 63.16C228.125 59.2903 226.599 54.4654 226.974 49.6014C227.35 44.7374 229.601 40.1732 233.3 36.7756L233.273 36.7493ZM231.292 63.09C232.45 64.547 233.839 65.8257 235.411 66.8804C236.95 67.9679 238.65 68.8351 240.456 69.4541C242.257 70.0851 244.142 70.477 246.056 70.6184C247.009 70.6796 247.964 70.6796 248.917 70.6184C249.872 70.5777 250.822 70.4665 251.759 70.2857C255.517 69.5734 258.989 67.8815 261.784 65.401L261.885 65.3135H262.034L272.512 66.7053L272.142 67.2218L266.866 58.678L266.773 58.5204L266.847 58.3366C268.008 55.6011 268.511 52.6558 268.319 49.7139C268.112 46.7678 267.204 43.9039 265.662 41.3364C264.093 38.7788 261.955 36.5744 259.395 34.876C256.812 33.1891 253.854 32.0842 250.75 31.6458C246.648 31.0493 242.452 31.6325 238.705 33.3196C234.958 35.0067 231.834 37.7199 229.739 41.107C227.643 44.4941 226.672 48.3986 226.953 52.314C227.233 56.2293 228.751 59.9746 231.31 63.0637L231.292 63.09Z" fill="#263238"/>
<path d="M245.528 62.3279L236.576 53.7665L239.585 50.9653L244.806 55.9638L255.664 39.874L259.218 42.0187L245.528 62.3279Z" fill="#9D915F"/>
<path d="M176.537 361.739H76.7666L91.3183 265.63H161.994L176.537 361.739Z" fill="#37474F"/>
<path d="M161.986 265.63L150.905 361.739H176.537L161.986 265.63Z" fill="#455A64"/>
<path d="M111.222 272.256L108.103 271.635C108.103 271.547 109.954 263.476 111.861 255.326C113.953 246.52 123.117 242.467 130.773 243.631C136.502 244.506 142.853 248.735 141.881 257.769C140.853 267.398 140.029 271.994 140.029 272.186L136.882 271.705C136.882 271.705 137.678 267.03 138.687 257.471C139.418 250.529 134.799 247.308 130.226 246.607C124.034 245.662 116.619 248.91 114.934 255.983C113.046 264.08 111.241 272.178 111.222 272.256Z" fill="#263238"/>
<path d="M152.257 361.004C154.303 359.621 156.432 358.378 158.551 357.091C160.671 355.804 162.837 354.64 165.031 353.467L165.327 353.3L165.605 353.493C167.29 354.692 168.975 355.891 170.613 357.152C172.252 358.413 173.899 359.656 175.473 360.995C173.622 359.962 171.9 358.859 170.16 357.73C168.419 356.601 166.688 355.462 164.985 354.289H165.55C163.393 355.489 161.199 356.644 158.996 357.791C156.793 358.938 154.543 360.015 152.257 361.004Z" fill="white"/>
<path d="M165.281 353.896C164.846 347.768 164.522 341.64 164.216 335.513C163.911 329.385 163.689 323.257 163.43 317.129C163.17 311.002 163.022 304.874 162.883 298.746L162.708 289.467C162.708 286.403 162.624 283.339 162.634 280.258C162.865 283.322 163.022 286.386 163.226 289.449L163.707 298.65C164.013 304.778 164.226 310.905 164.485 317.033C164.744 323.161 164.892 329.289 165.022 335.416C165.151 341.544 165.281 347.751 165.281 353.896Z" fill="white"/>
<path d="M113.896 271.959C113.898 272.753 113.651 273.529 113.186 274.19C112.72 274.85 112.058 275.366 111.283 275.67C110.508 275.975 109.655 276.055 108.832 275.901C108.009 275.746 107.252 275.364 106.659 274.803C106.065 274.242 105.661 273.526 105.498 272.748C105.335 271.969 105.419 271.162 105.741 270.429C106.064 269.697 106.608 269.07 107.307 268.631C108.006 268.191 108.827 267.957 109.666 267.959C110.787 267.961 111.862 268.383 112.654 269.133C113.447 269.883 113.894 270.899 113.896 271.959Z" fill="#263238"/>
<path d="M142.399 271.959C142.401 272.753 142.154 273.529 141.689 274.19C141.223 274.85 140.561 275.366 139.786 275.67C139.011 275.975 138.158 276.055 137.335 275.901C136.511 275.746 135.755 275.364 135.162 274.803C134.568 274.242 134.164 273.526 134.001 272.748C133.838 271.969 133.922 271.162 134.244 270.429C134.566 269.697 135.111 269.07 135.81 268.631C136.509 268.191 137.329 267.957 138.169 267.959C139.29 267.961 140.365 268.383 141.157 269.133C141.95 269.883 142.397 270.899 142.399 271.959Z" fill="#263238"/>
<path d="M125.44 361.74H38.6572L51.3113 278.14H112.786L125.44 361.74Z" fill="#9D915F"/>
<path d="M112.785 278.14L103.14 361.74H125.439L112.785 278.14Z" fill="#9D915F"/>
<path opacity="0.1" d="M112.785 278.14L103.14 361.74H125.439L112.785 278.14Z" fill="black"/>
<path d="M68.6307 283.908L65.9092 283.365C65.9092 283.295 67.5014 276.265 69.1861 269.184C71.0375 261.515 78.9706 257.996 85.6262 259.011C90.6157 259.773 96.142 263.45 95.3089 271.267C94.3832 279.679 93.7352 283.645 93.7074 283.811L90.9304 283.391C90.9304 283.347 91.6154 279.329 92.5041 271.013C93.1428 264.973 89.1161 262.172 85.0986 261.559C79.7204 260.736 73.2684 263.563 71.8058 269.718C70.2136 276.826 68.6399 283.838 68.6307 283.908Z" fill="#263238"/>
<path d="M104.315 361.1C106.102 359.901 107.944 358.798 109.795 357.704C111.647 356.609 113.498 355.559 115.424 354.543L115.683 354.403L115.914 354.57C117.386 355.611 118.849 356.653 120.274 357.747C121.7 358.842 123.135 359.927 124.505 361.091C122.931 360.216 121.394 359.235 119.876 358.255C118.358 357.275 116.858 356.277 115.377 355.261H115.877C114.026 356.303 112.091 357.31 110.166 358.29C108.24 359.271 106.306 360.242 104.315 361.1Z" fill="white"/>
<path d="M115.647 354.911C115.267 349.58 114.98 344.249 114.721 338.918C114.462 333.586 114.267 328.247 114.036 322.907C113.804 317.567 113.684 312.236 113.564 306.896L113.406 298.886C113.406 296.216 113.332 293.546 113.342 290.876C113.545 293.502 113.684 296.207 113.86 298.868L114.277 306.869C114.545 312.209 114.73 317.541 114.962 322.88C115.193 328.22 115.313 333.551 115.424 338.891C115.535 344.231 115.647 349.571 115.647 354.911Z" fill="white"/>
<path d="M70.9533 283.637C70.9533 284.329 70.7362 285.006 70.3293 285.582C69.9224 286.158 69.3442 286.607 68.6676 286.872C67.991 287.137 67.2465 287.206 66.5282 287.071C65.81 286.936 65.1502 286.603 64.6324 286.113C64.1145 285.623 63.7619 284.999 63.619 284.32C63.4761 283.641 63.5495 282.937 63.8297 282.297C64.11 281.657 64.5845 281.11 65.1935 280.725C65.8024 280.341 66.5183 280.135 67.2506 280.135C68.2326 280.135 69.1744 280.504 69.8688 281.161C70.5632 281.818 70.9533 282.708 70.9533 283.637Z" fill="#263238"/>
<path d="M95.7424 283.637C95.7424 284.329 95.5252 285.006 95.1183 285.582C94.7115 286.158 94.1332 286.607 93.4566 286.872C92.78 287.137 92.0355 287.206 91.3173 287.071C90.599 286.936 89.9393 286.603 89.4214 286.113C88.9036 285.623 88.5509 284.999 88.4081 284.32C88.2652 283.641 88.3385 282.937 88.6188 282.297C88.899 281.657 89.3736 281.11 89.9825 280.725C90.5914 280.341 91.3073 280.135 92.0397 280.135C93.0217 280.135 93.9635 280.504 94.6579 281.161C95.3523 281.818 95.7424 282.708 95.7424 283.637Z" fill="#263238"/>
</svg>
