<svg width="107" height="23" viewBox="0 0 107 23" fill="none" xmlns="http://www.w3.org/2000/svg">
<path d="M5.31256 0.935999L9.48856 13.224L13.6166 0.935999H18.5366V18H14.7686V13.488L15.1526 5.52L10.7366 18H8.21656L3.77656 5.52L4.13656 13.488V18H0.416563V0.935999H5.31256ZM28.4726 18C28.3286 17.728 28.2086 17.336 28.1126 16.824C27.3126 17.768 26.2566 18.24 24.9446 18.24C24.1446 18.24 23.4166 18.08 22.7606 17.76C22.1046 17.424 21.5846 16.968 21.2006 16.392C20.8326 15.8 20.6486 15.152 20.6486 14.448C20.6486 13.088 21.1526 12.056 22.1606 11.352C23.1686 10.632 24.6326 10.272 26.5526 10.272H27.9686V9.528C27.9686 8.92 27.8166 8.456 27.5126 8.136C27.2246 7.816 26.7926 7.656 26.2166 7.656C25.6886 7.656 25.2726 7.784 24.9686 8.04C24.6806 8.296 24.5366 8.664 24.5366 9.144H20.9606C20.9606 8.376 21.1926 7.688 21.6566 7.08C22.1206 6.456 22.7686 5.968 23.6006 5.616C24.4326 5.264 25.3686 5.088 26.4086 5.088C27.9926 5.088 29.2406 5.48 30.1526 6.264C31.0646 7.032 31.5366 8.088 31.5686 9.432V15.096C31.5846 16.248 31.7526 17.152 32.0726 17.808V18H28.4726ZM24.2486 14.208C24.2486 14.64 24.3846 14.984 24.6566 15.24C24.9446 15.496 25.3206 15.624 25.7846 15.624C26.2806 15.624 26.7206 15.512 27.1046 15.288C27.5046 15.048 27.7926 14.752 27.9686 14.4V12.264H26.6966C25.0646 12.264 24.2486 12.912 24.2486 14.208ZM37.3089 5.328L37.4529 6.84C38.3329 5.672 39.5489 5.088 41.1009 5.088C43.7409 5.088 45.0689 6.656 45.0849 9.792V18H41.4849V9.936C41.4849 9.216 41.3329 8.696 41.0289 8.376C40.7409 8.056 40.2449 7.896 39.5409 7.896C38.6449 7.896 37.9809 8.272 37.5489 9.024V18H33.9489V5.328H37.3089ZM54.7694 18C54.6254 17.728 54.5054 17.336 54.4094 16.824C53.6094 17.768 52.5534 18.24 51.2414 18.24C50.4414 18.24 49.7134 18.08 49.0574 17.76C48.4014 17.424 47.8814 16.968 47.4974 16.392C47.1294 15.8 46.9454 15.152 46.9454 14.448C46.9454 13.088 47.4494 12.056 48.4574 11.352C49.4654 10.632 50.9294 10.272 52.8494 10.272H54.2654V9.528C54.2654 8.92 54.1134 8.456 53.8094 8.136C53.5214 7.816 53.0894 7.656 52.5134 7.656C51.9854 7.656 51.5694 7.784 51.2654 8.04C50.9774 8.296 50.8334 8.664 50.8334 9.144H47.2574C47.2574 8.376 47.4894 7.688 47.9534 7.08C48.4174 6.456 49.0654 5.968 49.8974 5.616C50.7294 5.264 51.6654 5.088 52.7054 5.088C54.2894 5.088 55.5374 5.48 56.4494 6.264C57.3614 7.032 57.8334 8.088 57.8654 9.432V15.096C57.8814 16.248 58.0494 17.152 58.3694 17.808V18H54.7694ZM50.5454 14.208C50.5454 14.64 50.6814 14.984 50.9534 15.24C51.2414 15.496 51.6174 15.624 52.0814 15.624C52.5774 15.624 53.0174 15.512 53.4014 15.288C53.8014 15.048 54.0894 14.752 54.2654 14.4V12.264H52.9934C51.3614 12.264 50.5454 12.912 50.5454 14.208ZM59.8378 11.544C59.8378 10.232 60.0538 9.088 60.4858 8.112C60.9178 7.136 61.5178 6.392 62.2858 5.88C63.0698 5.352 63.9738 5.088 64.9978 5.088C66.3578 5.088 67.4298 5.552 68.2138 6.48L68.3338 5.328H71.5978V17.544C71.5978 18.2 71.4218 18.944 71.0698 19.776C70.7338 20.608 70.1018 21.352 69.1738 22.008C68.2458 22.664 66.9738 22.992 65.3578 22.992C64.4298 22.992 63.5258 22.808 62.6458 22.44C61.7818 22.088 61.1178 21.624 60.6538 21.048L62.2138 18.912C62.9978 19.84 63.9978 20.304 65.2138 20.304C66.1258 20.304 66.8138 20.064 67.2778 19.584C67.7418 19.104 67.9738 18.4 67.9738 17.472V16.944C67.2058 17.808 66.2058 18.24 64.9738 18.24C63.9498 18.24 63.0458 17.976 62.2617 17.448C61.4938 16.904 60.8938 16.136 60.4618 15.144C60.0458 14.152 59.8378 13 59.8378 11.688V11.544ZM63.4378 11.808C63.4378 12.928 63.6538 13.816 64.0858 14.472C64.5178 15.112 65.1178 15.432 65.8858 15.432C66.8458 15.432 67.5418 15.08 67.9738 14.376V8.952C67.5418 8.248 66.8538 7.896 65.9098 7.896C65.1258 7.896 64.5178 8.232 64.0858 8.904C63.6538 9.576 63.4378 10.544 63.4378 11.808ZM80.0041 18.24C78.7401 18.24 77.6281 17.984 76.6681 17.472C75.7081 16.944 74.9561 16.208 74.4121 15.264C73.8841 14.304 73.6201 13.208 73.6201 11.976V11.64C73.6201 10.36 73.8521 9.232 74.3161 8.256C74.7961 7.264 75.4841 6.488 76.3801 5.928C77.2921 5.368 78.3641 5.088 79.5961 5.088C81.3721 5.088 82.7561 5.64 83.7481 6.744C84.7561 7.848 85.2601 9.392 85.2601 11.376V12.792H77.2681V12.816C77.3961 13.632 77.7161 14.28 78.2281 14.76C78.7561 15.224 79.4281 15.456 80.2441 15.456C81.4921 15.456 82.4921 14.984 83.2441 14.04L84.9481 15.96C84.4361 16.664 83.7401 17.224 82.8601 17.64C81.9961 18.04 81.0441 18.24 80.0041 18.24ZM81.7321 10.44V10.176C81.7161 9.44 81.5241 8.872 81.1561 8.472C80.7881 8.072 80.2681 7.872 79.5961 7.872C78.9561 7.872 78.4361 8.096 78.0361 8.544C77.6361 8.976 77.3801 9.608 77.2681 10.44H81.7321ZM94.4045 8.568C94.1645 8.504 93.7405 8.472 93.1325 8.472C91.8525 8.472 91.0205 8.912 90.6365 9.792V18H87.0365V5.328H90.4445L90.5405 6.936C91.2125 5.704 92.1565 5.088 93.3725 5.088C93.7885 5.088 94.1485 5.136 94.4525 5.232L94.4045 8.568ZM102.735 14.496C102.735 14.08 102.527 13.76 102.111 13.536C101.695 13.312 101.031 13.096 100.119 12.888C97.1588 12.232 95.6788 10.952 95.6788 9.048C95.6788 8.28 95.8948 7.6 96.3268 7.008C96.7588 6.4 97.3588 5.928 98.1268 5.592C98.8948 5.256 99.7828 5.088 100.791 5.088C101.863 5.088 102.807 5.264 103.623 5.616C104.439 5.952 105.071 6.432 105.519 7.056C105.967 7.664 106.191 8.376 106.191 9.192H102.591C102.591 8.664 102.431 8.256 102.111 7.968C101.807 7.664 101.359 7.512 100.767 7.512C100.287 7.512 99.8868 7.64 99.5668 7.896C99.2468 8.152 99.0868 8.48 99.0868 8.88C99.0868 9.328 99.3268 9.664 99.8068 9.888C100.303 10.096 100.999 10.304 101.895 10.512C102.279 10.576 102.647 10.664 102.999 10.776C104.071 11.112 104.871 11.576 105.399 12.168C105.927 12.744 106.191 13.472 106.191 14.352C106.191 15.104 105.959 15.776 105.495 16.368C105.047 16.96 104.415 17.424 103.599 17.76C102.783 18.08 101.847 18.24 100.791 18.24C99.8148 18.24 98.9028 18.064 98.0548 17.712C97.2228 17.344 96.5508 16.832 96.0388 16.176C95.5268 15.52 95.2708 14.784 95.2708 13.968H98.6548C98.6708 14.56 98.8788 15.016 99.2788 15.336C99.6788 15.64 100.215 15.792 100.887 15.792C101.463 15.792 101.911 15.672 102.231 15.432C102.567 15.192 102.735 14.88 102.735 14.496Z" fill="#090909"/>
</svg>
