<svg width="431" height="321" viewBox="0 0 431 321" fill="none" xmlns="http://www.w3.org/2000/svg">
<path d="M430.154 281.665H0V281.88H430.154V281.665Z" fill="#E6E6E6"/>
<path d="M383.336 287.197H363.334V287.412H383.336V287.197Z" fill="#E6E6E6"/>
<path d="M310.571 291.868H215.567V292.083H310.571V291.868Z" fill="#E6E6E6"/>
<path d="M174.927 291.98H165.609V292.195H174.927V291.98Z" fill="#E6E6E6"/>
<path d="M99.4177 289.399H67.1045V289.614H99.4177V289.399Z" fill="#E6E6E6"/>
<path d="M355.006 287.197H336.097V287.412H355.006V287.197Z" fill="#E6E6E6"/>
<path d="M60.0836 289.399H44.4346V289.614H60.0836V289.399Z" fill="#E6E6E6"/>
<path d="M203.893 243.295H37.7758C36.4745 243.293 35.2272 242.774 34.3078 241.853C33.3884 240.932 32.8721 239.684 32.8721 238.383V4.86935C32.8834 3.57546 33.4048 2.3383 34.3229 1.42658C35.2411 0.514859 36.4819 0.00221649 37.7758 0H203.893C205.196 0 206.445 0.517551 207.366 1.4388C208.288 2.36004 208.805 3.60952 208.805 4.91236V238.383C208.805 239.686 208.288 240.935 207.366 241.856C206.445 242.778 205.196 243.295 203.893 243.295ZM37.7758 0.172062C36.5315 0.174341 35.339 0.670236 34.4599 1.5509C33.5809 2.43157 33.0871 3.62504 33.0871 4.86935V238.383C33.0871 239.627 33.5809 240.821 34.4599 241.701C35.339 242.582 36.5315 243.078 37.7758 243.08H203.893C205.138 243.078 206.331 242.582 207.212 241.702C208.092 240.821 208.588 239.628 208.59 238.383V4.86935C208.588 3.62425 208.092 2.43079 207.212 1.55038C206.331 0.669957 205.138 0.174336 203.893 0.172062H37.7758Z" fill="#E6E6E6"/>
<path d="M389.986 243.295H223.861C222.558 243.293 221.31 242.775 220.39 241.854C219.469 240.933 218.951 239.685 218.948 238.383V4.86935C218.962 3.57468 219.485 2.33752 220.405 1.42604C221.324 0.514558 222.566 0.00219232 223.861 0H389.986C391.279 0.00447747 392.517 0.51812 393.433 1.4296C394.35 2.34108 394.87 3.57695 394.881 4.86935V238.383C394.881 239.683 394.366 240.93 393.449 241.85C392.531 242.771 391.286 243.291 389.986 243.295ZM223.861 0.172062C222.615 0.174336 221.422 0.669957 220.542 1.55038C219.661 2.43079 219.166 3.62425 219.163 4.86935V238.383C219.166 239.628 219.661 240.821 220.542 241.702C221.422 242.582 222.615 243.078 223.861 243.08H389.986C391.231 243.078 392.425 242.582 393.305 241.702C394.186 240.821 394.681 239.628 394.683 238.383V4.86935C394.681 3.62425 394.186 2.43079 393.305 1.55038C392.425 0.669957 391.231 0.174336 389.986 0.172062H223.861Z" fill="#E6E6E6"/>
<path d="M278.37 129.149H343.384V15.9586L278.37 15.9586V129.149Z" fill="#E6E6E6"/>
<path d="M274.86 129.149H339.873V15.9586L274.86 15.9586V129.149Z" fill="#F5F5F5"/>
<path d="M333.559 123.841V21.2754L281.157 21.2754V123.841H333.559Z" fill="#FAFAFA"/>
<path d="M283.815 123.841V21.2754H281.157V123.841H283.815Z" fill="#E6E6E6"/>
<path d="M277.467 99.0818L337.267 99.0818V91.9498H277.467V99.0818Z" fill="#F5F5F5"/>
<path d="M167.881 129.149H232.895V15.9586L167.881 15.9586V129.149Z" fill="#E6E6E6"/>
<path d="M164.37 129.149H229.384V15.9586L164.37 15.9586V129.149Z" fill="#F5F5F5"/>
<path d="M223.078 123.841V21.2754L170.677 21.2754V123.841H223.078Z" fill="#FAFAFA"/>
<path d="M173.326 123.833V21.2668H170.668V123.833H173.326Z" fill="#E6E6E6"/>
<path d="M166.977 99.0818L226.777 99.0818V91.9498H166.977V99.0818Z" fill="#F5F5F5"/>
<path d="M57.3996 129.149H122.413L122.413 15.9586L57.3996 15.9586L57.3996 129.149Z" fill="#E6E6E6"/>
<path d="M53.8898 129.149H118.903L118.903 15.9586L53.8898 15.9586L53.8898 129.149Z" fill="#F5F5F5"/>
<path d="M112.589 123.833V21.2668L60.1875 21.2668L60.1875 123.833H112.589Z" fill="#FAFAFA"/>
<path d="M62.8457 123.841L62.8457 21.2754H60.1873L60.1873 123.841H62.8457Z" fill="#E6E6E6"/>
<path d="M56.4968 99.0818L116.297 99.0818V91.9498H56.4968V99.0818Z" fill="#F5F5F5"/>
<path d="M120.443 199.179C108.717 200.796 101.465 175.314 127.326 153.737C125.975 178.712 140.901 196.357 120.443 199.179Z" fill="#E6E6E6"/>
<path d="M111.84 232.55C94.8404 220.635 106.472 179.004 159.08 182.024C136.333 212.668 141.486 253.318 111.84 232.55Z" fill="#E0E0E0"/>
<path d="M117.863 232.283C129.158 220.118 113.079 189.5 72.4297 200.684C95.3655 220.815 98.1529 253.481 117.863 232.283Z" fill="#E0E0E0"/>
<path d="M103.357 214.527C99.4512 209.769 94.84 204.418 95.9584 198.757C97.0768 193.096 99.8728 188.889 97.679 182.867C95.012 175.641 95.5282 167.02 100.036 167.743C104.544 168.466 109.594 173.765 109.5 180.742C109.422 187.521 113.801 189.689 118.017 193.294C122.232 196.899 123.72 202.173 124.469 207.334C125.777 215.533 136.401 213.985 139.223 221.099C142.14 227.982 136.324 237.144 127.024 239.252C117.724 241.36 111.1 242.693 104.759 235.415C98.3156 227.75 109.138 221.34 103.357 214.527Z" fill="#F5F5F5"/>
<path d="M135.352 281.665H100.415L97.7822 234.073H137.984L135.352 281.665Z" fill="#EBEBEB"/>
<path d="M140.591 233.101H95.1758V238.228H140.591V233.101Z" fill="#EBEBEB"/>
<path d="M341.319 275.204H364.822V173.283H341.319V275.204Z" fill="#EBEBEB"/>
<path d="M157.135 281.665H360.306V275.204H157.135V281.665Z" fill="#EBEBEB"/>
<path d="M341.318 173.283H152.627V275.204H341.318V173.283Z" fill="#F5F5F5"/>
<path d="M332.079 185.827H161.867V219.258H332.079V185.827Z" fill="#EBEBEB"/>
<path d="M332.079 229.229H161.867V262.661H332.079V229.229Z" fill="#EBEBEB"/>
<path d="M194.026 204.831H299.921C300.527 204.829 301.108 204.587 301.537 204.158C301.965 203.729 302.207 203.149 302.21 202.542C302.21 201.935 301.969 201.352 301.54 200.921C301.111 200.491 300.529 200.248 299.921 200.245H194.026C193.418 200.248 192.836 200.491 192.407 200.921C191.978 201.352 191.737 201.935 191.737 202.542C191.74 203.149 191.981 203.729 192.41 204.158C192.839 204.587 193.419 204.829 194.026 204.831Z" fill="#F5F5F5"/>
<path d="M194.026 248.233H299.921C300.527 248.231 301.108 247.989 301.537 247.561C301.965 247.132 302.207 246.551 302.21 245.945C302.207 245.339 301.965 244.758 301.537 244.329C301.108 243.901 300.527 243.659 299.921 243.656H194.026C193.419 243.659 192.839 243.901 192.41 244.329C191.981 244.758 191.74 245.339 191.737 245.945C191.74 246.551 191.981 247.132 192.41 247.561C192.839 247.989 193.419 248.231 194.026 248.233Z" fill="#F5F5F5"/>
<path d="M289.228 158.409C289.228 158.409 316.155 183.925 332.14 158.305C332.14 158.305 327.89 150.072 323.408 149.367C318.925 148.661 318.745 156.49 314.805 154.073C310.864 151.655 306.262 143.388 303.75 147.801C301.237 152.214 297.788 145.925 294.028 145.564C290.269 145.203 289.228 158.409 289.228 158.409Z" fill="#F5F5F5"/>
<path d="M333.851 156.645C333.851 156.645 333.266 173.283 310.571 173.283C287.876 173.283 287.291 156.645 287.291 156.645H333.851Z" fill="#EBEBEB"/>
<path d="M219.043 147.973H232.111V173.283H193.741C193.741 166.572 196.407 160.136 201.151 155.389C205.896 150.643 212.332 147.975 219.043 147.973Z" fill="#F5F5F5"/>
<path d="M244.164 147.973H232.111V173.283H244.164V147.973Z" fill="#E6E6E6"/>
<path d="M215.077 320.516C307.201 320.516 381.882 316.156 381.882 310.778C381.882 305.399 307.201 301.039 215.077 301.039C122.953 301.039 48.2715 305.399 48.2715 310.778C48.2715 316.156 122.953 320.516 215.077 320.516Z" fill="#F5F5F5"/>
<path d="M187.547 122.818L186.979 123.678C186.807 123.927 186.626 124.151 186.454 124.383C186.101 124.848 185.731 125.244 185.361 125.717C184.613 126.577 183.856 127.437 183.047 128.194C181.43 129.748 179.705 131.186 177.885 132.496C176.068 133.806 174.155 134.979 172.164 136.006C171.158 136.496 170.16 137.004 169.119 137.417L167.562 138.036L167.123 138.2C166.882 138.277 166.658 138.363 166.392 138.424C165.871 138.553 165.336 138.614 164.8 138.604C163.778 138.597 162.772 138.347 161.866 137.873C161.138 137.493 160.469 137.009 159.879 136.436C158.945 135.515 158.138 134.473 157.479 133.339C156.352 131.375 155.432 129.299 154.734 127.145C153.381 123.084 152.413 118.904 151.844 114.662L155.44 113.87C156.094 115.754 156.765 117.699 157.505 119.574C158.244 121.45 158.984 123.317 159.845 125.089C160.628 126.799 161.561 128.437 162.632 129.984C163.058 130.625 163.57 131.204 164.155 131.705C164.323 131.842 164.511 131.953 164.714 132.031C164.834 132.031 164.826 132.031 164.766 132.031H164.705L164.989 131.894L166.271 131.274C167.131 130.861 167.949 130.414 168.775 129.915C170.404 128.939 171.978 127.873 173.489 126.723C174.98 125.551 176.397 124.287 177.73 122.938C178.401 122.284 179.038 121.587 179.649 120.882C179.95 120.529 180.251 120.176 180.509 119.824L180.922 119.299L181.258 118.852L187.547 122.818Z" fill="#B97964"/>
<path d="M177.129 122.448L181.491 132.909L178.333 134.879L173.43 125.39L177.129 122.448Z" fill="#263238"/>
<path d="M189.474 113.638C182.359 113.544 175.133 122.551 174.952 122.775L180.579 136.006C180.579 136.006 193.096 125.846 193.724 121.871C194.378 117.733 193.982 113.698 189.474 113.638Z" fill="#9D915F"/>
<path opacity="0.3" d="M189.474 113.638C182.359 113.544 175.133 122.551 174.952 122.775L180.579 136.006C180.579 136.006 193.096 125.846 193.724 121.871C194.378 117.733 193.982 113.698 189.474 113.638Z" fill="black"/>
<path d="M154.855 112.502L149.934 108.674L148.937 116.21C148.937 116.21 153.72 118.086 156.266 116.46L156.198 115.083C156.172 114.582 156.039 114.092 155.807 113.647C155.576 113.202 155.251 112.811 154.855 112.502Z" fill="#B97964"/>
<path d="M143.379 108.296L143.689 114.017L148.962 116.21L149.96 108.674L143.379 108.296Z" fill="#B97964"/>
<path d="M251.209 111.892L258.814 109.99L253.498 104.562C253.498 104.562 248.568 106.575 249.773 110.876L251.209 111.892Z" fill="#B97964"/>
<path d="M262.592 108.64L261.964 102.669L253.455 104.562L258.772 109.99L262.592 108.64Z" fill="#B97964"/>
<path d="M226.407 303.233L219.326 303.913L213.416 287.205L220.496 286.517L226.407 303.233Z" fill="#B97964"/>
<path d="M302.2 268.106L296.987 273.165L283.583 262.704L288.805 257.645L302.2 268.106Z" fill="#B97964"/>
<path d="M295.481 272.184L299.49 265.07C299.557 264.947 299.667 264.854 299.798 264.806C299.93 264.759 300.074 264.761 300.204 264.811L306.295 267.169C306.446 267.234 306.581 267.331 306.692 267.452C306.803 267.573 306.887 267.716 306.939 267.872C306.991 268.028 307.009 268.193 306.993 268.356C306.977 268.519 306.927 268.678 306.846 268.82C305.409 271.281 304.592 272.391 302.828 275.522C301.744 277.449 299.628 281.863 298.131 284.521C296.634 287.179 293.924 285.837 294.311 284.599C296.031 279.032 295.739 275.927 295.274 273.466C295.189 273.028 295.262 272.574 295.481 272.184Z" fill="#263238"/>
<path d="M217.916 301.745H226.519C226.674 301.748 226.823 301.801 226.945 301.895C227.068 301.99 227.156 302.121 227.199 302.269L229.074 309.092C229.122 309.253 229.13 309.423 229.1 309.588C229.069 309.754 228.999 309.909 228.897 310.043C228.795 310.176 228.662 310.283 228.511 310.356C228.359 310.428 228.193 310.464 228.025 310.46C225.005 310.408 223.534 310.227 219.74 310.227C217.408 310.227 209.812 310.477 206.586 310.477C203.36 310.477 202.774 307.285 204.082 307.036C209.932 305.736 214.87 303.956 216.668 302.252C217.001 301.925 217.45 301.743 217.916 301.745Z" fill="#263238"/>
<path d="M213.425 287.205L216.462 295.826H223.792L220.505 286.517L213.425 287.205Z" fill="#A76755"/>
<path d="M288.814 257.645L283.592 262.712L290.5 268.098L295.722 263.039L288.814 257.645Z" fill="#A76755"/>
<path d="M182.549 115.935C182.549 115.935 179.624 118.163 199.333 156.628L227.431 147.552C223.267 136.273 220.979 129.227 218.828 103.994C214.66 104.455 210.532 105.217 206.474 106.274C202.135 107.366 197.873 108.742 193.716 110.395C188.347 112.7 182.549 115.935 182.549 115.935Z" fill="#9D915F"/>
<path opacity="0.3" d="M182.549 115.935C182.549 115.935 179.624 118.163 199.333 156.628L227.431 147.552C223.267 136.273 220.979 129.227 218.828 103.994C214.66 104.455 210.532 105.217 206.474 106.274C202.135 107.366 197.873 108.742 193.716 110.395C188.347 112.7 182.549 115.935 182.549 115.935Z" fill="black"/>
<path d="M200.529 92.311C201.045 96.6814 202.671 104.459 206.431 106.274C206.431 106.274 206.646 110.799 199.024 113.26C190.636 115.97 193.672 110.395 193.672 110.395C197.897 107.814 196.675 104.459 194.851 101.534L200.529 92.311Z" fill="#B97964"/>
<path d="M186.428 113.853C188.501 112.778 191.143 111.47 193.672 110.412C197.835 108.729 202.113 107.346 206.473 106.274C208.925 105.603 211.403 105.104 213.493 104.751C213.691 105.336 213.098 106.85 211.644 108.941C207.041 112.761 197.225 117.725 189.99 117.544C186.824 116.365 186.032 115.118 186.428 113.853Z" fill="#B97964"/>
<path d="M211.635 108.941C208.51 113.13 204.775 116.827 200.555 119.91C196.961 119.472 193.419 118.68 189.981 117.544C197.182 117.725 206.998 112.761 211.635 108.941Z" fill="#263238"/>
<path d="M198.214 96.0706L194.851 101.516C195.29 102.195 195.667 102.912 195.978 103.658C197.647 102.841 199.772 100.424 199.367 98.4966C199.127 97.627 198.737 96.8059 198.214 96.0706Z" fill="#A76755"/>
<path d="M202.232 84.2414C202.662 91.4422 203.006 94.479 199.84 98.5913C195.083 104.768 186.144 103.753 183.563 96.8019C181.249 90.5646 180.931 79.8366 187.581 76.1545C189.042 75.3334 190.689 74.899 192.365 74.8926C194.041 74.8863 195.691 75.308 197.159 76.118C198.626 76.928 199.862 78.0993 200.75 79.5209C201.638 80.9425 202.148 82.5674 202.232 84.2414Z" fill="#B97964"/>
<path d="M216.455 71.3361C218.081 64.1826 213.601 57.065 206.447 55.4385C199.294 53.8119 192.176 58.2924 190.55 65.4459C188.923 72.5994 193.404 79.717 200.557 81.3436C207.711 82.9701 214.828 78.4896 216.455 71.3361Z" fill="#263238"/>
<path d="M200.185 74.1586C202.921 75.9652 204.28 78.7354 203.222 80.3442C202.164 81.9529 199.084 81.7981 196.339 79.9914C193.595 78.1848 192.244 75.4146 193.303 73.8058C194.361 72.197 197.441 72.3519 200.185 74.1586Z" fill="#9D915F"/>
<path opacity="0.6" d="M200.185 74.1586C202.921 75.9652 204.28 78.7354 203.222 80.3442C202.164 81.9529 199.084 81.7981 196.339 79.9914C193.595 78.1848 192.244 75.4146 193.303 73.8058C194.361 72.197 197.441 72.3519 200.185 74.1586Z" fill="#FAFAFA"/>
<path d="M198.731 89.1537C199.445 87.5019 196.958 82.5982 197.492 80.7657C196.064 79.4322 181.585 84.1467 182.755 80.7055C183.873 77.4019 187.4 73.0229 195.453 74.8554C204.056 76.8169 204.804 84.2586 203.841 86.633C202.877 89.0075 201.509 91.4766 201.509 91.4766L198.731 89.1537Z" fill="#263238"/>
<path d="M204.125 90.5561C204.143 91.9496 203.611 93.2941 202.645 94.2985C201.346 95.6148 199.78 94.6684 199.376 92.965C199.006 91.4337 199.247 88.8958 200.916 88.2247C201.284 88.0814 201.682 88.0328 202.073 88.0834C202.465 88.134 202.838 88.2821 203.157 88.5142C203.476 88.7462 203.732 89.0548 203.902 89.4116C204.071 89.7684 204.147 90.162 204.125 90.5561Z" fill="#B97964"/>
<path d="M199.333 156.628C199.333 156.628 186.308 220.153 193.569 241.101C201.122 262.893 213.416 293.313 213.416 293.313L224.901 292.66C224.901 292.66 215.438 254.221 213.106 236.86C209.915 212.926 223.585 148.833 223.585 148.833L199.333 156.628Z" fill="#9D915F"/>
<path opacity="0.6" d="M199.333 156.628C199.333 156.628 186.308 220.153 193.569 241.101C201.122 262.893 213.416 293.313 213.416 293.313L224.901 292.66C224.901 292.66 215.438 254.221 213.106 236.86C209.915 212.926 223.585 148.833 223.585 148.833L199.333 156.628Z" fill="#FAFAFA"/>
<path d="M225.805 292.935L212.513 293.701L210.38 288.47L225.04 286.947L225.805 292.935Z" fill="#9D915F"/>
<path opacity="0.2" d="M225.805 292.935L212.513 293.701L210.38 288.47L225.04 286.947L225.805 292.935Z" fill="black"/>
<path d="M213.107 161.514C211.111 168.896 212.78 179.959 216.548 187.719C217.469 181.697 218.449 175.864 219.378 170.642C217.443 166.9 215.309 163.579 213.107 161.514Z" fill="#9D915F"/>
<path opacity="0.4" d="M213.107 161.514C211.111 168.896 212.78 179.959 216.548 187.719C217.469 181.697 218.449 175.864 219.378 170.642C217.443 166.9 215.309 163.579 213.107 161.514Z" fill="#FAFAFA"/>
<path d="M206.749 154.228C206.749 154.228 226.089 200.452 238.899 225.831C249.222 246.358 287.532 267.84 287.532 267.84L294.414 260.544C294.414 260.544 265.783 235.122 258.643 221.203C235.793 176.647 240.49 157.187 227.448 147.552L206.749 154.228Z" fill="#9D915F"/>
<path opacity="0.6" d="M206.749 154.228C206.749 154.228 226.089 200.452 238.899 225.831C249.222 246.358 287.532 267.84 287.532 267.84L294.414 260.544C294.414 260.544 265.783 235.122 258.643 221.203C235.793 176.647 240.49 157.187 227.448 147.552L206.749 154.228Z" fill="#FAFAFA"/>
<path d="M295.696 259.503L286.233 269.56L280.245 266.412L291.145 255.296L295.696 259.503Z" fill="#9D915F"/>
<path opacity="0.2" d="M295.696 259.503L286.233 269.56L280.245 266.412L291.145 255.296L295.696 259.503Z" fill="black"/>
<path d="M227.319 145.771L229.392 147.878C229.555 148.042 229.392 148.317 229.065 148.42L199.599 157.884C199.341 157.97 199.092 157.884 199.023 157.755L197.965 155.329C197.887 155.157 198.06 154.942 198.335 154.847L226.785 145.667C226.875 145.637 226.972 145.631 227.066 145.649C227.159 145.667 227.246 145.709 227.319 145.771Z" fill="#263238"/>
<path d="M224.54 150.184L225.297 149.943C225.452 149.891 225.538 149.771 225.503 149.685L224.092 146.528C224.092 146.442 223.886 146.407 223.74 146.45L222.974 146.7C222.828 146.7 222.733 146.863 222.776 146.958L224.187 150.106C224.213 150.201 224.368 150.236 224.54 150.184Z" fill="#9D915F"/>
<path opacity="0.6" d="M224.54 150.184L225.297 149.943C225.452 149.891 225.538 149.771 225.503 149.685L224.092 146.528C224.092 146.442 223.886 146.407 223.74 146.45L222.974 146.7C222.828 146.7 222.733 146.863 222.776 146.958L224.187 150.106C224.213 150.201 224.368 150.236 224.54 150.184Z" fill="#FAFAFA"/>
<path d="M201.828 157.514L202.593 157.264C202.74 157.213 202.834 157.101 202.791 157.006L201.38 153.858C201.337 153.763 201.183 153.728 201.028 153.78L200.262 154.021C200.116 154.073 200.021 154.184 200.064 154.279L201.475 157.428C201.518 157.522 201.673 157.557 201.828 157.514Z" fill="#9D915F"/>
<path opacity="0.6" d="M201.828 157.514L202.593 157.264C202.74 157.213 202.834 157.101 202.791 157.006L201.38 153.858C201.337 153.763 201.183 153.728 201.028 153.78L200.262 154.021C200.116 154.073 200.021 154.184 200.064 154.279L201.475 157.428C201.518 157.522 201.673 157.557 201.828 157.514Z" fill="#FAFAFA"/>
<path d="M213.175 153.849L213.933 153.6C214.087 153.6 214.182 153.436 214.139 153.341L212.728 150.193C212.685 150.098 212.522 150.064 212.375 150.115L211.61 150.365C211.463 150.408 211.369 150.528 211.412 150.614L212.823 153.772C212.865 153.821 212.923 153.855 212.986 153.869C213.05 153.883 213.116 153.876 213.175 153.849Z" fill="#9D915F"/>
<path opacity="0.6" d="M213.175 153.849L213.933 153.6C214.087 153.6 214.182 153.436 214.139 153.341L212.728 150.193C212.685 150.098 212.522 150.064 212.375 150.115L211.61 150.365C211.463 150.408 211.369 150.528 211.412 150.614L212.823 153.772C212.865 153.821 212.923 153.855 212.986 153.869C213.05 153.883 213.116 153.876 213.175 153.849Z" fill="#FAFAFA"/>
<path d="M191.633 87.562C191.702 88.1384 191.452 88.6546 191.074 88.6976C190.695 88.7407 190.325 88.3105 190.257 87.7255C190.188 87.1405 190.437 86.6329 190.816 86.5899C191.194 86.5469 191.564 86.977 191.633 87.562Z" fill="#263238"/>
<path d="M185.052 88.3622C185.129 88.9473 184.871 89.4548 184.493 89.4978C184.114 89.5409 183.744 89.1107 183.675 88.5343C183.607 87.9579 183.856 87.4417 184.235 87.3901C184.613 87.3385 184.966 87.7514 185.052 88.3622Z" fill="#263238"/>
<path d="M184.406 87.4073L182.961 87.175C182.961 87.175 183.813 88.1816 184.406 87.4073Z" fill="#263238"/>
<path d="M186.919 89.1538C186.559 90.5435 186.012 91.8777 185.293 93.1198C185.617 93.2926 185.974 93.3943 186.341 93.418C186.707 93.4418 187.074 93.387 187.418 93.2575L186.919 89.1538Z" fill="#A24E3F"/>
<path d="M189.723 95.2964C189.682 95.2969 189.641 95.2823 189.61 95.2555C189.578 95.2286 189.557 95.1912 189.551 95.1502C189.548 95.104 189.562 95.0583 189.591 95.0218C189.62 94.9854 189.66 94.9606 189.706 94.9523C190.431 94.8801 191.128 94.6385 191.743 94.2469C192.357 93.8554 192.87 93.3249 193.242 92.6983C193.251 92.6771 193.265 92.658 193.281 92.6421C193.298 92.6263 193.318 92.614 193.34 92.6059C193.361 92.5979 193.384 92.5943 193.408 92.5954C193.431 92.5965 193.453 92.6022 193.474 92.6122C193.495 92.6223 193.513 92.6363 193.528 92.6535C193.543 92.6706 193.554 92.6906 193.561 92.7122C193.569 92.7338 193.571 92.7566 193.57 92.7794C193.568 92.8021 193.562 92.8242 193.552 92.8445C193.161 93.5281 192.611 94.1076 191.949 94.5343C191.288 94.961 190.533 95.2224 189.749 95.2964H189.723Z" fill="#263238"/>
<path d="M192.451 85.4974C192.368 85.4964 192.289 85.4659 192.227 85.4114C191.909 85.1171 191.525 84.9034 191.108 84.7881C190.69 84.6729 190.251 84.6594 189.827 84.7489C189.783 84.762 189.737 84.7661 189.691 84.761C189.645 84.7559 189.601 84.7417 189.561 84.7192C189.521 84.6968 189.486 84.6665 189.458 84.6302C189.429 84.594 189.409 84.5524 189.397 84.508C189.384 84.4645 189.38 84.4189 189.385 84.3738C189.39 84.3287 189.404 84.2851 189.427 84.2457C189.45 84.2063 189.48 84.1719 189.516 84.1445C189.552 84.1171 189.594 84.0974 189.638 84.0865C190.171 83.9693 190.725 83.9808 191.253 84.1199C191.781 84.259 192.268 84.5218 192.675 84.8866C192.707 84.9186 192.733 84.9568 192.751 84.9988C192.768 85.0409 192.777 85.0861 192.777 85.1318C192.777 85.1774 192.768 85.2226 192.751 85.2647C192.733 85.3068 192.707 85.3449 192.675 85.377C192.618 85.4435 192.538 85.4864 192.451 85.4974Z" fill="#263238"/>
<path d="M181.654 85.6952C181.603 85.7073 181.55 85.7073 181.499 85.6952C181.419 85.6514 181.36 85.5787 181.333 85.4922C181.305 85.4057 181.313 85.312 181.353 85.2307C181.588 84.7387 181.937 84.3098 182.371 83.9792C182.805 83.6486 183.311 83.4259 183.848 83.3294C183.938 83.3197 184.028 83.3458 184.099 83.4022C184.169 83.4586 184.215 83.5406 184.226 83.6305C184.232 83.6757 184.229 83.7217 184.217 83.7658C184.205 83.8098 184.185 83.8511 184.157 83.8871C184.129 83.9231 184.094 83.9532 184.054 83.9756C184.014 83.998 183.97 84.0123 183.925 84.0176C183.5 84.0967 183.101 84.2762 182.76 84.5411C182.418 84.806 182.145 85.1486 181.963 85.5404C181.93 85.5912 181.884 85.6324 181.829 85.6596C181.775 85.6868 181.714 85.6991 181.654 85.6952Z" fill="#263238"/>
<path d="M224.54 110.713L224.867 111.126L225.271 111.616C225.547 111.943 225.831 112.279 226.132 112.606C226.725 113.268 227.345 113.922 228.007 114.541C229.304 115.813 230.674 117.008 232.111 118.12C233.569 119.225 235.083 120.256 236.645 121.209C237.427 121.682 238.228 122.129 239.036 122.568L240.266 123.196L240.86 123.497C241.006 123.566 241.153 123.635 241.29 123.687C241.729 123.87 242.2 123.966 242.675 123.97C243.113 123.945 243.532 123.79 243.88 123.523C245.033 122.567 245.944 121.353 246.538 119.979C247.337 118.321 247.979 116.593 248.457 114.817C248.989 113.005 249.428 111.167 249.773 109.311L253.446 109.543C253.561 113.778 252.956 118.002 251.657 122.035C251.289 123.134 250.813 124.195 250.237 125.201C249.598 126.347 248.773 127.38 247.794 128.255C246.629 129.289 245.205 129.988 243.673 130.277C242.185 130.536 240.655 130.43 239.217 129.967C238.881 129.872 238.572 129.752 238.253 129.631L237.505 129.322L236.042 128.711C235.07 128.272 234.115 127.85 233.178 127.317C231.295 126.324 229.482 125.206 227.749 123.97C226.014 122.719 224.361 121.357 222.802 119.893C222.028 119.153 221.279 118.37 220.548 117.561C220.187 117.148 219.826 116.701 219.481 116.305L218.957 115.625C218.776 115.385 218.638 115.195 218.397 114.851L224.54 110.713Z" fill="#B97964"/>
<path d="M230.639 115.247L225.254 124.289L222.63 121.811L227.602 112.752L230.639 115.247Z" fill="#263238"/>
<path d="M218.862 103.994C221.96 103.943 229.479 112.821 229.479 112.821L222.94 124.203C222.94 124.203 214.612 116.864 214.621 112.847C214.63 108.657 215.335 104.097 218.862 103.994Z" fill="#9D915F"/>
<path opacity="0.3" d="M218.862 103.994C221.96 103.943 229.479 112.821 229.479 112.821L222.94 124.203C222.94 124.203 214.612 116.864 214.621 112.847C214.63 108.657 215.335 104.097 218.862 103.994Z" fill="black"/>
<path d="M294.071 276.047C293.831 276.038 293.602 275.95 293.417 275.798C293.33 275.74 293.262 275.66 293.218 275.566C293.174 275.472 293.156 275.368 293.167 275.264C293.245 274.335 295.576 273.114 295.834 272.976C295.862 272.957 295.895 272.948 295.929 272.948C295.963 272.948 295.995 272.957 296.024 272.976C296.049 272.997 296.069 273.026 296.079 273.058C296.09 273.09 296.092 273.124 296.084 273.157C295.817 274.086 295.223 275.686 294.363 275.97C294.271 276.013 294.172 276.039 294.071 276.047ZM295.628 273.466C294.716 273.982 293.555 274.791 293.511 275.273C293.505 275.319 293.513 275.367 293.534 275.408C293.556 275.45 293.59 275.484 293.632 275.505C293.712 275.583 293.812 275.638 293.921 275.664C294.03 275.69 294.145 275.685 294.251 275.651C294.725 275.514 295.223 274.705 295.628 273.483V273.466Z" fill="#9D915F"/>
<path d="M293.752 273.793C293.374 273.825 292.996 273.731 292.677 273.526C292.573 273.437 292.503 273.315 292.478 273.181C292.453 273.046 292.474 272.907 292.539 272.786C292.585 272.662 292.66 272.549 292.757 272.458C292.854 272.367 292.971 272.3 293.098 272.262C294.096 271.926 295.92 272.933 295.997 272.976C296.025 272.991 296.049 273.013 296.066 273.04C296.082 273.068 296.091 273.099 296.092 273.131C296.091 273.16 296.082 273.189 296.067 273.214C296.052 273.24 296.031 273.261 296.006 273.277C295.303 273.617 294.533 273.794 293.752 273.793ZM293.571 272.537C293.449 272.535 293.327 272.553 293.21 272.589C293.131 272.613 293.058 272.656 292.997 272.712C292.936 272.769 292.888 272.838 292.857 272.916C292.771 273.122 292.857 273.208 292.857 273.268C293.244 273.595 294.672 273.458 295.49 273.122C294.894 272.805 294.242 272.607 293.571 272.537Z" fill="#9D915F"/>
<path d="M214.096 303.173C213.494 303.223 212.892 303.082 212.375 302.768C212.24 302.669 212.13 302.54 212.054 302.39C211.978 302.241 211.938 302.076 211.937 301.908C211.927 301.817 211.941 301.725 211.979 301.642C212.017 301.559 212.077 301.487 212.152 301.435C212.935 300.902 215.877 302.244 216.453 302.51C216.486 302.526 216.513 302.553 216.53 302.585C216.547 302.618 216.554 302.655 216.548 302.691C216.545 302.726 216.531 302.759 216.508 302.785C216.484 302.812 216.453 302.83 216.419 302.837C215.658 303.027 214.88 303.139 214.096 303.173ZM212.72 301.684C212.603 301.674 212.487 301.698 212.384 301.753C212.358 301.771 212.338 301.796 212.326 301.825C212.313 301.854 212.31 301.886 212.315 301.917C212.318 302.029 212.347 302.14 212.399 302.24C212.451 302.34 212.526 302.426 212.616 302.493C213.296 303.009 214.913 302.811 215.86 302.639C214.867 302.165 213.808 301.843 212.72 301.684Z" fill="#9D915F"/>
<path d="M216.419 302.871H216.35C215.378 302.476 213.416 300.901 213.528 300.084C213.528 299.903 213.666 299.68 214.113 299.628C215.834 299.404 216.556 302.545 216.582 302.674C216.589 302.704 216.588 302.736 216.579 302.766C216.57 302.797 216.553 302.824 216.531 302.846C216.497 302.866 216.458 302.875 216.419 302.871ZM214.268 299.955H214.156C213.975 299.955 213.872 300.032 213.864 300.118C213.803 300.583 215.154 301.839 216.152 302.372C215.937 301.633 215.3 299.955 214.268 299.955Z" fill="#9D915F"/>
<path d="M190.988 86.5985L189.543 86.3662C189.543 86.3662 190.395 87.3728 190.988 86.5985Z" fill="#263238"/>
<path d="M137.167 26.4802C135.644 28.3901 127.256 30.6355 120.589 30.0161C118.292 45.0887 126.319 62.4411 126.319 62.4411C126.319 62.4411 143.74 60.3678 144.17 53.1928C144.6 46.0178 137.167 26.4802 137.167 26.4802Z" fill="#9D915F"/>
<path opacity="0.4" d="M137.167 26.4802C135.644 28.3901 127.256 30.6355 120.589 30.0161C118.292 45.0887 126.319 62.4411 126.319 62.4411C126.319 62.4411 143.74 60.3678 144.17 53.1928C144.6 46.0178 137.167 26.4802 137.167 26.4802Z" fill="#FAFAFA"/>
<path d="M269.044 15.0123C270.601 17.2061 278.507 19.3827 284.624 18.2471C287.902 36.0899 281.828 57.2879 281.828 57.2879C281.828 57.2879 265.594 55.8426 264.622 47.3169C263.65 38.7913 269.044 15.0123 269.044 15.0123Z" fill="#9D915F"/>
<path opacity="0.4" d="M269.044 15.0123C270.601 17.2061 278.507 19.3827 284.624 18.2471C287.902 36.0899 281.828 57.2879 281.828 57.2879C281.828 57.2879 265.594 55.8426 264.622 47.3169C263.65 38.7913 269.044 15.0123 269.044 15.0123Z" fill="#FAFAFA"/>
<path d="M154.855 169.541C154.731 169.559 154.605 169.553 154.483 169.522C154.362 169.491 154.248 169.436 154.148 169.361C154.048 169.286 153.964 169.192 153.901 169.084C153.838 168.976 153.796 168.856 153.779 168.732L133.347 23.7961C133.33 23.6681 133.339 23.5381 133.374 23.4137C133.408 23.2893 133.467 23.1731 133.548 23.072C133.628 22.9709 133.728 22.8869 133.841 22.8251C133.954 22.7633 134.079 22.7249 134.207 22.7121C134.332 22.6952 134.458 22.7029 134.579 22.7348C134.701 22.7666 134.814 22.8221 134.914 22.898C135.014 22.9739 135.098 23.0687 135.161 23.1771C135.225 23.2854 135.266 23.4052 135.283 23.5294L155.715 168.457C155.732 168.585 155.723 168.715 155.688 168.839C155.654 168.964 155.595 169.08 155.514 169.181C155.434 169.282 155.334 169.366 155.221 169.428C155.108 169.49 154.983 169.528 154.855 169.541Z" fill="#9D915F"/>
<path opacity="0.2" d="M154.855 169.541C154.731 169.559 154.605 169.553 154.483 169.522C154.362 169.491 154.248 169.436 154.148 169.361C154.048 169.286 153.964 169.192 153.901 169.084C153.838 168.976 153.796 168.856 153.779 168.732L133.347 23.7961C133.33 23.6681 133.339 23.5381 133.374 23.4137C133.408 23.2893 133.467 23.1731 133.548 23.072C133.628 22.9709 133.728 22.8869 133.841 22.8251C133.954 22.7633 134.079 22.7249 134.207 22.7121C134.332 22.6952 134.458 22.7029 134.579 22.7348C134.701 22.7666 134.814 22.8221 134.914 22.898C135.014 22.9739 135.098 23.0687 135.161 23.1771C135.225 23.2854 135.266 23.4052 135.283 23.5294L155.715 168.457C155.732 168.585 155.723 168.715 155.688 168.839C155.654 168.964 155.595 169.08 155.514 169.181C155.434 169.282 155.334 169.366 155.221 169.428C155.108 169.49 154.983 169.528 154.855 169.541Z" fill="black"/>
<path d="M252.216 158.77C252.344 158.787 252.474 158.778 252.599 158.743C252.723 158.709 252.839 158.65 252.94 158.569C253.041 158.489 253.125 158.389 253.187 158.276C253.249 158.163 253.287 158.038 253.3 157.91L273.775 12.982C273.794 12.8577 273.787 12.7311 273.756 12.6093C273.726 12.4875 273.671 12.3729 273.596 12.2722C273.521 12.1715 273.427 12.0866 273.319 12.0224C273.211 11.9582 273.091 11.916 272.967 11.8981C272.839 11.8813 272.709 11.8904 272.584 11.9249C272.46 11.9593 272.344 12.0185 272.243 12.0987C272.142 12.1789 272.058 12.2787 271.996 12.392C271.934 12.5053 271.896 12.6299 271.883 12.7584L251.407 157.686C251.373 157.937 251.438 158.191 251.59 158.394C251.741 158.596 251.966 158.732 252.216 158.77Z" fill="#9D915F"/>
<path opacity="0.2" d="M252.216 158.77C252.344 158.787 252.474 158.778 252.599 158.743C252.723 158.709 252.839 158.65 252.94 158.569C253.041 158.489 253.125 158.389 253.187 158.276C253.249 158.163 253.287 158.038 253.3 157.91L273.775 12.982C273.794 12.8577 273.787 12.7311 273.756 12.6093C273.726 12.4875 273.671 12.3729 273.596 12.2722C273.521 12.1715 273.427 12.0866 273.319 12.0224C273.211 11.9582 273.091 11.916 272.967 11.8981C272.839 11.8813 272.709 11.8904 272.584 11.9249C272.46 11.9593 272.344 12.0185 272.243 12.0987C272.142 12.1789 272.058 12.2787 271.996 12.392C271.934 12.5053 271.896 12.6299 271.883 12.7584L251.407 157.686C251.373 157.937 251.438 158.191 251.59 158.394C251.741 158.596 251.966 158.732 252.216 158.77Z" fill="black"/>
<path d="M132.53 26.8588L136.402 55.3178C136.426 55.4976 136.488 55.6702 136.585 55.8237C136.681 55.9771 136.81 56.1078 136.962 56.2068C137.114 56.3057 137.286 56.3705 137.465 56.3967C137.645 56.423 137.828 56.41 138.002 56.3588C146.657 53.8811 194.782 41.5271 268.709 49.3903C269.023 49.4265 269.339 49.3429 269.594 49.1564C269.849 48.9698 270.024 48.6939 270.085 48.3837C271.479 41.1743 273.879 20.6388 274.49 15.3823C274.527 15.0509 274.432 14.7184 274.226 14.4562C274.02 14.194 273.719 14.023 273.389 13.98C263.461 12.7239 195.694 5.21343 133.399 25.4823C133.118 25.5756 132.877 25.7639 132.718 26.0149C132.56 26.266 132.494 26.5642 132.53 26.8588Z" fill="#9D915F"/>
<path opacity="0.6" d="M132.53 26.8588L136.402 55.3178C136.426 55.4976 136.488 55.6702 136.585 55.8237C136.681 55.9771 136.81 56.1078 136.962 56.2068C137.114 56.3057 137.286 56.3705 137.465 56.3967C137.645 56.423 137.828 56.41 138.002 56.3588C146.657 53.8811 194.782 41.5271 268.709 49.3903C269.023 49.4265 269.339 49.3429 269.594 49.1564C269.849 48.9698 270.024 48.6939 270.085 48.3837C271.479 41.1743 273.879 20.6388 274.49 15.3823C274.527 15.0509 274.432 14.7184 274.226 14.4562C274.02 14.194 273.719 14.023 273.389 13.98C263.461 12.7239 195.694 5.21343 133.399 25.4823C133.118 25.5756 132.877 25.7639 132.718 26.0149C132.56 26.266 132.494 26.5642 132.53 26.8588Z" fill="#FAFAFA"/>
<path d="M144.944 31.8314L149.022 30.9711L151.904 38.4644L152.635 30.2398L156.705 29.3795L160.275 36.7266L160.327 28.6483L164.387 27.788L163.854 42.3272L159.647 43.1875L155.612 34.9113L154.752 44.1682L150.545 45.0285L144.944 31.8314Z" fill="#FAFAFA"/>
<path d="M166.383 27.6331L177.988 25.9125L178.367 28.9063L171.106 29.9731L171.39 32.2099L178.126 31.2206L178.487 34.0854L171.751 35.0748L172.061 37.8536L179.537 36.761L179.941 39.9441L168.121 41.6647L166.383 27.6331Z" fill="#FAFAFA"/>
<path d="M180.939 25.5769L185.293 25.1038L186.222 35.7458L193.01 35.0145L193.319 38.4557L182.135 39.6602L180.939 25.5769Z" fill="#FAFAFA"/>
<path d="M203.944 31.8829L207.824 32.7432C207.663 33.7371 207.297 34.6865 206.749 35.5306C206.245 36.2907 205.559 36.9119 204.753 37.3373C203.787 37.8029 202.736 38.0663 201.664 38.1116C200.385 38.2479 199.092 38.1101 197.87 37.7072C196.813 37.2501 195.915 36.4897 195.289 35.522C194.466 34.2565 194.021 32.782 194.007 31.2721C193.782 29.2913 194.351 27.3019 195.59 25.7403C196.254 25.0355 197.054 24.4718 197.941 24.083C198.828 23.6943 199.784 23.4884 200.752 23.4777C202.212 23.2869 203.695 23.5576 204.994 24.252C206.134 25.0101 206.993 26.1228 207.437 27.4179L203.626 28.5535C203.521 28.2223 203.361 27.9111 203.152 27.633C202.889 27.3205 202.552 27.0782 202.172 26.9276C201.553 26.675 200.865 26.6543 200.232 26.8693C199.6 27.0843 199.067 27.5205 198.73 28.0976C198.313 28.9816 198.155 29.9662 198.275 30.9366C198.349 32.5024 198.636 33.5605 199.135 34.1111C199.394 34.3856 199.715 34.5948 200.071 34.7219C200.427 34.849 200.808 34.8903 201.182 34.8424C201.535 34.8381 201.883 34.7592 202.203 34.6109C202.524 34.4627 202.809 34.2484 203.041 33.9821C203.516 33.3712 203.827 32.6484 203.944 31.8829Z" fill="#FAFAFA"/>
<path d="M209.416 30.2398C209.348 29.2503 209.478 28.2572 209.797 27.318C210.116 26.3788 210.618 25.5122 211.274 24.7683C211.978 24.0758 212.813 23.5317 213.731 23.1682C214.648 22.8046 215.63 22.6291 216.617 22.6519C217.596 22.5544 218.585 22.6565 219.524 22.9523C220.463 23.248 221.333 23.7312 222.08 24.3725C222.75 25.0691 223.271 25.8957 223.609 26.8012C223.948 27.7067 224.098 28.672 224.05 29.6376C224.124 31.0506 223.859 32.4608 223.275 33.7499C222.749 34.8236 221.921 35.7205 220.892 36.3308C219.696 36.9988 218.348 37.3484 216.978 37.346C215.625 37.4411 214.267 37.2233 213.012 36.7094C211.932 36.2128 211.031 35.3958 210.431 34.3693C209.725 33.1099 209.375 31.6828 209.416 30.2398ZM213.778 30.1194C213.702 31.2091 214.006 32.2914 214.638 33.1821C214.906 33.4856 215.242 33.7217 215.619 33.8711C215.996 34.0206 216.402 34.0793 216.806 34.0424C217.218 34.0517 217.628 33.9675 218.003 33.7962C218.379 33.6249 218.71 33.3708 218.974 33.0531C219.574 32.0526 219.831 30.8835 219.705 29.7237C219.779 28.685 219.473 27.6549 218.845 26.8244C218.57 26.522 218.229 26.2871 217.848 26.1379C217.468 25.9887 217.058 25.9292 216.651 25.9641C216.247 25.9629 215.847 26.0527 215.482 26.227C215.117 26.4012 214.796 26.6554 214.543 26.9707C213.938 27.8997 213.668 29.0074 213.778 30.1108V30.1194Z" fill="#FAFAFA"/>
<path d="M226.7 22.6174H232.438L234.417 31.2807L236.851 22.6777L242.59 22.7293L242.202 36.9244H238.624L238.916 26.0931L235.871 36.8985H232.636L230.184 26.0415L229.891 36.8727H226.312L226.7 22.6174Z" fill="#FAFAFA"/>
<path d="M245.738 22.8669L257.413 23.3917L257.232 26.42L249.92 26.0931L249.773 28.3901L256.553 28.6912L256.372 31.5389L249.593 31.2377L249.421 34.0423L256.94 34.3693L256.733 37.5868L244.844 37.0534L245.738 22.8669Z" fill="#FAFAFA"/>
</svg>
