<svg width="1350" height="876" viewBox="0 0 1350 876" fill="none" xmlns="http://www.w3.org/2000/svg">
<g style="mix-blend-mode:plus-darker" opacity="0.5" filter="url(#filter0_d_1267_639)">
<path d="M4.03328 100C4.03328 44.7715 48.8048 0 104.033 0H1246C1301.23 0 1346 44.7715 1346 100V768C1346 823.228 1301.26 868 1246.03 868C1227.2 868 1204.83 868 1178.25 868C1010.51 868 1107.89 789.592 1010.51 797.645C970.605 800.944 935.24 813.352 907.392 826.849C875.24 842.434 831.221 828.569 821.183 794.278C806.811 745.176 715.929 744.096 683.015 783.265C646.8 826.363 596.491 855.207 528.239 837.061C483.974 825.292 432.927 810.307 390.65 797.538C341.037 782.554 288.579 810.636 247.246 841.902C227.611 856.754 202.576 868 171.779 868C146.104 868 123.557 868 104.016 868C48.7874 868 4.03328 823.228 4.03328 768V100Z" fill="#2CBEE3"/>
</g>
<defs>
<filter id="filter0_d_1267_639" x="0.0332832" y="0" width="1349.97" height="876" filterUnits="userSpaceOnUse" color-interpolation-filters="sRGB">
<feFlood flood-opacity="0" result="BackgroundImageFix"/>
<feColorMatrix in="SourceAlpha" type="matrix" values="0 0 0 0 0 0 0 0 0 0 0 0 0 0 0 0 0 0 127 0" result="hardAlpha"/>
<feOffset dy="4"/>
<feGaussianBlur stdDeviation="2"/>
<feComposite in2="hardAlpha" operator="out"/>
<feColorMatrix type="matrix" values="0 0 0 0 0 0 0 0 0 0 0 0 0 0 0 0 0 0 0.25 0"/>
<feBlend mode="normal" in2="BackgroundImageFix" result="effect1_dropShadow_1267_639"/>
<feBlend mode="normal" in="SourceGraphic" in2="effect1_dropShadow_1267_639" result="shape"/>
</filter>
</defs>
</svg>
