<svg width="357" height="61" viewBox="0 0 357 61" fill="none" xmlns="http://www.w3.org/2000/svg">
<path d="M26.14 3.3C24.86 5.66 23.96 7.64 23.44 9.24C22.92 10.8 22.64 12.3 22.6 13.74V21.78H13.96V14.82C14 12.3 14.66 9.74 15.94 7.14C17.22 4.5 18.84 2.34 20.8 0.659998L26.14 3.3ZM0.1 14.82C0.14 12.3 0.8 9.74 2.08 7.14C3.36 4.5 4.98 2.34 6.94 0.659998L12.34 3.3C11.02 5.66 10.1 7.64 9.58 9.24C9.06 10.8 8.78 12.3 8.74 13.74V21.78H0.1V14.82ZM55.0741 39.36H40.2541L37.4941 48H27.5341L43.2541 5.34H51.9541L67.8541 48H57.8941L55.0741 39.36ZM52.7941 32.1L47.6341 16.26L42.5341 32.1H52.7941ZM80.4423 48H71.4423V3H80.4423V48ZM96.5556 48H87.5556V3H96.5556V48ZM152.734 32.4C152.734 35.64 152.234 38.48 151.234 40.92C150.234 43.36 148.794 45.26 146.914 46.62C145.074 47.94 142.914 48.6 140.434 48.6C137.314 48.6 134.774 47.5 132.814 45.3V60.18H123.814V16.32H132.214L132.514 19.38C134.434 16.94 137.054 15.72 140.374 15.72C144.214 15.72 147.234 17.16 149.434 20.04C151.634 22.92 152.734 26.88 152.734 31.92V32.4ZM132.814 38.64C133.854 40.64 135.614 41.64 138.094 41.64C139.894 41.64 141.254 40.9 142.174 39.42C143.134 37.9 143.634 35.66 143.674 32.7V31.74C143.714 28.82 143.254 26.6 142.294 25.08C141.334 23.52 139.914 22.74 138.034 22.74C135.514 22.74 133.774 23.7 132.814 25.62V38.64ZM176.043 24.42C175.443 24.26 174.383 24.18 172.863 24.18C169.663 24.18 167.583 25.28 166.623 27.48V48H157.623V16.32H166.143L166.383 20.34C168.063 17.26 170.423 15.72 173.463 15.72C174.503 15.72 175.403 15.84 176.163 16.08L176.043 24.42ZM177.572 31.86C177.492 28.94 178.012 26.26 179.132 23.82C180.292 21.34 182.012 19.38 184.292 17.94C186.612 16.46 189.412 15.72 192.692 15.72C195.732 15.72 198.392 16.4 200.672 17.76C202.952 19.08 204.712 20.98 205.952 23.46C207.192 25.9 207.812 28.78 207.812 32.1V32.46C207.812 35.74 207.192 38.6 205.952 41.04C204.712 43.44 202.952 45.3 200.672 46.62C198.392 47.94 195.752 48.6 192.752 48.6C189.792 48.6 187.192 47.98 184.952 46.74C182.712 45.5 180.952 43.72 179.672 41.4C178.392 39.08 177.712 36.38 177.632 33.3L177.572 31.86ZM186.572 32.46C186.572 35.5 187.092 37.8 188.132 39.36C189.212 40.88 190.752 41.64 192.752 41.64C194.712 41.64 196.212 40.88 197.252 39.36C198.332 37.84 198.872 35.64 198.872 32.76V31.86C198.872 28.9 198.332 26.64 197.252 25.08C196.212 23.48 194.692 22.68 192.692 22.68C190.812 22.68 189.352 23.38 188.312 24.78C187.272 26.18 186.692 28.24 186.572 30.96V32.46ZM211.439 31.92C211.439 26.92 212.539 22.98 214.739 20.1C216.979 17.18 220.019 15.72 223.859 15.72C226.899 15.72 229.379 16.86 231.299 19.14V3H240.299V48H232.199L231.779 44.58C229.739 47.26 227.079 48.6 223.799 48.6C221.319 48.6 219.139 47.94 217.259 46.62C215.419 45.3 213.979 43.38 212.939 40.86C211.939 38.34 211.439 35.36 211.439 31.92ZM220.439 32.52C220.439 35.48 220.919 37.74 221.879 39.3C222.839 40.82 224.239 41.58 226.079 41.58C228.559 41.58 230.299 40.54 231.299 38.46V25.86C230.299 23.78 228.579 22.74 226.139 22.74C224.379 22.74 223.019 23.44 222.059 24.84C221.099 26.2 220.559 28.22 220.439 30.9V32.52ZM265.828 48L265.588 44.64C263.508 47.28 260.628 48.6 256.948 48.6C253.508 48.6 250.888 47.6 249.088 45.6C247.288 43.56 246.388 40.64 246.388 36.84V16.32H255.388V36.9C255.388 40.02 256.828 41.58 259.708 41.58C262.388 41.58 264.228 40.62 265.228 38.7V16.32H274.228V48H265.828ZM293.461 41.64C294.941 41.64 296.121 41.22 297.001 40.38C297.921 39.5 298.401 38.36 298.441 36.96H306.841C306.841 39.16 306.261 41.14 305.101 42.9C303.981 44.66 302.421 46.06 300.421 47.1C298.421 48.1 296.141 48.6 293.581 48.6C289.021 48.6 285.421 47.16 282.781 44.28C280.181 41.36 278.881 37.36 278.881 32.28V31.74C278.881 28.7 279.441 25.98 280.561 23.58C281.681 21.14 283.341 19.22 285.541 17.82C287.741 16.42 290.421 15.72 293.581 15.72C297.581 15.72 300.781 16.86 303.181 19.14C305.581 21.38 306.801 24.4 306.841 28.2H298.441C298.401 26.48 297.921 25.14 297.001 24.18C296.081 23.18 294.861 22.68 293.341 22.68C291.501 22.68 290.141 23.42 289.261 24.9C288.381 26.34 287.921 28.6 287.881 31.68V32.58C287.841 35.78 288.281 38.1 289.201 39.54C290.121 40.94 291.541 41.64 293.461 41.64ZM322.17 8.46V16.32H327.51V22.62H322.17V38.16C322.17 39.4 322.39 40.26 322.83 40.74C323.27 41.22 324.13 41.46 325.41 41.46C326.29 41.46 327.11 41.4 327.87 41.28V47.82C326.27 48.34 324.51 48.6 322.59 48.6C319.39 48.6 317.01 47.82 315.45 46.26C313.93 44.7 313.17 42.32 313.17 39.12V22.62H308.79V16.32H313.17V8.46H322.17ZM330.08 25.62C331.36 23.3 332.26 21.34 332.78 19.74C333.3 18.14 333.58 16.62 333.62 15.18V7.2H342.32V14.16C342.28 16.68 341.62 19.26 340.34 21.9C339.06 24.5 337.44 26.64 335.48 28.32L330.08 25.62ZM343.94 25.62C345.22 23.3 346.12 21.34 346.64 19.74C347.16 18.14 347.44 16.62 347.48 15.18V7.2H356.12V14.16C356.08 16.64 355.42 19.2 354.14 21.84C352.86 24.48 351.24 26.64 349.28 28.32L343.94 25.62Z" fill="#090909"/>
</svg>
