<svg width="178" height="61" viewBox="0 0 178 61" fill="none" xmlns="http://www.w3.org/2000/svg">
<path d="M26.4662 3.3C25.1862 5.66 24.2862 7.64 23.7662 9.24C23.2462 10.8 22.9662 12.3 22.9262 13.74V21.78H14.2862V14.82C14.3262 12.3 14.9862 9.74 16.2662 7.14C17.5462 4.5 19.1662 2.34 21.1262 0.659998L26.4662 3.3ZM0.426172 14.82C0.466172 12.3 1.12617 9.74 2.40617 7.14C3.68617 4.5 5.30617 2.34 7.26617 0.659998L12.6662 3.3C11.3462 5.66 10.4262 7.64 9.90617 9.24C9.38617 10.8 9.10617 12.3 9.06617 13.74V21.78H0.426172V14.82ZM31.3402 48V5.34H46.3402C51.6602 5.34 55.7002 6.34 58.4602 8.34C61.2202 10.34 62.6002 13.24 62.6002 17.04C62.6002 19.24 62.0802 21.12 61.0402 22.68C60.0002 24.2 58.5002 25.34 56.5402 26.1C58.7802 26.7 60.5002 27.82 61.7002 29.46C62.9002 31.06 63.5002 33.06 63.5002 35.46C63.5002 39.58 62.2002 42.7 59.6002 44.82C57.0002 46.9 53.1602 47.96 48.0802 48H31.3402ZM47.9002 40.74C49.9002 40.74 51.4602 40.28 52.5802 39.36C53.7002 38.4 54.2602 37.06 54.2602 35.34C54.2602 31.46 52.2802 29.52 48.3202 29.52H40.6402V40.74H47.9002ZM46.6402 23.16C48.9202 23.16 50.5802 22.74 51.6202 21.9C52.7002 21.02 53.2402 19.72 53.2402 18C53.2402 16.12 52.7002 14.76 51.6202 13.92C50.5402 13.04 48.7802 12.6 46.3402 12.6H40.6402V23.16H46.6402ZM78.7177 48H69.7177V3H78.7177V48ZM84.031 31.86C83.951 28.94 84.471 26.26 85.591 23.82C86.751 21.34 88.471 19.38 90.751 17.94C93.071 16.46 95.871 15.72 99.151 15.72C102.191 15.72 104.851 16.4 107.131 17.76C109.411 19.08 111.171 20.98 112.411 23.46C113.651 25.9 114.271 28.78 114.271 32.1V32.46C114.271 35.74 113.651 38.6 112.411 41.04C111.171 43.44 109.411 45.3 107.131 46.62C104.851 47.94 102.211 48.6 99.211 48.6C96.251 48.6 93.651 47.98 91.411 46.74C89.171 45.5 87.411 43.72 86.131 41.4C84.851 39.08 84.171 36.38 84.091 33.3L84.031 31.86ZM93.031 32.46C93.031 35.5 93.551 37.8 94.591 39.36C95.671 40.88 97.211 41.64 99.211 41.64C101.171 41.64 102.671 40.88 103.711 39.36C104.791 37.84 105.331 35.64 105.331 32.76V31.86C105.331 28.9 104.791 26.64 103.711 25.08C102.671 23.48 101.151 22.68 99.151 22.68C97.271 22.68 95.811 23.38 94.771 24.78C93.731 26.18 93.151 28.24 93.031 30.96V32.46ZM118.018 31.86C118.018 28.58 118.558 25.72 119.638 23.28C120.718 20.84 122.218 18.98 124.138 17.7C126.098 16.38 128.358 15.72 130.918 15.72C134.318 15.72 136.998 16.88 138.958 19.2L139.258 16.32H147.418V46.86C147.418 48.5 146.978 50.36 146.098 52.44C145.258 54.52 143.678 56.38 141.358 58.02C139.038 59.66 135.858 60.48 131.818 60.48C129.498 60.48 127.238 60.02 125.038 59.1C122.878 58.22 121.218 57.06 120.058 55.62L123.958 50.28C125.918 52.6 128.418 53.76 131.458 53.76C133.738 53.76 135.458 53.16 136.618 51.96C137.778 50.76 138.358 49 138.358 46.68V45.36C136.438 47.52 133.938 48.6 130.858 48.6C128.298 48.6 126.038 47.94 124.078 46.62C122.158 45.26 120.658 43.34 119.578 40.86C118.538 38.38 118.018 35.5 118.018 32.22V31.86ZM127.018 32.52C127.018 35.32 127.558 37.54 128.638 39.18C129.718 40.78 131.218 41.58 133.138 41.58C135.538 41.58 137.278 40.7 138.358 38.94V25.38C137.278 23.62 135.558 22.74 133.198 22.74C131.238 22.74 129.718 23.58 128.638 25.26C127.558 26.94 127.018 29.36 127.018 32.52ZM151.754 25.62C153.034 23.3 153.934 21.34 154.454 19.74C154.974 18.14 155.254 16.62 155.294 15.18V7.2H163.994V14.16C163.954 16.68 163.294 19.26 162.014 21.9C160.734 24.5 159.114 26.64 157.154 28.32L151.754 25.62ZM165.614 25.62C166.894 23.3 167.794 21.34 168.314 19.74C168.834 18.14 169.114 16.62 169.154 15.18V7.2H177.794V14.16C177.754 16.64 177.094 19.2 175.814 21.84C174.534 24.48 172.914 26.64 170.954 28.32L165.614 25.62Z" fill="#090909"/>
</svg>
