<svg width="512" height="49" viewBox="0 0 512 49" fill="none" xmlns="http://www.w3.org/2000/svg">
<path d="M26.2377 3.3C24.9577 5.66 24.0577 7.64 23.5377 9.24C23.0177 10.8 22.7377 12.3 22.6977 13.74V21.78H14.0577V14.82C14.0977 12.3 14.7577 9.74 16.0377 7.14C17.3177 4.5 18.9377 2.34 20.8977 0.659998L26.2377 3.3ZM0.197656 14.82C0.237656 12.3 0.897656 9.74 2.17766 7.14C3.45766 4.5 5.07766 2.34 7.03766 0.659998L12.4377 3.3C11.1177 5.66 10.1977 7.64 9.67766 9.24C9.15766 10.8 8.87766 12.3 8.83766 13.74V21.78H0.197656V14.82ZM31.1117 48V5.34H44.4917C48.2917 5.34 51.6717 6.2 54.6317 7.92C57.5917 9.64 59.8917 12.04 61.5317 15.12C63.2117 18.2 64.0517 21.68 64.0517 25.56V27.66C64.0517 31.54 63.2317 35.04 61.5917 38.16C59.9917 41.24 57.7117 43.66 54.7517 45.42C51.8317 47.14 48.4717 48 44.6717 48H31.1117ZM44.4917 40.74C47.7317 40.74 50.2117 39.62 51.9317 37.38C53.6917 35.14 54.5717 31.9 54.5717 27.66V25.68C54.5717 21.4 53.7117 18.16 51.9917 15.96C50.2717 13.72 47.7917 12.6 44.5517 12.6H40.4117V40.74H44.4917ZM78.958 48H69.958V16.32H78.958V48ZM69.418 8.04C69.418 6.72 69.878 5.66 70.798 4.86C71.718 4.02 72.938 3.6 74.458 3.6C75.938 3.6 77.138 4.02 78.058 4.86C79.018 5.7 79.498 6.78 79.498 8.1C79.498 9.42 79.018 10.5 78.058 11.34C77.138 12.14 75.938 12.54 74.458 12.54C72.938 12.54 71.718 12.14 70.798 11.34C69.878 10.5 69.418 9.4 69.418 8.04ZM102.571 39.24C102.571 38.2 102.051 37.4 101.011 36.84C99.9713 36.28 98.3113 35.74 96.0313 35.22C88.6313 33.58 84.9313 30.38 84.9313 25.62C84.9313 23.7 85.4713 22 86.5513 20.52C87.6313 19 89.1313 17.82 91.0513 16.98C92.9713 16.14 95.1913 15.72 97.7113 15.72C100.391 15.72 102.751 16.16 104.791 17.04C106.831 17.88 108.411 19.08 109.531 20.64C110.651 22.16 111.211 23.94 111.211 25.98H102.211C102.211 24.66 101.811 23.64 101.011 22.92C100.251 22.16 99.1313 21.78 97.6513 21.78C96.4513 21.78 95.4513 22.1 94.6513 22.74C93.8513 23.38 93.4513 24.2 93.4513 25.2C93.4513 26.32 94.0513 27.16 95.2513 27.72C96.4913 28.24 98.2313 28.76 100.471 29.28C101.431 29.44 102.351 29.66 103.231 29.94C105.911 30.78 107.911 31.94 109.231 33.42C110.551 34.86 111.211 36.68 111.211 38.88C111.211 40.76 110.631 42.44 109.471 43.92C108.351 45.4 106.771 46.56 104.731 47.4C102.691 48.2 100.351 48.6 97.7113 48.6C95.2713 48.6 92.9913 48.16 90.8713 47.28C88.7913 46.36 87.1113 45.08 85.8313 43.44C84.5513 41.8 83.9113 39.96 83.9113 37.92H92.3713C92.4113 39.4 92.9313 40.54 93.9313 41.34C94.9313 42.1 96.2713 42.48 97.9512 42.48C99.3913 42.48 100.511 42.18 101.311 41.58C102.151 40.98 102.571 40.2 102.571 39.24ZM129.613 41.64C131.093 41.64 132.273 41.22 133.153 40.38C134.073 39.5 134.553 38.36 134.593 36.96H142.993C142.993 39.16 142.413 41.14 141.253 42.9C140.133 44.66 138.573 46.06 136.573 47.1C134.573 48.1 132.293 48.6 129.733 48.6C125.173 48.6 121.573 47.16 118.933 44.28C116.333 41.36 115.033 37.36 115.033 32.28V31.74C115.033 28.7 115.593 25.98 116.713 23.58C117.833 21.14 119.493 19.22 121.693 17.82C123.893 16.42 126.573 15.72 129.733 15.72C133.733 15.72 136.933 16.86 139.333 19.14C141.733 21.38 142.953 24.4 142.993 28.2H134.593C134.553 26.48 134.073 25.14 133.153 24.18C132.233 23.18 131.013 22.68 129.493 22.68C127.653 22.68 126.293 23.42 125.413 24.9C124.533 26.34 124.073 28.6 124.033 31.68V32.58C123.993 35.78 124.433 38.1 125.353 39.54C126.273 40.94 127.693 41.64 129.613 41.64ZM146.322 31.86C146.242 28.94 146.762 26.26 147.882 23.82C149.042 21.34 150.762 19.38 153.042 17.94C155.362 16.46 158.162 15.72 161.442 15.72C164.482 15.72 167.142 16.4 169.422 17.76C171.702 19.08 173.462 20.98 174.702 23.46C175.942 25.9 176.562 28.78 176.562 32.1V32.46C176.562 35.74 175.942 38.6 174.702 41.04C173.462 43.44 171.702 45.3 169.422 46.62C167.142 47.94 164.502 48.6 161.502 48.6C158.542 48.6 155.942 47.98 153.702 46.74C151.462 45.5 149.702 43.72 148.422 41.4C147.142 39.08 146.462 36.38 146.382 33.3L146.322 31.86ZM155.322 32.46C155.322 35.5 155.842 37.8 156.882 39.36C157.962 40.88 159.502 41.64 161.502 41.64C163.462 41.64 164.962 40.88 166.002 39.36C167.082 37.84 167.622 35.64 167.622 32.76V31.86C167.622 28.9 167.082 26.64 166.002 25.08C164.962 23.48 163.442 22.68 161.442 22.68C159.562 22.68 158.102 23.38 157.062 24.78C156.022 26.18 155.442 28.24 155.322 30.96V32.46ZM200.769 48L200.529 44.64C198.449 47.28 195.569 48.6 191.889 48.6C188.449 48.6 185.829 47.6 184.029 45.6C182.229 43.56 181.329 40.64 181.329 36.84V16.32H190.329V36.9C190.329 40.02 191.769 41.58 194.649 41.58C197.329 41.58 199.169 40.62 200.169 38.7V16.32H209.169V48H200.769ZM223.362 16.32L223.722 20.1C225.922 17.18 228.962 15.72 232.842 15.72C239.442 15.72 242.762 19.64 242.802 27.48V48H233.802V27.84C233.802 26.04 233.422 24.74 232.662 23.94C231.942 23.14 230.702 22.74 228.942 22.74C226.702 22.74 225.042 23.68 223.962 25.56V48H214.962V16.32H223.362ZM259.513 8.46V16.32H264.853V22.62H259.513V38.16C259.513 39.4 259.733 40.26 260.173 40.74C260.613 41.22 261.473 41.46 262.753 41.46C263.633 41.46 264.453 41.4 265.213 41.28V47.82C263.613 48.34 261.853 48.6 259.933 48.6C256.733 48.6 254.353 47.82 252.793 46.26C251.273 44.7 250.513 42.32 250.513 39.12V22.62H246.133V16.32H250.513V8.46H259.513ZM284.104 48.6C280.944 48.6 278.164 47.96 275.764 46.68C273.364 45.36 271.484 43.52 270.124 41.16C268.804 38.76 268.144 36.02 268.144 32.94V32.1C268.144 28.9 268.724 26.08 269.884 23.64C271.084 21.16 272.804 19.22 275.044 17.82C277.324 16.42 280.004 15.72 283.084 15.72C287.524 15.72 290.984 17.1 293.464 19.86C295.984 22.62 297.244 26.48 297.244 31.44V34.98H277.264V35.04C277.584 37.08 278.384 38.7 279.664 39.9C280.984 41.06 282.664 41.64 284.704 41.64C287.824 41.64 290.324 40.46 292.204 38.1L296.464 42.9C295.184 44.66 293.444 46.06 291.244 47.1C289.084 48.1 286.704 48.6 284.104 48.6ZM288.424 29.1V28.44C288.384 26.6 287.904 25.18 286.984 24.18C286.064 23.18 284.764 22.68 283.084 22.68C281.484 22.68 280.184 23.24 279.184 24.36C278.184 25.44 277.544 27.02 277.264 29.1H288.424ZM300.365 31.92C300.365 26.92 301.465 22.98 303.665 20.1C305.905 17.18 308.945 15.72 312.785 15.72C315.825 15.72 318.305 16.86 320.225 19.14V3H329.225V48H321.125L320.705 44.58C318.665 47.26 316.005 48.6 312.725 48.6C310.245 48.6 308.065 47.94 306.185 46.62C304.345 45.3 302.905 43.38 301.865 40.86C300.865 38.34 300.365 35.36 300.365 31.92ZM309.365 32.52C309.365 35.48 309.845 37.74 310.805 39.3C311.765 40.82 313.165 41.58 315.005 41.58C317.485 41.58 319.225 40.54 320.225 38.46V25.86C319.225 23.78 317.505 22.74 315.065 22.74C313.305 22.74 311.945 23.44 310.985 24.84C310.025 26.2 309.485 28.22 309.365 30.9V32.52ZM355.646 33.12V48H346.346V5.34H363.086C366.366 5.34 369.226 5.96 371.666 7.2C374.106 8.4 375.986 10.08 377.306 12.24C378.626 14.36 379.286 16.78 379.286 19.5C379.286 23.7 377.826 27.02 374.906 29.46C372.026 31.9 368.026 33.12 362.906 33.12H355.646ZM363.086 25.8C365.286 25.8 366.946 25.26 368.066 24.18C369.226 23.1 369.806 21.56 369.806 19.56C369.806 17.44 369.206 15.76 368.006 14.52C366.846 13.28 365.246 12.64 363.206 12.6H355.646V25.8H363.086ZM403.074 24.42C402.474 24.26 401.414 24.18 399.894 24.18C396.694 24.18 394.614 25.28 393.654 27.48V48H384.654V16.32H393.174L393.414 20.34C395.094 17.26 397.454 15.72 400.494 15.72C401.534 15.72 402.434 15.84 403.194 16.08L403.074 24.42ZM416.399 48H407.399V16.32H416.399V48ZM406.859 8.04C406.859 6.72 407.319 5.66 408.239 4.86C409.159 4.02 410.379 3.6 411.899 3.6C413.379 3.6 414.579 4.02 415.499 4.86C416.459 5.7 416.939 6.78 416.939 8.1C416.939 9.42 416.459 10.5 415.499 11.34C414.579 12.14 413.379 12.54 411.899 12.54C410.379 12.54 409.159 12.14 408.239 11.34C407.319 10.5 406.859 9.4 406.859 8.04ZM436.293 41.64C437.773 41.64 438.953 41.22 439.833 40.38C440.753 39.5 441.233 38.36 441.273 36.96H449.673C449.673 39.16 449.093 41.14 447.933 42.9C446.813 44.66 445.253 46.06 443.253 47.1C441.253 48.1 438.973 48.6 436.413 48.6C431.853 48.6 428.253 47.16 425.613 44.28C423.013 41.36 421.713 37.36 421.713 32.28V31.74C421.713 28.7 422.273 25.98 423.393 23.58C424.513 21.14 426.173 19.22 428.373 17.82C430.573 16.42 433.253 15.72 436.413 15.72C440.413 15.72 443.613 16.86 446.013 19.14C448.413 21.38 449.633 24.4 449.673 28.2H441.273C441.233 26.48 440.753 25.14 439.833 24.18C438.913 23.18 437.693 22.68 436.173 22.68C434.333 22.68 432.973 23.42 432.093 24.9C431.213 26.34 430.753 28.6 430.713 31.68V32.58C430.673 35.78 431.113 38.1 432.033 39.54C432.953 40.94 434.373 41.64 436.293 41.64ZM469.202 48.6C466.042 48.6 463.262 47.96 460.862 46.68C458.462 45.36 456.582 43.52 455.222 41.16C453.902 38.76 453.242 36.02 453.242 32.94V32.1C453.242 28.9 453.822 26.08 454.982 23.64C456.182 21.16 457.902 19.22 460.142 17.82C462.422 16.42 465.102 15.72 468.182 15.72C472.622 15.72 476.082 17.1 478.562 19.86C481.082 22.62 482.342 26.48 482.342 31.44V34.98H462.362V35.04C462.682 37.08 463.482 38.7 464.762 39.9C466.082 41.06 467.762 41.64 469.802 41.64C472.922 41.64 475.422 40.46 477.302 38.1L481.562 42.9C480.282 44.66 478.542 46.06 476.342 47.1C474.182 48.1 471.802 48.6 469.202 48.6ZM473.522 29.1V28.44C473.482 26.6 473.002 25.18 472.082 24.18C471.162 23.18 469.862 22.68 468.182 22.68C466.582 22.68 465.282 23.24 464.282 24.36C463.282 25.44 462.642 27.02 462.362 29.1H473.522ZM484.983 25.62C486.263 23.3 487.163 21.34 487.683 19.74C488.203 18.14 488.483 16.62 488.523 15.18V7.2H497.223V14.16C497.183 16.68 496.523 19.26 495.243 21.9C493.963 24.5 492.343 26.64 490.383 28.32L484.983 25.62ZM498.843 25.62C500.123 23.3 501.023 21.34 501.543 19.74C502.063 18.14 502.343 16.62 502.383 15.18V7.2H511.023V14.16C510.983 16.64 510.323 19.2 509.043 21.84C507.763 24.48 506.143 26.64 504.183 28.32L498.843 25.62Z" fill="#EDE9C4"/>
</svg>
