<svg width="326" height="61" viewBox="0 0 326 61" fill="none" xmlns="http://www.w3.org/2000/svg">
<path d="M26.7845 3.3C25.5045 5.66 24.6045 7.64 24.0845 9.24C23.5645 10.8 23.2845 12.3 23.2445 13.74V21.78H14.6045V14.82C14.6445 12.3 15.3045 9.74 16.5845 7.14C17.8645 4.5 19.4845 2.34 21.4445 0.659998L26.7845 3.3ZM0.744531 14.82C0.784531 12.3 1.44453 9.74 2.72453 7.14C4.00453 4.5 5.62453 2.34 7.58453 0.659998L12.9845 3.3C11.6645 5.66 10.7445 7.64 10.2245 9.24C9.70453 10.8 9.42453 12.3 9.38453 13.74V21.78H0.744531V14.82ZM43.8986 5.34L54.3386 36.06L64.6586 5.34H76.9586V48H67.5386V36.72L68.4986 16.8L57.4586 48H51.1586L40.0586 16.8L40.9586 36.72V48H31.6586V5.34H43.8986ZM101.799 48C101.439 47.32 101.139 46.34 100.899 45.06C98.8986 47.42 96.2586 48.6 92.9786 48.6C90.9786 48.6 89.1586 48.2 87.5186 47.4C85.8786 46.56 84.5786 45.42 83.6186 43.98C82.6986 42.5 82.2386 40.88 82.2386 39.12C82.2386 35.72 83.4986 33.14 86.0186 31.38C88.5386 29.58 92.1986 28.68 96.9986 28.68H100.539V26.82C100.539 25.3 100.159 24.14 99.3986 23.34C98.6786 22.54 97.5986 22.14 96.1586 22.14C94.8386 22.14 93.7986 22.46 93.0386 23.1C92.3186 23.74 91.9586 24.66 91.9586 25.86H83.0186C83.0186 23.94 83.5986 22.22 84.7586 20.7C85.9186 19.14 87.5386 17.92 89.6186 17.04C91.6986 16.16 94.0386 15.72 96.6386 15.72C100.599 15.72 103.719 16.7 105.999 18.66C108.279 20.58 109.459 23.22 109.539 26.58V40.74C109.579 43.62 109.999 45.88 110.799 47.52V48H101.799ZM91.2386 38.52C91.2386 39.6 91.5786 40.46 92.2586 41.1C92.9786 41.74 93.9186 42.06 95.0786 42.06C96.3186 42.06 97.4186 41.78 98.3786 41.22C99.3786 40.62 100.099 39.88 100.539 39V33.66H97.3586C93.2786 33.66 91.2386 35.28 91.2386 38.52ZM123.889 16.32L124.249 20.1C126.449 17.18 129.489 15.72 133.369 15.72C139.969 15.72 143.289 19.64 143.329 27.48V48H134.329V27.84C134.329 26.04 133.949 24.74 133.189 23.94C132.469 23.14 131.229 22.74 129.469 22.74C127.229 22.74 125.569 23.68 124.489 25.56V48H115.489V16.32H123.889ZM167.541 48C167.181 47.32 166.881 46.34 166.641 45.06C164.641 47.42 162.001 48.6 158.721 48.6C156.721 48.6 154.901 48.2 153.261 47.4C151.621 46.56 150.321 45.42 149.361 43.98C148.441 42.5 147.981 40.88 147.981 39.12C147.981 35.72 149.241 33.14 151.761 31.38C154.281 29.58 157.941 28.68 162.741 28.68H166.281V26.82C166.281 25.3 165.901 24.14 165.141 23.34C164.421 22.54 163.341 22.14 161.901 22.14C160.581 22.14 159.541 22.46 158.781 23.1C158.061 23.74 157.701 24.66 157.701 25.86H148.761C148.761 23.94 149.341 22.22 150.501 20.7C151.661 19.14 153.281 17.92 155.361 17.04C157.441 16.16 159.781 15.72 162.381 15.72C166.341 15.72 169.461 16.7 171.741 18.66C174.021 20.58 175.201 23.22 175.281 26.58V40.74C175.321 43.62 175.741 45.88 176.541 47.52V48H167.541ZM156.981 38.52C156.981 39.6 157.321 40.46 158.001 41.1C158.721 41.74 159.661 42.06 160.821 42.06C162.061 42.06 163.161 41.78 164.121 41.22C165.121 40.62 165.841 39.88 166.281 39V33.66H163.101C159.021 33.66 156.981 35.28 156.981 38.52ZM180.212 31.86C180.212 28.58 180.752 25.72 181.832 23.28C182.912 20.84 184.412 18.98 186.332 17.7C188.292 16.38 190.552 15.72 193.112 15.72C196.512 15.72 199.192 16.88 201.152 19.2L201.452 16.32H209.612V46.86C209.612 48.5 209.172 50.36 208.292 52.44C207.452 54.52 205.872 56.38 203.552 58.02C201.232 59.66 198.052 60.48 194.012 60.48C191.692 60.48 189.432 60.02 187.232 59.1C185.072 58.22 183.412 57.06 182.252 55.62L186.152 50.28C188.112 52.6 190.612 53.76 193.652 53.76C195.932 53.76 197.652 53.16 198.812 51.96C199.972 50.76 200.552 49 200.552 46.68V45.36C198.632 47.52 196.132 48.6 193.052 48.6C190.492 48.6 188.232 47.94 186.272 46.62C184.352 45.26 182.852 43.34 181.772 40.86C180.732 38.38 180.212 35.5 180.212 32.22V31.86ZM189.212 32.52C189.212 35.32 189.752 37.54 190.832 39.18C191.912 40.78 193.412 41.58 195.332 41.58C197.732 41.58 199.472 40.7 200.552 38.94V25.38C199.472 23.62 197.752 22.74 195.392 22.74C193.432 22.74 191.912 23.58 190.832 25.26C189.752 26.94 189.212 29.36 189.212 32.52ZM230.628 48.6C227.468 48.6 224.688 47.96 222.288 46.68C219.888 45.36 218.008 43.52 216.647 41.16C215.327 38.76 214.667 36.02 214.667 32.94V32.1C214.667 28.9 215.248 26.08 216.408 23.64C217.608 21.16 219.328 19.22 221.568 17.82C223.848 16.42 226.528 15.72 229.608 15.72C234.048 15.72 237.508 17.1 239.988 19.86C242.508 22.62 243.768 26.48 243.768 31.44V34.98H223.788V35.04C224.108 37.08 224.908 38.7 226.188 39.9C227.508 41.06 229.188 41.64 231.228 41.64C234.348 41.64 236.848 40.46 238.728 38.1L242.987 42.9C241.708 44.66 239.968 46.06 237.768 47.1C235.608 48.1 233.228 48.6 230.628 48.6ZM234.948 29.1V28.44C234.908 26.6 234.428 25.18 233.508 24.18C232.588 23.18 231.288 22.68 229.608 22.68C228.008 22.68 226.708 23.24 225.708 24.36C224.708 25.44 224.068 27.02 223.788 29.1H234.948ZM266.628 24.42C266.028 24.26 264.968 24.18 263.448 24.18C260.248 24.18 258.168 25.28 257.208 27.48V48H248.208V16.32H256.728L256.968 20.34C258.648 17.26 261.008 15.72 264.048 15.72C265.088 15.72 265.988 15.84 266.748 16.08L266.628 24.42ZM287.454 39.24C287.454 38.2 286.934 37.4 285.894 36.84C284.854 36.28 283.194 35.74 280.914 35.22C273.514 33.58 269.814 30.38 269.814 25.62C269.814 23.7 270.354 22 271.434 20.52C272.514 19 274.014 17.82 275.934 16.98C277.854 16.14 280.074 15.72 282.594 15.72C285.274 15.72 287.634 16.16 289.674 17.04C291.714 17.88 293.294 19.08 294.414 20.64C295.534 22.16 296.094 23.94 296.094 25.98H287.094C287.094 24.66 286.694 23.64 285.894 22.92C285.134 22.16 284.014 21.78 282.534 21.78C281.334 21.78 280.334 22.1 279.534 22.74C278.734 23.38 278.334 24.2 278.334 25.2C278.334 26.32 278.934 27.16 280.134 27.72C281.374 28.24 283.114 28.76 285.354 29.28C286.314 29.44 287.234 29.66 288.114 29.94C290.794 30.78 292.794 31.94 294.114 33.42C295.434 34.86 296.094 36.68 296.094 38.88C296.094 40.76 295.514 42.44 294.354 43.92C293.234 45.4 291.654 46.56 289.614 47.4C287.574 48.2 285.234 48.6 282.594 48.6C280.154 48.6 277.874 48.16 275.754 47.28C273.674 46.36 271.994 45.08 270.714 43.44C269.434 41.8 268.794 39.96 268.794 37.92H277.254C277.294 39.4 277.814 40.54 278.814 41.34C279.814 42.1 281.154 42.48 282.834 42.48C284.274 42.48 285.394 42.18 286.194 41.58C287.034 40.98 287.454 40.2 287.454 39.24ZM299.436 25.62C300.716 23.3 301.616 21.34 302.136 19.74C302.656 18.14 302.936 16.62 302.976 15.18V7.2H311.676V14.16C311.636 16.68 310.976 19.26 309.696 21.9C308.416 24.5 306.796 26.64 304.836 28.32L299.436 25.62ZM313.296 25.62C314.576 23.3 315.476 21.34 315.996 19.74C316.516 18.14 316.796 16.62 316.836 15.18V7.2H325.476V14.16C325.436 16.64 324.776 19.2 323.496 21.84C322.216 24.48 320.596 26.64 318.636 28.32L313.296 25.62Z" fill="#090909"/>
</svg>
