<svg width="496" height="61" viewBox="0 0 496 61" fill="none" xmlns="http://www.w3.org/2000/svg">
<path d="M26.3548 3.3C25.0748 5.66 24.1748 7.64 23.6548 9.24C23.1348 10.8 22.8548 12.3 22.8148 13.74V21.78H14.1748V14.82C14.2148 12.3 14.8748 9.74 16.1548 7.14C17.4348 4.5 19.0548 2.34 21.0148 0.659998L26.3548 3.3ZM0.314844 14.82C0.354844 12.3 1.01484 9.74 2.29484 7.14C3.57484 4.5 5.19484 2.34 7.15484 0.659998L12.5548 3.3C11.2348 5.66 10.3148 7.64 9.79484 9.24C9.27484 10.8 8.99484 12.3 8.95484 13.74V21.78H0.314844V14.82ZM53.4289 36.78C53.4289 35.06 52.7689 33.72 51.4489 32.76C50.6889 32.2 49.8089 31.72 48.8089 31.32C47.8489 30.92 46.5089 30.44 44.7889 29.88C42.1089 28.96 40.2089 28.22 39.0889 27.66C33.6889 24.98 30.9889 21.3 30.9889 16.62C30.9889 14.14 31.7089 12.02 33.1489 10.26C34.6289 8.46 36.5889 7.1 39.0289 6.18C41.4689 5.22 44.1289 4.74 47.0089 4.74C50.0889 4.74 52.8089 5.3 55.1689 6.42C57.5689 7.54 59.4289 9.1 60.7489 11.1C62.1089 13.1 62.7889 15.38 62.7889 17.94H53.4289C53.4289 16.02 52.8489 14.54 51.6889 13.5C50.5289 12.42 48.9089 11.88 46.8289 11.88C44.7889 11.88 43.1889 12.32 42.0289 13.2C40.8689 14.08 40.2889 15.24 40.2889 16.68C40.2889 18.04 40.9889 19.18 42.3889 20.1C43.1889 20.66 44.1289 21.16 45.2089 21.6C46.2889 22.04 47.5889 22.52 49.1089 23.04C52.1889 24.08 54.4689 25.02 55.9489 25.86C60.5089 28.42 62.7889 32.02 62.7889 36.66C62.7889 40.34 61.3889 43.26 58.5889 45.42C55.7889 47.54 51.9889 48.6 47.1889 48.6C44.1089 48.6 41.2289 48.08 38.5489 47.04C35.8689 45.96 33.7089 44.36 32.0689 42.24C30.4689 40.08 29.6689 37.48 29.6689 34.44H39.0289C39.0289 39.12 41.7489 41.46 47.1889 41.46C49.1489 41.46 50.6689 41.06 51.7489 40.26C52.8689 39.42 53.4289 38.26 53.4289 36.78ZM77.4931 48H68.4931V16.32H77.4931V48ZM67.9531 8.04C67.9531 6.72 68.4131 5.66 69.3331 4.86C70.2531 4.02 71.4731 3.6 72.9931 3.6C74.4731 3.6 75.6731 4.02 76.5931 4.86C77.5531 5.7 78.0331 6.78 78.0331 8.1C78.0331 9.42 77.5531 10.5 76.5931 11.34C75.6731 12.14 74.4731 12.54 72.9931 12.54C71.4731 12.54 70.2531 12.14 69.3331 11.34C68.4131 10.5 67.9531 9.4 67.9531 8.04ZM92.5864 16.32L92.8864 19.98C95.1264 17.14 98.1664 15.72 102.006 15.72C106.086 15.72 108.846 17.34 110.286 20.58C112.486 17.34 115.646 15.72 119.766 15.72C126.326 15.72 129.666 19.56 129.786 27.24V48H120.786V27.84C120.786 26.04 120.446 24.74 119.766 23.94C119.126 23.14 118.006 22.74 116.406 22.74C115.286 22.74 114.326 23 113.526 23.52C112.606 24.08 111.906 24.94 111.426 26.1L111.486 26.58V48H102.486V27.84C102.486 26.04 102.146 24.74 101.466 23.94C100.826 23.14 99.6864 22.74 98.0464 22.74C97.0064 22.74 96.0664 22.98 95.2264 23.46C94.3464 23.98 93.6464 24.72 93.1264 25.68V48H84.1264V16.32H92.5864ZM145.462 48H136.462V16.32H145.462V48ZM135.922 8.04C135.922 6.72 136.382 5.66 137.302 4.86C138.222 4.02 139.442 3.6 140.962 3.6C142.442 3.6 143.642 4.02 144.562 4.86C145.522 5.7 146.002 6.78 146.002 8.1C146.002 9.42 145.522 10.5 144.562 11.34C143.642 12.14 142.442 12.54 140.962 12.54C139.442 12.54 138.222 12.14 137.302 11.34C136.382 10.5 135.922 9.4 135.922 8.04ZM161.575 48H152.575V3H161.575V48ZM186.388 48C186.028 47.32 185.728 46.34 185.488 45.06C183.488 47.42 180.848 48.6 177.568 48.6C175.568 48.6 173.748 48.2 172.108 47.4C170.468 46.56 169.168 45.42 168.208 43.98C167.288 42.5 166.828 40.88 166.828 39.12C166.828 35.72 168.088 33.14 170.608 31.38C173.128 29.58 176.788 28.68 181.588 28.68H185.128V26.82C185.128 25.3 184.748 24.14 183.988 23.34C183.268 22.54 182.188 22.14 180.748 22.14C179.428 22.14 178.388 22.46 177.628 23.1C176.908 23.74 176.548 24.66 176.548 25.86H167.608C167.608 23.94 168.188 22.22 169.348 20.7C170.508 19.14 172.128 17.92 174.208 17.04C176.288 16.16 178.628 15.72 181.228 15.72C185.188 15.72 188.308 16.7 190.588 18.66C192.868 20.58 194.048 23.22 194.128 26.58V40.74C194.168 43.62 194.588 45.88 195.388 47.52V48H186.388ZM175.828 38.52C175.828 39.6 176.168 40.46 176.848 41.1C177.568 41.74 178.508 42.06 179.668 42.06C180.908 42.06 182.008 41.78 182.968 41.22C183.968 40.62 184.688 39.88 185.128 39V33.66H181.948C177.868 33.66 175.828 35.28 175.828 38.52ZM218.679 24.42C218.079 24.26 217.019 24.18 215.499 24.18C212.299 24.18 210.219 25.28 209.259 27.48V48H200.259V16.32H208.779L209.019 20.34C210.699 17.26 213.059 15.72 216.099 15.72C217.139 15.72 218.039 15.84 218.799 16.08L218.679 24.42ZM261.757 32.4C261.757 35.64 261.257 38.48 260.257 40.92C259.257 43.36 257.817 45.26 255.937 46.62C254.097 47.94 251.937 48.6 249.457 48.6C246.337 48.6 243.797 47.5 241.837 45.3V60.18H232.837V16.32H241.237L241.537 19.38C243.457 16.94 246.077 15.72 249.397 15.72C253.237 15.72 256.257 17.16 258.457 20.04C260.657 22.92 261.757 26.88 261.757 31.92V32.4ZM241.837 38.64C242.877 40.64 244.637 41.64 247.117 41.64C248.917 41.64 250.277 40.9 251.197 39.42C252.157 37.9 252.657 35.66 252.697 32.7V31.74C252.737 28.82 252.277 26.6 251.317 25.08C250.357 23.52 248.937 22.74 247.057 22.74C244.537 22.74 242.797 23.7 241.837 25.62V38.64ZM285.066 24.42C284.466 24.26 283.406 24.18 281.886 24.18C278.686 24.18 276.606 25.28 275.646 27.48V48H266.646V16.32H275.166L275.406 20.34C277.086 17.26 279.446 15.72 282.486 15.72C283.526 15.72 284.426 15.84 285.186 16.08L285.066 24.42ZM286.595 31.86C286.515 28.94 287.035 26.26 288.155 23.82C289.315 21.34 291.035 19.38 293.315 17.94C295.635 16.46 298.435 15.72 301.715 15.72C304.755 15.72 307.415 16.4 309.695 17.76C311.975 19.08 313.735 20.98 314.975 23.46C316.215 25.9 316.835 28.78 316.835 32.1V32.46C316.835 35.74 316.215 38.6 314.975 41.04C313.735 43.44 311.975 45.3 309.695 46.62C307.415 47.94 304.775 48.6 301.775 48.6C298.815 48.6 296.215 47.98 293.975 46.74C291.735 45.5 289.975 43.72 288.695 41.4C287.415 39.08 286.735 36.38 286.655 33.3L286.595 31.86ZM295.595 32.46C295.595 35.5 296.115 37.8 297.155 39.36C298.235 40.88 299.775 41.64 301.775 41.64C303.735 41.64 305.235 40.88 306.275 39.36C307.355 37.84 307.895 35.64 307.895 32.76V31.86C307.895 28.9 307.355 26.64 306.275 25.08C305.235 23.48 303.715 22.68 301.715 22.68C299.835 22.68 298.375 23.38 297.335 24.78C296.295 26.18 295.715 28.24 295.595 30.96V32.46ZM320.463 31.92C320.463 26.92 321.563 22.98 323.763 20.1C326.003 17.18 329.043 15.72 332.883 15.72C335.923 15.72 338.403 16.86 340.323 19.14V3H349.323V48H341.223L340.803 44.58C338.763 47.26 336.103 48.6 332.823 48.6C330.343 48.6 328.163 47.94 326.283 46.62C324.443 45.3 323.003 43.38 321.963 40.86C320.963 38.34 320.463 35.36 320.463 31.92ZM329.463 32.52C329.463 35.48 329.943 37.74 330.903 39.3C331.863 40.82 333.263 41.58 335.103 41.58C337.583 41.58 339.323 40.54 340.323 38.46V25.86C339.323 23.78 337.603 22.74 335.163 22.74C333.403 22.74 332.043 23.44 331.083 24.84C330.123 26.2 329.583 28.22 329.463 30.9V32.52ZM374.851 48L374.611 44.64C372.531 47.28 369.651 48.6 365.971 48.6C362.531 48.6 359.911 47.6 358.111 45.6C356.311 43.56 355.411 40.64 355.411 36.84V16.32H364.411V36.9C364.411 40.02 365.851 41.58 368.731 41.58C371.411 41.58 373.251 40.62 374.251 38.7V16.32H383.251V48H374.851ZM402.484 41.64C403.964 41.64 405.144 41.22 406.024 40.38C406.944 39.5 407.424 38.36 407.464 36.96H415.864C415.864 39.16 415.284 41.14 414.124 42.9C413.004 44.66 411.444 46.06 409.444 47.1C407.444 48.1 405.164 48.6 402.604 48.6C398.044 48.6 394.444 47.16 391.804 44.28C389.204 41.36 387.904 37.36 387.904 32.28V31.74C387.904 28.7 388.464 25.98 389.584 23.58C390.704 21.14 392.364 19.22 394.564 17.82C396.764 16.42 399.444 15.72 402.604 15.72C406.604 15.72 409.804 16.86 412.204 19.14C414.604 21.38 415.824 24.4 415.864 28.2H407.464C407.424 26.48 406.944 25.14 406.024 24.18C405.104 23.18 403.884 22.68 402.364 22.68C400.524 22.68 399.164 23.42 398.284 24.9C397.404 26.34 396.944 28.6 396.904 31.68V32.58C396.864 35.78 397.304 38.1 398.224 39.54C399.144 40.94 400.564 41.64 402.484 41.64ZM431.193 8.46V16.32H436.533V22.62H431.193V38.16C431.193 39.4 431.413 40.26 431.853 40.74C432.293 41.22 433.153 41.46 434.433 41.46C435.313 41.46 436.133 41.4 436.893 41.28V47.82C435.293 48.34 433.533 48.6 431.613 48.6C428.413 48.6 426.033 47.82 424.473 46.26C422.953 44.7 422.193 42.32 422.193 39.12V22.62H417.813V16.32H422.193V8.46H431.193ZM457.884 39.24C457.884 38.2 457.364 37.4 456.324 36.84C455.284 36.28 453.624 35.74 451.344 35.22C443.944 33.58 440.244 30.38 440.244 25.62C440.244 23.7 440.784 22 441.864 20.52C442.944 19 444.444 17.82 446.364 16.98C448.284 16.14 450.504 15.72 453.024 15.72C455.704 15.72 458.064 16.16 460.104 17.04C462.144 17.88 463.724 19.08 464.844 20.64C465.964 22.16 466.524 23.94 466.524 25.98H457.524C457.524 24.66 457.124 23.64 456.324 22.92C455.564 22.16 454.444 21.78 452.964 21.78C451.764 21.78 450.764 22.1 449.964 22.74C449.164 23.38 448.764 24.2 448.764 25.2C448.764 26.32 449.364 27.16 450.564 27.72C451.804 28.24 453.544 28.76 455.784 29.28C456.744 29.44 457.664 29.66 458.544 29.94C461.224 30.78 463.224 31.94 464.544 33.42C465.864 34.86 466.524 36.68 466.524 38.88C466.524 40.76 465.944 42.44 464.784 43.92C463.664 45.4 462.084 46.56 460.044 47.4C458.004 48.2 455.664 48.6 453.024 48.6C450.584 48.6 448.304 48.16 446.184 47.28C444.104 46.36 442.424 45.08 441.144 43.44C439.864 41.8 439.224 39.96 439.224 37.92H447.684C447.724 39.4 448.244 40.54 449.244 41.34C450.244 42.1 451.584 42.48 453.264 42.48C454.704 42.48 455.824 42.18 456.624 41.58C457.464 40.98 457.884 40.2 457.884 39.24ZM469.865 25.62C471.145 23.3 472.045 21.34 472.565 19.74C473.085 18.14 473.365 16.62 473.405 15.18V7.2H482.105V14.16C482.065 16.68 481.405 19.26 480.125 21.9C478.845 24.5 477.225 26.64 475.265 28.32L469.865 25.62ZM483.725 25.62C485.005 23.3 485.905 21.34 486.425 19.74C486.945 18.14 487.225 16.62 487.265 15.18V7.2H495.905V14.16C495.865 16.64 495.205 19.2 493.925 21.84C492.645 24.48 491.025 26.64 489.065 28.32L483.725 25.62Z" fill="#EDE9C4"/>
</svg>
