<svg width="330" height="61" viewBox="0 0 330 61" fill="none" xmlns="http://www.w3.org/2000/svg">
<path d="M26.7338 3.3C25.4538 5.66 24.5538 7.64 24.0338 9.24C23.5138 10.8 23.2338 12.3 23.1938 13.74V21.78H14.5538V14.82C14.5938 12.3 15.2538 9.74 16.5338 7.14C17.8138 4.5 19.4338 2.34 21.3938 0.659998L26.7338 3.3ZM0.69375 14.82C0.73375 12.3 1.39375 9.74 2.67375 7.14C3.95375 4.5 5.57375 2.34 7.53375 0.659998L12.9338 3.3C11.6138 5.66 10.6938 7.64 10.1738 9.24C9.65375 10.8 9.37375 12.3 9.33375 13.74V21.78H0.69375V14.82ZM64.3078 5.34V33.78C64.3078 38.3 62.8678 41.9 59.9878 44.58C57.1078 47.22 53.0678 48.56 47.8678 48.6C44.5078 48.6 41.5678 48 39.0478 46.8C36.5678 45.6 34.6478 43.88 33.2878 41.64C31.9278 39.4 31.2478 36.78 31.2478 33.78V5.34H40.6678V33.78C40.6678 36.26 41.2878 38.14 42.5278 39.42C43.7678 40.7 45.5478 41.34 47.8678 41.34C52.6278 41.34 55.0078 38.82 55.0078 33.78V5.34H64.3078ZM80.2744 48H71.2744V16.32H80.2744V48ZM70.7344 8.04C70.7344 6.72 71.1944 5.66 72.1144 4.86C73.0344 4.02 74.2544 3.6 75.7744 3.6C77.2544 3.6 78.4544 4.02 79.3744 4.86C80.3344 5.7 80.8144 6.78 80.8144 8.1C80.8144 9.42 80.3344 10.5 79.3744 11.34C78.4544 12.14 77.2544 12.54 75.7744 12.54C74.2544 12.54 73.0344 12.14 72.1144 11.34C71.1944 10.5 70.7344 9.4 70.7344 8.04ZM126.14 32.4C126.14 35.64 125.64 38.48 124.64 40.92C123.64 43.36 122.2 45.26 120.32 46.62C118.48 47.94 116.32 48.6 113.84 48.6C110.72 48.6 108.18 47.5 106.22 45.3V60.18H97.2202V16.32H105.62L105.92 19.38C107.84 16.94 110.46 15.72 113.78 15.72C117.62 15.72 120.64 17.16 122.84 20.04C125.04 22.92 126.14 26.88 126.14 31.92V32.4ZM106.22 38.64C107.26 40.64 109.02 41.64 111.5 41.64C113.3 41.64 114.66 40.9 115.58 39.42C116.54 37.9 117.04 35.66 117.08 32.7V31.74C117.12 28.82 116.66 26.6 115.7 25.08C114.74 23.52 113.32 22.74 111.44 22.74C108.92 22.74 107.18 23.7 106.22 25.62V38.64ZM149.449 24.42C148.849 24.26 147.789 24.18 146.269 24.18C143.069 24.18 140.989 25.28 140.029 27.48V48H131.029V16.32H139.549L139.789 20.34C141.469 17.26 143.829 15.72 146.869 15.72C147.909 15.72 148.809 15.84 149.569 16.08L149.449 24.42ZM150.978 31.86C150.898 28.94 151.418 26.26 152.538 23.82C153.698 21.34 155.418 19.38 157.698 17.94C160.018 16.46 162.818 15.72 166.098 15.72C169.138 15.72 171.798 16.4 174.078 17.76C176.358 19.08 178.118 20.98 179.358 23.46C180.598 25.9 181.218 28.78 181.218 32.1V32.46C181.218 35.74 180.598 38.6 179.358 41.04C178.118 43.44 176.358 45.3 174.078 46.62C171.798 47.94 169.158 48.6 166.158 48.6C163.198 48.6 160.598 47.98 158.358 46.74C156.118 45.5 154.358 43.72 153.078 41.4C151.798 39.08 151.118 36.38 151.038 33.3L150.978 31.86ZM159.978 32.46C159.978 35.5 160.498 37.8 161.538 39.36C162.618 40.88 164.158 41.64 166.158 41.64C168.118 41.64 169.618 40.88 170.658 39.36C171.738 37.84 172.278 35.64 172.278 32.76V31.86C172.278 28.9 171.738 26.64 170.658 25.08C169.618 23.48 168.098 22.68 166.098 22.68C164.218 22.68 162.758 23.38 161.718 24.78C160.678 26.18 160.098 28.24 159.978 30.96V32.46ZM184.845 31.92C184.845 26.92 185.945 22.98 188.145 20.1C190.385 17.18 193.425 15.72 197.265 15.72C200.305 15.72 202.785 16.86 204.705 19.14V3H213.705V48H205.605L205.185 44.58C203.145 47.26 200.485 48.6 197.205 48.6C194.725 48.6 192.545 47.94 190.665 46.62C188.825 45.3 187.385 43.38 186.345 40.86C185.345 38.34 184.845 35.36 184.845 31.92ZM193.845 32.52C193.845 35.48 194.325 37.74 195.285 39.3C196.245 40.82 197.645 41.58 199.485 41.58C201.965 41.58 203.705 40.54 204.705 38.46V25.86C203.705 23.78 201.985 22.74 199.545 22.74C197.785 22.74 196.425 23.44 195.465 24.84C194.505 26.2 193.965 28.22 193.845 30.9V32.52ZM239.234 48L238.994 44.64C236.914 47.28 234.034 48.6 230.354 48.6C226.914 48.6 224.294 47.6 222.494 45.6C220.694 43.56 219.794 40.64 219.794 36.84V16.32H228.794V36.9C228.794 40.02 230.234 41.58 233.114 41.58C235.794 41.58 237.634 40.62 238.634 38.7V16.32H247.634V48H239.234ZM266.867 41.64C268.347 41.64 269.527 41.22 270.407 40.38C271.327 39.5 271.807 38.36 271.847 36.96H280.247C280.247 39.16 279.667 41.14 278.507 42.9C277.387 44.66 275.827 46.06 273.827 47.1C271.827 48.1 269.547 48.6 266.987 48.6C262.427 48.6 258.827 47.16 256.187 44.28C253.587 41.36 252.287 37.36 252.287 32.28V31.74C252.287 28.7 252.847 25.98 253.967 23.58C255.087 21.14 256.747 19.22 258.947 17.82C261.147 16.42 263.827 15.72 266.987 15.72C270.987 15.72 274.187 16.86 276.587 19.14C278.987 21.38 280.207 24.4 280.247 28.2H271.847C271.807 26.48 271.327 25.14 270.407 24.18C269.487 23.18 268.267 22.68 266.747 22.68C264.907 22.68 263.547 23.42 262.667 24.9C261.787 26.34 261.327 28.6 261.287 31.68V32.58C261.247 35.78 261.687 38.1 262.607 39.54C263.527 40.94 264.947 41.64 266.867 41.64ZM295.576 8.46V16.32H300.916V22.62H295.576V38.16C295.576 39.4 295.796 40.26 296.236 40.74C296.676 41.22 297.536 41.46 298.816 41.46C299.696 41.46 300.516 41.4 301.276 41.28V47.82C299.676 48.34 297.916 48.6 295.996 48.6C292.796 48.6 290.416 47.82 288.856 46.26C287.336 44.7 286.576 42.32 286.576 39.12V22.62H282.196V16.32H286.576V8.46H295.576ZM303.487 25.62C304.767 23.3 305.667 21.34 306.187 19.74C306.707 18.14 306.987 16.62 307.027 15.18V7.2H315.727V14.16C315.687 16.68 315.027 19.26 313.747 21.9C312.467 24.5 310.847 26.64 308.887 28.32L303.487 25.62ZM317.347 25.62C318.627 23.3 319.527 21.34 320.047 19.74C320.567 18.14 320.847 16.62 320.887 15.18V7.2H329.527V14.16C329.487 16.64 328.827 19.2 327.547 21.84C326.267 24.48 324.647 26.64 322.687 28.32L317.347 25.62Z" fill="#090909"/>
</svg>
